<svg xmlns="http://www.w3.org/2000/svg" viewBox="0 0 24 24"><defs><style>.cls-1{fill:none;}.cls-2{fill:#fff;}</style></defs><g data-name="Bounding area"><polyline class="cls-1" points="24 0 24 24 0 24 0 0"/></g><path class="cls-2" d="M16.5,11.25H12.75V7.5a.5.5,0,0,0-.5-.5h-.5a.5.5,0,0,0-.5.5v3.75H7.5a.5.5,0,0,0-.5.5v.5a.5.5,0,0,0,.5.5h3.75V16.5a.5.5,0,0,0,.5.5h.5a.5.5,0,0,0,.5-.5V12.75H16.5a.5.5,0,0,0,.5-.5v-.5A.5.5,0,0,0,16.5,11.25Z"/><path class="cls-2" d="M12,5a7,7,0,1,1-7,7,7,7,0,0,1,7-7m0-1.5A8.5,8.5,0,1,0,20.5,12,8.51,8.51,0,0,0,12,3.5Z"/></svg>