<svg xmlns="http://www.w3.org/2000/svg" viewBox="0 0 24 24"><defs><style>.cls-1{fill:none;}.cls-2{fill:#fff;}</style></defs><g data-name="Bounding area"><polyline class="cls-1" points="24 0 24 24 0 24 0 0"/></g><rect class="cls-2" x="9" y="13.03" width="6" height="1.5" rx="0.5" ry="0.5"/><path class="cls-2" d="M17.5,12.5v6H6.5v-6A.5.5,0,0,0,6,12H5.5a.5.5,0,0,0-.5.5v7a.5.5,0,0,0,.5.5h13a.5.5,0,0,0,.5-.5v-7a.5.5,0,0,0-.5-.5H18A.5.5,0,0,0,17.5,12.5Z"/><path class="cls-2" d="M18.5,5.5v3H5.5v-3h13M4.5,4a.5.5,0,0,0-.5.5v5a.5.5,0,0,0,.5.5h15a.5.5,0,0,0,.5-.5v-5a.5.5,0,0,0-.5-.5Z"/></svg>