<svg xmlns="http://www.w3.org/2000/svg" viewBox="0 0 24 24"><defs><style>.cls-1{fill:none;}.cls-2{fill:#fff;}</style></defs><g data-name="Bounding area"><polyline class="cls-1" points="24 0 24 24 0 24 0 0"/></g><path class="cls-2" d="M6.59,9.75A2.85,2.85,0,0,0,9.5,12.43a2.85,2.85,0,0,0,2.92-2.68l.29-2.55A3,3,0,0,0,9.5,3.61,3,3,0,0,0,6.29,7.2Z"/><path class="cls-2" d="M11.45,19.42,12,17.81a.29.29,0,0,1,.49-.12l1,1a.29.29,0,0,1-.11.49l-1.58.56A.29.29,0,0,1,11.45,19.42Z"/><rect class="cls-2" x="12.65" y="13.1" width="9.58" height="1.5" rx="0.5" ry="0.5" transform="translate(-4.69 16.39) rotate(-45)"/><path class="cls-2" d="M13.43,13.52a.24.24,0,0,0-.07-.17h0l-.19-.19h0a.24.24,0,0,0-.18-.07.25.25,0,0,0-.17.06A5.06,5.06,0,0,1,9.5,14.43a4.83,4.83,0,0,1-3.26-1.22.5.5,0,0,0-.56-.09A4.58,4.58,0,0,0,3.05,16.4a.5.5,0,0,0,.49.6H9.85a.49.49,0,0,0,.35-.15l3.15-3.15h0A.25.25,0,0,0,13.43,13.52Z"/></svg>