<svg id="878b1679-a98c-4664-b66f-41960f4181cc" xmlns="http://www.w3.org/2000/svg" viewBox="0 0 24 24"><g id="2f6b7012-b557-4ea1-aea2-158de6f4ea7b" data-name="Bounding area"><polyline id="261ad325-418a-4d48-a2b0-6906f22b41c0" points="24 0 24 24 0 24 0 0" fill="none"/></g><path d="M19.5,6.5v10H4.5V6.5h15m1-1.5H3.5a.5.5,0,0,0-.5.5v12a.5.5,0,0,0,.5.5h17a.5.5,0,0,0,.5-.5V5.5a.5.5,0,0,0-.5-.5Z" fill="#fff"/><path d="M5.5,7.5v8h13v-8Zm4.1,4.967a.85.85,0,0,0,.737-.388.269.269,0,0,1,.237-.152h.746c.135,0,.2.085.169.194a1.812,1.812,0,0,1-1.881,1.326,1.923,1.923,0,1,1,0-3.841,1.825,1.825,0,0,1,1.881,1.283c.026.11-.034.194-.169.194H10.56a.278.278,0,0,1-.229-.135.855.855,0,0,0-.728-.363.881.881,0,0,0-.89.937A.883.883,0,0,0,9.6,12.467Zm4.846,0a.85.85,0,0,0,.738-.388.268.268,0,0,1,.237-.152h.745c.136,0,.2.085.17.194a1.812,1.812,0,0,1-1.881,1.326,1.923,1.923,0,1,1,0-3.841,1.825,1.825,0,0,1,1.881,1.283c.025.11-.034.194-.17.194h-.762a.277.277,0,0,1-.229-.135.856.856,0,0,0-.729-.363.881.881,0,0,0-.889.937A.882.882,0,0,0,14.449,12.467Z" fill="#fff"/></svg>