<svg xmlns="http://www.w3.org/2000/svg" viewBox="0 0 24 24"><defs><style>.cls-1{fill:none;}.cls-2{fill:#fff;}</style></defs><g data-name="Bounding area"><polyline class="cls-1" points="24 0 24 24 0 24 0 0"/></g><path class="cls-2" d="M20.5,5H3.5a.5.5,0,0,0-.5.5V6a.5.5,0,0,0,.5.5h16v10H14.7a.5.5,0,0,0-.5.5v.5a.5.5,0,0,0,.5.5h5.8a.5.5,0,0,0,.5-.5V5.5A.5.5,0,0,0,20.5,5Z"/><path class="cls-2" d="M5.62,17.4a2.83,2.83,0,0,0-2-2,.5.5,0,0,0-.6.49V17.5a.51.51,0,0,0,.51.5H5.13A.49.49,0,0,0,5.62,17.4Zm3.31.08a6,6,0,0,0-5.4-5.41.5.5,0,0,0-.53.5v.5a.51.51,0,0,0,.48.5,4.5,4.5,0,0,1,4,4,.52.52,0,0,0,.5.47h.5A.49.49,0,0,0,8.93,17.48ZM3,9.81a.52.52,0,0,0,.49.5,7.7,7.7,0,0,1,7.22,7.21.49.49,0,0,0,.49.48h.5a.51.51,0,0,0,.51-.52A9.2,9.2,0,0,0,3.54,8.81a.51.51,0,0,0-.54.5Z"/><path class="cls-2" d="M6.4,7.5a10.45,10.45,0,0,1,7.7,8h4.4v-8Z"/></svg>