<svg xmlns="http://www.w3.org/2000/svg" viewBox="0 0 24 24"><defs><style>.cls-1{fill:none;}.cls-2{fill:#fff;}</style></defs><g data-name="Bounding area"><polyline class="cls-1" points="24 0 24 24 0 24 0 0"/></g><path class="cls-2" d="M19.18,5.18l-.35-.36a.51.51,0,0,0-.71,0L12,10.94,5.89,4.82a.51.51,0,0,0-.71,0l-.35.36a.48.48,0,0,0,0,.7L11,12,4.83,18.12a.48.48,0,0,0,0,.7l.35.36a.51.51,0,0,0,.71,0L12,13.06l6.11,6.12a.51.51,0,0,0,.71,0l.35-.36a.48.48,0,0,0,0-.7L13.07,12l6.11-6.12A.48.48,0,0,0,19.18,5.18Z"/></svg>