<svg xmlns="http://www.w3.org/2000/svg" viewBox="0 0 24 24"><defs><style>.cls-1{fill:none;}.cls-2{fill:#fff;}</style></defs><g data-name="Bounding area"><polyline class="cls-1" points="24 0 24 24 0 24 0 0"/></g><path class="cls-2" d="M13.32,6a.5.5,0,0,0-.48.36l-3.08,11a.5.5,0,0,0,.47.67h.46a.52.52,0,0,0,.49-.36l3.07-11A.5.5,0,0,0,13.78,6Z"/><path class="cls-2" d="M19.73,11.65,16.34,8.26h0a.4.4,0,0,0-.28-.12.37.37,0,0,0-.27.11l-.44.44a.36.36,0,0,0-.11.26.44.44,0,0,0,.11.28L18.12,12l-2.77,2.77a.44.44,0,0,0-.11.28.36.36,0,0,0,.11.26l.44.44a.37.37,0,0,0,.27.11.4.4,0,0,0,.28-.12h0l3.39-3.39A.5.5,0,0,0,19.73,11.65Z"/><path class="cls-2" d="M4.14,12.35l3.39,3.39h0a.4.4,0,0,0,.28.12.37.37,0,0,0,.27-.11l.44-.44a.41.41,0,0,0,.11-.26.4.4,0,0,0-.12-.28L5.75,12,8.51,9.23A.4.4,0,0,0,8.63,9a.41.41,0,0,0-.11-.26l-.44-.44a.37.37,0,0,0-.27-.11.4.4,0,0,0-.28.12h0L4.14,11.65A.48.48,0,0,0,4.14,12.35Z"/></svg>