<svg xmlns="http://www.w3.org/2000/svg" viewBox="0 0 24 24"><defs><style>.cls-1{fill:none;}.cls-2{fill:#fff;}</style></defs><g data-name="Bounding area"><polyline class="cls-1" points="24 0 24 24 0 24 0 0"/></g><path class="cls-2" d="M19.5,5.5v9H13.64a.47.47,0,0,0-.32.12L9.5,17.8V15a.5.5,0,0,0-.5-.5H4.5v-9h15M21,4H3.5a.5.5,0,0,0-.5.5v11a.5.5,0,0,0,.5.5H8v4.36a.3.3,0,0,0,.49.23L14,16h6.5a.5.5,0,0,0,.5-.5V4Z"/><path class="cls-2" d="M6.89,10a1.11,1.11,0,1,1,2.22,0A1.07,1.07,0,0,1,8,11.11,1.07,1.07,0,0,1,6.89,10Z"/><path class="cls-2" d="M10.89,10a1.11,1.11,0,1,1,2.22,0,1.11,1.11,0,0,1-2.22,0Z"/><path class="cls-2" d="M14.89,10a1.11,1.11,0,1,1,2.22,0,1.11,1.11,0,0,1-2.22,0Z"/></svg>