<svg xmlns="http://www.w3.org/2000/svg" viewBox="0 0 24 24"><defs><style>.cls-1{fill:none;}.cls-2{fill:#fff;}</style></defs><g data-name="Bounding area"><polyline class="cls-1" points="24 0 24 24 0 24 0 0"/></g><path class="cls-2" d="M20.52,18.6l-2.28-2.28A4,4,0,0,0,19,13.41a4,4,0,1,0-1.8,3.95l2.3,2.3a.51.51,0,0,0,.71,0l.35-.35A.51.51,0,0,0,20.52,18.6ZM12.46,14A2.54,2.54,0,1,1,15,16.54,2.54,2.54,0,0,1,12.46,14Z"/><path class="cls-2" d="M10.35,17.5,10,17.14a.52.52,0,0,0-.68,0l-.82.69V15a.5.5,0,0,0-.5-.5H5.5v-8h11V8a.5.5,0,0,0,.5.5h.5A.5.5,0,0,0,18,8V5.5a.5.5,0,0,0-.5-.5H4.5a.5.5,0,0,0-.5.5v10a.5.5,0,0,0,.5.5H7v4.36a.3.3,0,0,0,.49.23l2.83-2.35A.51.51,0,0,0,10.35,17.5Z"/></svg>