<svg id="41b6729f-9db2-44c0-a13d-d86910b50600" xmlns="http://www.w3.org/2000/svg" viewBox="0 0 24 24"><g id="5e6d1365-b066-40f3-8270-a288d20e4e67" data-name="Bounding area"><polyline id="06b1e7d2-4c2e-4f20-a008-4a819dacab33" points="24 0 24 24 0 24 0 0" fill="none"/></g><path d="M20.5,4H6.5a.5.5,0,0,0-.5.5V5a.5.5,0,0,0,.5.5h13v9a.5.5,0,0,0,.5.5h.5a.5.5,0,0,0,.5-.5V4.5A.5.5,0,0,0,20.5,4Z" fill="#fff"/><path d="M16.006,16.5h-5.19V15.42a1.632,1.632,0,0,0,1.59-1.6c0-.75-.39-1.16-1.45-1.59l-.69-.25c-.58-.22-.74-.36-.74-.67,0-.35.27-.56.73-.56a.735.735,0,0,1,.75.46.307.307,0,0,0,.28.22h.72c.17,0,.24-.11.21-.24a1.625,1.625,0,0,0-1.4-1.34V8.99h5.19ZM4.506,8.99h5.17v.86a1.529,1.529,0,0,0-1.37,1.49c0,.74.44,1.22,1.45,1.6l.66.24c.58.2.75.36.75.71,0,.38-.32.6-.88.6a.876.876,0,0,1-.92-.59.287.287,0,0,0-.28-.23h-.74c-.17,0-.23.1-.21.23a1.772,1.772,0,0,0,1.54,1.5v1.1H4.506Zm12.5-1.5H3.506a.508.508,0,0,0-.5.5V17.5a.5.5,0,0,0,.5.5h13.5a.5.5,0,0,0,.5-.5V7.99A.5.5,0,0,0,17.006,7.49Z" fill="#fff"/></svg>