<svg xmlns="http://www.w3.org/2000/svg" viewBox="0 0 24 24"><defs><style>.cls-1{fill:none;}.cls-2{fill:#fff;}</style></defs><g data-name="Bounding area"><polyline class="cls-1" points="24 0 24 24 0 24 0 0"/></g><path class="cls-2" d="M9,9.52c1.54,0,2.87.82,4.05,2.49A4.87,4.87,0,0,1,9,14.48,4.86,4.86,0,0,1,5,12,4.92,4.92,0,0,1,9,9.52M9,8H9ZM9,8c-2.4,0-4.24,1.44-5.66,3.71a.52.52,0,0,0,0,.54C4.76,14.56,6.62,16,9,16s4.27-1.42,5.67-3.71a.55.55,0,0,0,0-.54C13.26,9.46,11.42,8,9,8Zm0,8Z"/><path class="cls-2" d="M10,12a1,1,0,1,1-1-1A1,1,0,0,1,10,12Z"/><path class="cls-2" d="M16.23,11.94a4.69,4.69,0,0,1-1.36,3.26.49.49,0,0,0,0,.71l.36.36a.51.51,0,0,0,.7,0,6.21,6.21,0,0,0,1.8-4.33h0A6.2,6.2,0,0,0,16,7.68a.51.51,0,0,0-.71,0L14.93,8a.5.5,0,0,0,0,.71A4.66,4.66,0,0,1,16.23,11.94Z"/><path class="cls-2" d="M18.23,5.42a.52.52,0,0,0-.72,0l-.34.36a.49.49,0,0,0,0,.7,7.66,7.66,0,0,1-.08,10.94.5.5,0,0,0,0,.71l.34.35a.5.5,0,0,0,.71,0,9.14,9.14,0,0,0,.09-13.1Z"/></svg>