<svg id="735367da-70ab-4151-b868-e06eb9621362" xmlns="http://www.w3.org/2000/svg" viewBox="0 0 24 24"><g id="abe5c66f-9f44-4866-87aa-6caa715d1949" data-name="Bounding area"><polyline id="e25d7af3-5f79-4c9e-92e3-949e87777e3b" data-name="box" points="24 0 24 24 0 24 0 0" fill="none"/></g><path d="M17.114,9.455l-.8,8.8H7.685l-.8-8.795A.5.5,0,0,0,6.388,9h-.5a.5.5,0,0,0-.5.545l.887,9.75a.5.5,0,0,0,.5.455H17.228a.5.5,0,0,0,.5-.455l.887-9.75a.5.5,0,0,0-.5-.545h-.5A.5.5,0,0,0,17.114,9.455Z" fill="#fff"/><path d="M13.25,9.5l-.259,6a.5.5,0,0,0,.5.5h.5a.5.5,0,0,0,.5-.5l.259-6a.5.5,0,0,0-.5-.5h-.5A.5.5,0,0,0,13.25,9.5Z" fill="#fff"/><path d="M9.25,9.5l.259,6a.5.5,0,0,0,.5.5h.5a.5.5,0,0,0,.5-.5l-.259-6a.5.5,0,0,0-.5-.5h-.5A.5.5,0,0,0,9.25,9.5Z" fill="#fff"/><path d="M15,5V4.5a.5.5,0,0,0-.5-.5h-5a.5.5,0,0,0-.5.5V5H4.5a.5.5,0,0,0-.5.5V6a.5.5,0,0,0,.5.5h15A.5.5,0,0,0,20,6V5.5a.5.5,0,0,0-.5-.5Z" fill="#fff"/></svg>