<svg xmlns="http://www.w3.org/2000/svg" viewBox="0 0 24 24"><defs><style>.cls-1{fill:none;}.cls-2{fill:#fff;}</style></defs><g data-name="Bounding area"><polyline class="cls-1" points="24 0 24 24 0 24 0 0"/></g><path class="cls-2" d="M14,10.5v-3h3.08l1.89,3Zm0,4V12h5.5v2.5ZM16.53,19A1.5,1.5,0,1,1,18,17.5,1.5,1.5,0,0,1,16.53,19Zm-12-4.5v-9h8v9Zm3,4.5A1.5,1.5,0,1,1,9,17.5,1.5,1.5,0,0,1,7.48,19Zm0,1.5a3,3,0,0,0,3-3A2.75,2.75,0,0,0,10,16H14a2.81,2.81,0,0,0-.44,1.52,3,3,0,0,0,6,0A2.68,2.68,0,0,0,19.08,16H20.5a.5.5,0,0,0,.5-.5V11.17a.61.61,0,0,0-.08-.38L18.05,6.24A.5.5,0,0,0,17.63,6H14V4.5a.5.5,0,0,0-.5-.5H3.5a.5.5,0,0,0-.5.5v11a.5.5,0,0,0,.5.5H4.93a2.69,2.69,0,0,0-.45,1.5A3,3,0,0,0,7.49,20.5Z"/></svg>