<svg xmlns="http://www.w3.org/2000/svg" viewBox="0 0 24 24"><defs><style>.cls-1{fill:none;}.cls-2{fill:#fff;}</style></defs><g data-name="Bounding area"><polyline class="cls-1" points="24 0 24 24 0 24 0 0"/></g><path class="cls-2" d="M13.5,9a.5.5,0,0,0-.5.5v10a.5.5,0,0,0,.5.5h7a.5.5,0,0,0,.5-.5V9.5a.5.5,0,0,0-.5-.5ZM17,19a1,1,0,1,1,1-1A1,1,0,0,1,17,19Zm2.5-3h-5V10.5h5Z"/><path class="cls-2" d="M10.5,14.5h-5v-8h14A.5.5,0,0,0,20,6V5.5a.5.5,0,0,0-.5-.5H4.5a.5.5,0,0,0-.5.5v10a.5.5,0,0,0,.5.5h6a.5.5,0,0,0,.5-.5V15A.5.5,0,0,0,10.5,14.5Z"/><rect class="cls-2" x="7" y="18.5" width="4" height="1.5" rx="0.5" ry="0.5"/></svg>