<svg xmlns="http://www.w3.org/2000/svg" viewBox="0 0 24 24"><defs><style>.cls-1{fill:none;}.cls-2{fill:#fff;}</style></defs><g data-name="Bounding area"><polyline class="cls-1" points="24 0 24 24 0 24 0 0"/></g><rect class="cls-2" x="5.01" y="6.5" width="14" height="1.5" rx="0.5" ry="0.5"/><rect class="cls-2" x="6.92" y="3" width="10.08" height="1.5" rx="0.5" ry="0.5"/><path class="cls-2" d="M19.5,11.5v8H4.5v-8h15M3.5,10a.5.5,0,0,0-.5.5v10a.5.5,0,0,0,.5.5h17a.5.5,0,0,0,.5-.5v-10a.5.5,0,0,0-.5-.5Z"/><path id="Fill-3" class="cls-2" d="M10,13.16v4.68a.3.3,0,0,0,.43.27l4.43-2.21a.3.3,0,0,0,0-.53L10.45,12.9A.3.3,0,0,0,10,13.16Z"/></svg>