<svg xmlns="http://www.w3.org/2000/svg" viewBox="0 0 24 24"><defs><style>.cls-1{fill:none;}.cls-2{fill:#fff;}</style></defs><g data-name="Bounding area"><polyline class="cls-1" points="24 0 24 24 0 24 0 0"/></g><rect class="cls-2" x="6.25" y="14.29" width="1.5" height="1.5" rx="0.5" ry="0.5"/><rect class="cls-2" x="6.25" y="11.29" width="1.5" height="1.5" rx="0.5" ry="0.5"/><rect class="cls-2" x="6.25" y="8.29" width="1.5" height="1.5" rx="0.5" ry="0.5"/><rect class="cls-2" x="16.25" y="14.29" width="1.5" height="1.5" rx="0.5" ry="0.5"/><rect class="cls-2" x="16.25" y="11.29" width="1.5" height="1.5" rx="0.5" ry="0.5"/><rect class="cls-2" x="16.25" y="8.29" width="1.5" height="1.5" rx="0.5" ry="0.5"/><path class="cls-2" d="M19.5,6.5v11H4.5V6.5h15M3.5,5a.5.5,0,0,0-.5.5v13a.5.5,0,0,0,.5.5h17a.5.5,0,0,0,.5-.5V5.5a.5.5,0,0,0-.5-.5Z"/></svg>