<svg id="export" xmlns="http://www.w3.org/2000/svg" viewBox="0 0 24 24"><defs><style>.cls-1{fill:none;}.cls-2{fill:#fff;}</style></defs><g id="Bounding_area"><polyline id="box" class="cls-1" points="24 0 24 24 0 24 0 0"/></g><rect class="cls-2" x="13" y="14.25" width="7" height="1.5" rx="0.5" ry="0.5"/><path class="cls-2" d="M19.5,7.25h-3V5.5A.5.5,0,0,0,16,5h-.5a.5.5,0,0,0-.5.5v5a.5.5,0,0,0,.5.5H16a.5.5,0,0,0,.5-.5V8.75h3a.5.5,0,0,0,.5-.5v-.5A.5.5,0,0,0,19.5,7.25Z"/><path class="cls-2" d="M9.5,12H9a.5.5,0,0,0-.5.5v1.75h-4a.5.5,0,0,0-.5.5v.5a.5.5,0,0,0,.5.5h4V17.5A.5.5,0,0,0,9,18h.5a.5.5,0,0,0,.5-.5v-5A.5.5,0,0,0,9.5,12Z"/><rect class="cls-2" x="4" y="7.25" width="8" height="1.5" rx="0.5" ry="0.5"/></svg>