<svg xmlns="http://www.w3.org/2000/svg" viewBox="0 0 24 24"><defs><style>.cls-1{fill:none;}.cls-2{fill:#fff;}</style></defs><g data-name="Bounding area"><polyline class="cls-1" points="24 0 24 24 0 24 0 0"/></g><path class="cls-2" d="M17,15.13C17,17.52,15.31,19,12.63,19H7.5a.5.5,0,0,1-.5-.5V5.5A.5.5,0,0,1,7.5,5h4.65c2.66,0,4.26,1.37,4.26,3.66a3.51,3.51,0,0,1-1.33,3A3.51,3.51,0,0,1,17,15.13ZM10,7.56v3h1.8c1.11,0,1.75-.45,1.75-1.47s-.58-1.48-1.71-1.48Zm2.12,8.88c1.27,0,2-.56,2-1.73s-.75-1.65-2-1.65H10v3.38Z"/></svg>