<svg xmlns="http://www.w3.org/2000/svg" viewBox="0 0 24 24"><defs><style>.cls-1{fill:none;}.cls-2{fill:#fff;}</style></defs><g data-name="Bounding area"><polyline class="cls-1" points="24 0 24 24 0 24 0 0"/></g><path class="cls-2" d="M7,11.43V5.5a.5.5,0,0,1,.5-.5H8a.5.5,0,0,1,.5.5v6.27A3.37,3.37,0,0,0,12,15.15a3.34,3.34,0,0,0,3.51-3.38V5.5A.5.5,0,0,1,16,5h.49a.5.5,0,0,1,.5.5v5.93c0,3.22-1.95,5.07-5,5.07S7,14.65,7,11.43Z"/><rect class="cls-2" x="7" y="18.47" width="10" height="1.5" rx="0.5" ry="0.5"/></svg>