<svg xmlns="http://www.w3.org/2000/svg" viewBox="0 0 24 24"><defs><style>.cls-1{fill:none;}.cls-2{fill:#fff;}</style></defs><g data-name="Bounding area"><polyline class="cls-1" points="24 0 24 24 0 24 0 0"/></g><path class="cls-2" d="M7.5,5a3.49,3.49,0,0,0-.15,7L4.93,18.25a.5.5,0,0,0,.43.75H6.71a.52.52,0,0,0,.44-.25l3.61-9A3.34,3.34,0,0,0,11,8.5,3.5,3.5,0,0,0,7.5,5Z"/><path class="cls-2" d="M16.5,5a3.49,3.49,0,0,0-.15,7l-2.42,6.27a.5.5,0,0,0,.43.75h1.35a.52.52,0,0,0,.44-.25l3.61-9A3.34,3.34,0,0,0,20,8.5,3.5,3.5,0,0,0,16.5,5Z"/></svg>