<svg id="f098017f-c63d-4878-9c2c-bb4cfb417a22" xmlns="http://www.w3.org/2000/svg" viewBox="0 0 24 24"><g id="0c8873d8-0b9f-46f0-b472-bf2ac02dc44f" data-name="Bounding area"><polyline id="1b9cf734-e2f8-430f-b64e-bfdb71722448" points="24 0 24 24 0 24 0 0" fill="none"/></g><path d="M10.372,7.472H15V5.2a.5.5,0,0,1,.853-.354L18.886,7.87a.5.5,0,0,1,0,.706l-3.032,3.052A.5.5,0,0,1,15,11.276v-2.3H10.372A3.6,3.6,0,0,0,6.71,12.334a3.323,3.323,0,0,0,.939,2.473,3.686,3.686,0,0,0,1.926,1.015.51.51,0,0,1,.425.493v.532a.509.509,0,0,1-.587.5,5,5,0,0,1-2.841-1.493A4.852,4.852,0,0,1,5.21,12.289,5.11,5.11,0,0,1,10.372,7.472Z" fill="#fff"/><path d="M15.6,16.7V15.467A1.506,1.506,0,0,1,17.23,13.9a1.505,1.505,0,0,1,1.621,1.571V16.7A1.5,1.5,0,0,1,17.23,18.27,1.506,1.506,0,0,1,15.6,16.7Zm2.051-.024V15.492c0-.35-.143-.532-.425-.532s-.431.188-.431.532v1.183c0,.344.143.531.431.531S17.655,17.024,17.655,16.675Z" fill="#fff"/><path d="M14.019,16.732c.72-.46,1.1-.78,1.1-1.48a1.323,1.323,0,0,0-1.5-1.36,1.449,1.449,0,0,0-1.59,1.28.268.268,0,0,0,.3.32h.6a.3.3,0,0,0,.3-.24.315.315,0,0,1,.33-.24.327.327,0,0,1,.35.37c0,.24-.13.33-.75.73a2.016,2.016,0,0,0-1.15,1.64v.14a.278.278,0,0,0,.3.3h2.54a.278.278,0,0,0,.3-.3v-.42a.278.278,0,0,0-.3-.3h-1.46A5.41,5.41,0,0,1,14.019,16.732Z" fill="#fff"/></svg>