<svg xmlns="http://www.w3.org/2000/svg" viewBox="0 0 24 24"><defs><style>.cls-1{fill:none;}.cls-2{fill:#fff;}</style></defs><g data-name="Bounding area"><polyline class="cls-1" points="24 0 24 24 0 24 0 0"/></g><path class="cls-2" d="M4.5,9.5v-3h5A.5.5,0,0,0,10,6V5.5A.5.5,0,0,0,9.5,5h-6a.5.5,0,0,0-.5.5v4a.5.5,0,0,0,.5.5H4A.5.5,0,0,0,4.5,9.5Z"/><path class="cls-2" d="M14.5,6.5h5v3a.5.5,0,0,0,.5.5h.5a.5.5,0,0,0,.5-.5v-4a.5.5,0,0,0-.5-.5h-6a.5.5,0,0,0-.5.5V6A.5.5,0,0,0,14.5,6.5Z"/><path class="cls-2" d="M19.5,13.5v3h-5a.5.5,0,0,0-.5.5v.5a.5.5,0,0,0,.5.5h6a.5.5,0,0,0,.5-.5v-4a.5.5,0,0,0-.5-.5H20A.5.5,0,0,0,19.5,13.5Z"/><path class="cls-2" d="M9.5,16.5h-5v-3A.5.5,0,0,0,4,13H3.5a.5.5,0,0,0-.5.5v4a.5.5,0,0,0,.5.5h6a.5.5,0,0,0,.5-.5V17A.5.5,0,0,0,9.5,16.5Z"/></svg>