<svg xmlns="http://www.w3.org/2000/svg" viewBox="0 0 24 24"><defs><style>.cls-1{fill:none;}.cls-2{fill:#fff;}</style></defs><g data-name="Bounding area"><polyline class="cls-1" points="24 0 24 24 0 24 0 0"/></g><path class="cls-2" d="M6.89,12a1.11,1.11,0,1,1,2.22,0A1.07,1.07,0,0,1,8,13.11,1.07,1.07,0,0,1,6.89,12Z"/><path class="cls-2" d="M10.89,12a1.11,1.11,0,1,1,2.22,0,1.11,1.11,0,0,1-2.22,0Z"/><path class="cls-2" d="M14.89,12a1.11,1.11,0,1,1,2.22,0,1.11,1.11,0,0,1-2.22,0Z"/><path class="cls-2" d="M19.5,6.5v11H4.5V6.5h15M3.5,5a.5.5,0,0,0-.5.5v13a.5.5,0,0,0,.5.5h17a.5.5,0,0,0,.5-.5V5.5a.5.5,0,0,0-.5-.5Z"/></svg>