<svg id="export" xmlns="http://www.w3.org/2000/svg" xmlns:xlink="http://www.w3.org/1999/xlink" viewBox="0 0 67 24"><defs><style>.cls-1{fill:#fff;}.cls-2{fill:#a6a5a5;}.cls-3{fill:none;}.cls-4{fill:#5bc8f3;}.cls-5{fill:url(#linear-gradient);}.Graphic-Style-3{fill:url(#linear-gradient-2);}.cls-6{fill:url(#linear-gradient-3);}</style><linearGradient id="linear-gradient" x1="16.996" y1="12.135" x2="6.117" y2="12.135" gradientUnits="userSpaceOnUse"><stop offset="0" stop-color="#ffdf00"/><stop offset="0.409" stop-color="#fbbc0e"/><stop offset="0.775" stop-color="#f9a418"/><stop offset="1" stop-color="#f89b1c"/></linearGradient><linearGradient id="linear-gradient-2" x1="14.173" y1="13.167" x2="3.94" y2="23.399" gradientUnits="userSpaceOnUse"><stop offset="0" stop-color="#ee4447"/><stop offset="1" stop-color="#c5166c"/></linearGradient><linearGradient id="linear-gradient-3" x1="3.894" y1="0.825" x2="12.249" y2="9.179" gradientUnits="userSpaceOnUse"><stop offset="0" stop-color="#269e6f"/><stop offset="0.051" stop-color="#2ba06f"/><stop offset="0.466" stop-color="#53b26b"/><stop offset="0.797" stop-color="#6bbd69"/><stop offset="1" stop-color="#74c168"/></linearGradient></defs><rect class="cls-1" x="3.156" y="3.15" width="60.7" height="17.7" rx="1.85" ry="1.85"/><path class="cls-2" d="M62.006,3.3a1.7,1.7,0,0,1,1.7,1.7V19a1.7,1.7,0,0,1-1.7,1.7h-57a1.7,1.7,0,0,1-1.7-1.7V5a1.7,1.7,0,0,1,1.7-1.7h57m0-.3h-57a2,2,0,0,0-2,2V19a2,2,0,0,0,2,2h57a2,2,0,0,0,2-2V5a2,2,0,0,0-2-2Z"/><g id="Bounding_area" data-name="Bounding area"><polyline id="box" class="cls-3" points="24 0 24 24 0 24 0 0"/></g><path d="M23.017,9.158a1.421,1.421,0,0,0,1.071-.433,1.331,1.331,0,0,0,.369-.981,1.269,1.269,0,0,0-.021-.223l-.017-.093H22.9v.55h.964a.68.68,0,0,1-.177.354.963.963,0,0,1-1.334,0,.919.919,0,0,1-.276-.7.93.93,0,0,1,.936-.966.8.8,0,0,1,.653.28l.078.094.4-.4-.066-.079a1.237,1.237,0,0,0-.464-.333,1.509,1.509,0,0,0-.6-.122A1.5,1.5,0,0,0,21.5,7.635a1.5,1.5,0,0,0,1.516,1.523Z"/><polygon points="26.531 8.541 25.301 8.541 25.301 7.909 26.41 7.909 26.41 7.36 25.301 7.36 25.301 6.729 26.531 6.729 26.531 6.172 24.729 6.172 24.729 9.098 26.531 9.098 26.531 8.541"/><polygon points="27.994 9.098 27.994 6.729 28.748 6.729 28.748 6.172 26.667 6.172 26.667 6.729 27.421 6.729 27.421 9.098 27.994 9.098"/><rect x="29.865" y="6.172" width="0.572" height="2.926"/><polygon points="31.976 9.098 31.976 6.729 32.73 6.729 32.73 6.172 30.65 6.172 30.65 6.729 31.403 6.729 31.403 9.098 31.976 9.098"/><path d="M35.139,9.158a1.442,1.442,0,0,0,1.071-.444,1.565,1.565,0,0,0,0-2.157,1.509,1.509,0,0,0-2.138,0,1.571,1.571,0,0,0,0,2.159A1.44,1.44,0,0,0,35.139,9.158Zm-.921-1.523a.941.941,0,0,1,.268-.7.926.926,0,0,1,1.307,0,1.038,1.038,0,0,1,0,1.392.926.926,0,0,1-1.307,0A.944.944,0,0,1,34.218,7.635Z"/><polygon points="37.472 7.3 37.469 7.17 38.671 9.098 39.208 9.098 39.208 6.172 38.637 6.172 38.637 7.868 38.64 7.998 37.499 6.172 36.902 6.172 36.902 9.098 37.472 9.098 37.472 7.3"/><path d="M24.49,13.51v.812h1.943a1.693,1.693,0,0,1-.442,1.022,1.989,1.989,0,0,1-1.5.6,2.161,2.161,0,0,1,0-4.321,2.072,2.072,0,0,1,1.465.58l.572-.573a2.829,2.829,0,0,0-2.037-.819,2.973,2.973,0,1,0,0,5.945,2.717,2.717,0,0,0,2.074-.834,2.685,2.685,0,0,0,.7-1.9,2.648,2.648,0,0,0-.044-.508Z"/><path d="M48.818,11.009H46.806v5.626h.839V14.5h1.173a1.75,1.75,0,1,0,0-3.494Zm.021,2.711H47.645V11.792h1.194a.964.964,0,1,1,0,1.928Z"/><path d="M44.878,14.141a1.778,1.778,0,0,0-1.638-1.218,1.819,1.819,0,0,0-1.8,1.914,1.873,1.873,0,0,0,1.9,1.914,1.9,1.9,0,0,0,1.595-.849l-.652-.435a1.1,1.1,0,0,1-.943.53.974.974,0,0,1-.928-.58l2.559-1.059Zm-2.609.638a1.049,1.049,0,0,1,1-1.117.741.741,0,0,1,.71.406Z"/><path d="M54.028,12.913a1.576,1.576,0,0,0-1.5.861l.746.311a.8.8,0,0,1,.767-.413.809.809,0,0,1,.883.724v.058a1.857,1.857,0,0,0-.876-.217c-.8,0-1.621.441-1.621,1.267a1.3,1.3,0,0,0,1.4,1.237,1.185,1.185,0,0,0,1.071-.55h.029v.434h.81V14.469A1.543,1.543,0,0,0,54.028,12.913ZM53.927,16c-.275,0-.659-.138-.659-.478,0-.434.478-.6.891-.6a1.5,1.5,0,0,1,.767.188A1.019,1.019,0,0,1,53.927,16Z"/><rect x="51.126" y="11.009" width="0.84" height="5.625"/><path d="M29.476,12.923A1.914,1.914,0,1,0,31.4,14.837,1.887,1.887,0,0,0,29.476,12.923Zm0,3.074a1.163,1.163,0,1,1,1.08-1.16A1.108,1.108,0,0,1,29.476,16Z"/><polygon points="58.689 13.036 57.726 15.475 57.698 15.475 56.699 13.036 55.794 13.036 57.292 16.444 56.438 18.34 57.314 18.34 59.623 13.036 58.689 13.036"/><path d="M33.667,12.923a1.914,1.914,0,1,0,1.921,1.914A1.887,1.887,0,0,0,33.667,12.923Zm0,3.074a1.163,1.163,0,1,1,1.08-1.16A1.108,1.108,0,0,1,33.667,16Z"/><rect x="40.188" y="11.009" width="0.841" height="5.626"/><path d="M38.811,13.351h-.029a1.327,1.327,0,0,0-1.008-.428,1.916,1.916,0,0,0,0,3.828,1.306,1.306,0,0,0,1.008-.435h.029v.275a.981.981,0,0,1-1.023,1.124,1.06,1.06,0,0,1-.964-.682l-.732.3a1.824,1.824,0,0,0,1.7,1.131,1.75,1.75,0,0,0,1.82-1.994V13.039h-.8ZM37.846,16a1.164,1.164,0,0,1,0-2.32,1.079,1.079,0,0,1,1.023,1.167A1.07,1.07,0,0,1,37.846,16Z"/><path class="cls-4" d="M7.7,6.531a.9.9,0,0,0-.208.632v9.944a.9.9,0,0,0,.208.631l.033.033,5.57-5.571v-.131L7.735,6.5Z"/><path class="cls-5" d="M15.162,14.058,13.305,12.2v-.131l1.857-1.857.042.024,2.2,1.25a.682.682,0,0,1,0,1.3l-2.2,1.25Z"/><path class="Graphic-Style-3" d="M15.2,14.034l-1.9-1.9-5.6,5.6a.731.731,0,0,0,.934.028L15.2,14.034"/><path class="cls-6" d="M15.2,10.236,8.636,6.5a.731.731,0,0,0-.934.027l5.6,5.6Z"/></svg>