<svg xmlns="http://www.w3.org/2000/svg" viewBox="0 0 24 24"><defs><style>.cls-1{fill:none;}.cls-2{fill:#fff;}</style></defs><g data-name="Bounding area"><polyline class="cls-1" points="24 0 24 24 0 24 0 0"/></g><path class="cls-2" d="M12.75,12.1V9.5a.5.5,0,0,0-.5-.5h-.5a.5.5,0,0,0-.5.5v3a.46.46,0,0,0,.13.33l1.88,2.13a.5.5,0,0,0,.7,0l.38-.33a.51.51,0,0,0,0-.71Z"/><path class="cls-2" d="M19.75,12.14v.11a7.31,7.31,0,0,1-6.16,7.27H13.5A.5.5,0,0,1,13,19v-.51a.5.5,0,0,1,.43-.49,5.88,5.88,0,0,0,4.82-5.78v-.07a5.78,5.78,0,0,0-3.86-5.47A5.91,5.91,0,0,0,7.9,8.45a6.16,6.16,0,0,0-1.4,4v1.86H8.81A.4.4,0,0,1,9.1,15l-3,3a.4.4,0,0,1-.56,0l-3-3a.4.4,0,0,1,.29-.68H5V12.25a7.37,7.37,0,0,1,7.47-7.37A7.47,7.47,0,0,1,19.75,12.14Z"/></svg>