<svg xmlns="http://www.w3.org/2000/svg" viewBox="0 0 24 24"><defs><style>.cls-1{fill:none;}.cls-2{fill:#fff;}</style></defs><g data-name="Bounding area"><polyline class="cls-1" points="24 0 24 24 0 24 0 0"/></g><path class="cls-2" d="M17,6.44V4.5a.5.5,0,0,0-.5-.5h-9a.5.5,0,0,0-.5.5V6.44c0,3,1.78,4.66,3.67,6C8.77,13.77,7,15.26,7,17.94V19.5a.5.5,0,0,0,.5.5h9a.5.5,0,0,0,.5-.5V17.94c0-2.68-1.77-4.17-3.67-5.49C15.22,11.1,17,9.41,17,6.44ZM8.5,5.5h7v.94a4.82,4.82,0,0,1-.35,1.81H8.86A4.63,4.63,0,0,1,8.5,6.44Zm7,12.44v.55h-7v-.55c0-2.13,1.6-3.29,3.5-4.58C13.9,14.65,15.5,15.81,15.5,17.94Z"/></svg>