<svg xmlns="http://www.w3.org/2000/svg" viewBox="0 0 24 24"><defs><style>.cls-1{fill:none;}.cls-2{fill:#fff;}</style></defs><g data-name="Bounding area"><polyline class="cls-1" points="24 0 24 24 0 24 0 0"/></g><path class="cls-2" d="M17,6.06V4.5a.5.5,0,0,0-.5-.5h-9a.5.5,0,0,0-.5.5V6.06c0,2.68,1.77,4.17,3.67,5.49-1.89,1.35-3.67,3-3.67,6V19.5a.5.5,0,0,0,.5.5h9a.5.5,0,0,0,.5-.5V17.56c0-3-1.78-4.66-3.67-6C15.23,10.23,17,8.74,17,6.06ZM15.36,16.5H8.65c.39-1.82,1.77-3,3.35-4.05C13.58,13.54,15,14.68,15.36,16.5ZM12,10.64C10.1,9.35,8.5,8.19,8.5,6.06V5.51h7v.55C15.5,8.19,13.9,9.35,12,10.64Z"/></svg>