<svg xmlns="http://www.w3.org/2000/svg" viewBox="0 0 24 24"><defs><style>.cls-1{fill:none;}.cls-2{fill:#fff;}</style></defs><g data-name="Bounding area"><polyline class="cls-1" points="24 0 24 24 0 24 0 0"/></g><path class="cls-2" d="M16,9V17.5H4.5V9H16M3.5,7.49A.5.5,0,0,0,3,8V18.5a.5.5,0,0,0,.5.5H17a.5.5,0,0,0,.5-.5V8a.5.5,0,0,0-.5-.5Z"/><path class="cls-2" d="M6,4.5V5a.5.5,0,0,0,.5.5h13v10a.5.5,0,0,0,.5.5h.5a.5.5,0,0,0,.5-.5V4.5a.5.5,0,0,0-.5-.5H6.5A.5.5,0,0,0,6,4.5Z"/><path class="cls-2" d="M11.81,12.24l-2.3,3.31L8,13.3a.21.21,0,0,0-.33,0L6,15.69a.2.2,0,0,0,.16.31h8.24a.2.2,0,0,0,.16-.31l-2.39-3.45A.2.2,0,0,0,11.81,12.24Z"/><path class="cls-2" d="M9,12a1,1,0,1,0-1-1A1,1,0,0,0,9,12Z"/></svg>