<svg xmlns="http://www.w3.org/2000/svg" viewBox="0 0 24 24"><defs><style>.cls-1{fill:none;}.cls-2{fill:#fff;}</style></defs><g data-name="Bounding area"><polyline class="cls-1" points="24 0 24 24 0 24 0 0"/></g><path class="cls-2" d="M19.5,6.5v11H4.5V6.5h15M3.5,5a.5.5,0,0,0-.5.5v13a.5.5,0,0,0,.5.5h17a.5.5,0,0,0,.5-.5V5.5a.5.5,0,0,0-.5-.5Z"/><path class="cls-2" d="M13.82,11.11,11.14,15,9.32,12.35a.24.24,0,0,0-.39,0L7,15.13a.23.23,0,0,0,.19.37h9.6a.23.23,0,0,0,.19-.37l-2.78-4A.24.24,0,0,0,13.82,11.11Z"/><path class="cls-2" d="M10.83,10.83A1.17,1.17,0,1,0,9.67,9.67,1.16,1.16,0,0,0,10.83,10.83Z"/></svg>