<svg xmlns="http://www.w3.org/2000/svg" viewBox="0 0 24 24"><defs><style>.cls-1{fill:none;}.cls-2{fill:#fff;}</style></defs><g data-name="Bounding area"><polyline class="cls-1" points="24 0 24 24 0 24 0 0"/></g><circle class="cls-2" cx="12.25" cy="8.56" r="1"/><path class="cls-2" d="M9.25,11.5V12a.5.5,0,0,0,.5.5h2v4a.5.5,0,0,0,.5.5h.5a.5.5,0,0,0,.5-.5v-5a.5.5,0,0,0-.5-.5h-3A.5.5,0,0,0,9.25,11.5Z"/><path class="cls-2" d="M12,5a7,7,0,1,1-7,7,7,7,0,0,1,7-7m0-1.5A8.5,8.5,0,1,0,20.5,12,8.51,8.51,0,0,0,12,3.5Z"/></svg>