<svg id="export" xmlns="http://www.w3.org/2000/svg" viewBox="0 0 24 24"><defs><style>.cls-1{fill:none;}.cls-2{fill:#fff;}</style></defs><g id="Bounding_area"><polyline  class="cls-1" points="24 0 24 24 0 24 0 0"/></g><path class="cls-2" d="M12,5.85c2,0,2.24,0,3,.05a4.15,4.15,0,0,1,1.39.25,2.44,2.44,0,0,1,1.43,1.43A4.15,4.15,0,0,1,18.1,9c0,.79,0,1,0,3s0,2.24,0,3a4.15,4.15,0,0,1-.25,1.39,2.44,2.44,0,0,1-1.43,1.43A4.15,4.15,0,0,1,15,18.1c-.79,0-1,0-3,0s-2.24,0-3,0a4.15,4.15,0,0,1-1.39-.25,2.44,2.44,0,0,1-1.43-1.43A4.15,4.15,0,0,1,5.9,15c0-.79-.05-1-.05-3s0-2.24.05-3a4.15,4.15,0,0,1,.25-1.39A2.44,2.44,0,0,1,7.58,6.15,4.15,4.15,0,0,1,9,5.9c.79,0,1-.05,3-.05M12,4.5c-2,0-2.29,0-3.09,0a5.45,5.45,0,0,0-1.82.34,3.88,3.88,0,0,0-2.2,2.2,5.45,5.45,0,0,0-.34,1.82c0,.8,0,1.05,0,3.09s0,2.29,0,3.09a5.45,5.45,0,0,0,.34,1.82,3.88,3.88,0,0,0,2.2,2.2,5.45,5.45,0,0,0,1.82.34c.8,0,1.05.05,3.09.05s2.29,0,3.09-.05a5.45,5.45,0,0,0,1.82-.34,3.88,3.88,0,0,0,2.2-2.2,5.45,5.45,0,0,0,.34-1.82c0-.8.05-1.05.05-3.09s0-2.29-.05-3.09a5.45,5.45,0,0,0-.34-1.82,3.88,3.88,0,0,0-2.2-2.2,5.45,5.45,0,0,0-1.82-.34c-.8,0-1.05,0-3.09,0Z"/><path class="cls-2" d="M12,8.15A3.85,3.85,0,1,0,15.85,12,3.85,3.85,0,0,0,12,8.15Zm0,6.35A2.5,2.5,0,1,1,14.5,12,2.5,2.5,0,0,1,12,14.5Z"/><circle class="cls-2" cx="16" cy="8" r="0.9"/></svg>