<svg xmlns="http://www.w3.org/2000/svg" viewBox="0 0 24 24"><defs><style>.cls-1{fill:none;}.cls-2{fill:#fff;}</style></defs><g data-name="Bounding area"><polyline class="cls-1" points="24 0 24 24 0 24 0 0"/></g><path class="cls-2" d="M8.48,8.5v8A.5.5,0,0,0,9,17h5.91l3.6,3.51a.3.3,0,0,0,.51-.22V17h1.5a.5.5,0,0,0,.5-.5v-8a.5.5,0,0,0-.5-.5H9A.5.5,0,0,0,8.48,8.5Zm11,7H18a.5.5,0,0,0-.5.5v1.5l-1.86-1.85a.47.47,0,0,0-.35-.15H10v-6H19.5Z"/><path class="cls-2" d="M15.5,3H3.5a.5.5,0,0,0-.5.5v8a.5.5,0,0,0,.5.5H5v3.11a.31.31,0,0,0,.3.31.33.33,0,0,0,.26-.14l.83-1A.51.51,0,0,0,6.5,14V11a.5.5,0,0,0-.5-.5H4.5v-6h10v1A.5.5,0,0,0,15,6h.5a.5.5,0,0,0,.5-.5v-2A.5.5,0,0,0,15.5,3Z"/></svg>