<svg xmlns="http://www.w3.org/2000/svg" viewBox="0 0 24 24"><defs><style>.cls-1{fill:none;}.cls-2{fill:#fff;}</style></defs><g data-name="Bounding area"><polyline class="cls-1" points="24 0 24 24 0 24 0 0"/></g><path class="cls-2" d="M18.5,20a.5.5,0,0,0,.5-.5V8.57a.47.47,0,0,0-.15-.35L14.77,4.15A.49.49,0,0,0,14.41,4H6.5a.5.5,0,0,0-.5.5v15a.5.5,0,0,0,.5.5Zm-1-1.5H7.5V5.5H14v3a.5.5,0,0,0,.5.5h3Z"/><rect class="cls-2" x="9" y="15.5" width="4" height="1.5" rx="0.5" ry="0.5"/><rect class="cls-2" x="9" y="12" width="6" height="1.5" rx="0.5" ry="0.5"/></svg>