<svg xmlns="http://www.w3.org/2000/svg" viewBox="0 0 24 24"><defs><style>.cls-1{fill:none;}.cls-2{fill:#fff;}</style></defs><g data-name="Bounding area"><polyline class="cls-1" points="24 0 24 24 0 24 0 0"/></g><path class="cls-2" d="M12,3.5A8.5,8.5,0,1,0,20.5,12,8.51,8.51,0,0,0,12,3.5ZM18.31,9H15.4a13.11,13.11,0,0,0-1.51-3.73A7,7,0,0,1,18.31,9Zm-4.06,3a12.32,12.32,0,0,1-.1,1.5H9.85a10.28,10.28,0,0,1,0-3h4.29A10.59,10.59,0,0,1,14.25,12Zm-4.11,3h3.71A11.64,11.64,0,0,1,12,18.91,11.66,11.66,0,0,1,10.14,15Zm0-6A11.76,11.76,0,0,1,12,5.09,11.93,11.93,0,0,1,13.85,9Zm0-3.73A13.4,13.4,0,0,0,8.59,9H5.68A7,7,0,0,1,10.1,5.27ZM5,12a6.69,6.69,0,0,1,.17-1.5H8.34a12.32,12.32,0,0,0-.1,1.5,12.32,12.32,0,0,0,.1,1.5H5.17A6.69,6.69,0,0,1,5,12Zm.68,3H8.59a13.23,13.23,0,0,0,1.51,3.73A7,7,0,0,1,5.68,15Zm8.22,3.73A13.2,13.2,0,0,0,15.4,15h2.91A7,7,0,0,1,13.9,18.73Zm1.76-5.23a14.74,14.74,0,0,0,.09-1.5,12.32,12.32,0,0,0-.1-1.5h3.18a6.7,6.7,0,0,1,0,3Z"/></svg>