<svg xmlns="http://www.w3.org/2000/svg" viewBox="0 0 24 24"><defs><style>.cls-1{fill:none;}.cls-2{fill:#fff;}</style></defs><g data-name="Bounding area"><polyline class="cls-1" points="24 0 24 24 0 24 0 0"/></g><rect class="cls-2" x="7.04" y="17.18" width="2" height="1.5" rx="0.5" ry="0.5" transform="translate(-10.32 10.93) rotate(-45)"/><rect class="cls-2" x="5.03" y="15.17" width="2" height="1.5" rx="0.5" ry="0.5" transform="translate(-9.49 8.93) rotate(-45)"/><path class="cls-2" d="M13.71,10.29A1,1,0,0,0,13,10h0a1,1,0,1,0,0,2h0a1,1,0,0,0,1-1A1,1,0,0,0,13.71,10.29Z"/><path class="cls-2" d="M19,5.5A.5.5,0,0,0,18.47,5c-.26,0-.51,0-.93,0A10.91,10.91,0,0,0,9.9,8.12a12.11,12.11,0,0,0-1.66,2l-2.54.59a.4.4,0,0,0-.19.67l7.07,7.07a.4.4,0,0,0,.67-.19l.59-2.52a12.69,12.69,0,0,0,2.06-1.67A11,11,0,0,0,19,6.35C19,6,19,5.5,19,5.5Zm-4.12,7.55a10.34,10.34,0,0,1-3.28,2.25L8.7,12.44A10.58,10.58,0,0,1,11,9.18,9.43,9.43,0,0,1,17.5,6.5,9.46,9.46,0,0,1,14.84,13.05Z"/></svg>