<svg xmlns="http://www.w3.org/2000/svg" viewBox="0 0 24 24"><defs><style>.cls-1{fill:none;}.cls-2{fill:#fff;}</style></defs><g data-name="Bounding area"><polyline class="cls-1" points="24 0 24 24 0 24 0 0"/></g><rect class="cls-2" x="3" y="11.25" width="5" height="1.5" rx="0.5" ry="0.5"/><rect class="cls-2" x="16" y="11.25" width="5" height="1.5" rx="0.5" ry="0.5"/><rect class="cls-2" x="11.25" y="3" width="1.5" height="5" rx="0.5" ry="0.5"/><rect class="cls-2" x="11.25" y="16" width="1.5" height="5" rx="0.5" ry="0.5"/><rect class="cls-2" x="4.9" y="15.85" width="5" height="1.5" rx="0.5" ry="0.5" transform="translate(-9.57 10.1) rotate(-45)"/><rect class="cls-2" x="14.1" y="6.65" width="5" height="1.5" rx="0.5" ry="0.5" transform="translate(-0.37 13.9) rotate(-45)"/><rect class="cls-2" x="6.65" y="4.9" width="1.5" height="5" rx="0.5" ry="0.5" transform="translate(-3.07 7.4) rotate(-45)"/><rect class="cls-2" x="15.85" y="14.1" width="1.5" height="5" rx="0.5" ry="0.5" transform="translate(-6.87 16.6) rotate(-45)"/></svg>