<svg xmlns="http://www.w3.org/2000/svg" viewBox="0 0 24 24"><defs><style>.cls-1{fill:none;}.cls-2{fill:#fff;}</style></defs><g data-name="Bounding area"><polyline class="cls-1" points="24 0 24 24 0 24 0 0"/></g><path class="cls-2" d="M18.5,9H16V7.17A4.12,4.12,0,0,0,12.39,3,4,4,0,0,0,8,6.4a.52.52,0,0,0,.5.6H9a.49.49,0,0,0,.49-.4,2.5,2.5,0,0,1,2.73-2.09A2.61,2.61,0,0,1,14.5,7.15V9h-9a.5.5,0,0,0-.5.5v10a.5.5,0,0,0,.5.5h13a.5.5,0,0,0,.5-.5V9.5A.5.5,0,0,0,18.5,9Zm-1,9.5h-11v-8h11Z"/><path class="cls-2" d="M11.25,14.8v1.69a.5.5,0,0,0,.5.5h.5a.5.5,0,0,0,.5-.5V14.8a1.5,1.5,0,1,0-2.25-1.29A1.49,1.49,0,0,0,11.25,14.8Z"/></svg>