<svg id="3f11fb2c-c79d-4f41-bc1c-8128a29ed7b7" xmlns="http://www.w3.org/2000/svg" viewBox="0 0 18 17.973"><g id="e269d51f-ce4c-4365-98df-ce6903600fc4" data-name="Bounding area"><polyline id="7d8e0db7-f689-49ee-a750-b45f74a19140" data-name="box" points="24 0 24 24 0 24 0 0" fill="none"/></g><path d="M12.005,3a2.931,2.931,0,0,0-3,2.852c0,1.52.579,2.575,2.7,5.751a.309.309,0,0,0,.508,0c2.206-3.266,2.794-4.251,2.794-5.751A2.932,2.932,0,0,0,12.005,3ZM12,7a1,1,0,1,1,1-1A1,1,0,0,1,12,7Z" transform="translate(-3 -3)" fill="#fff"/><path d="M9,15a1,1,0,1,1-1-1A1,1,0,0,1,9,15Z" transform="translate(-3 -3)" fill="#fff"/><path d="M13,14a1,1,0,1,1-1-1A1,1,0,0,1,13,14Z" transform="translate(-3 -3)" fill="#fff"/><path d="M17,13a1,1,0,1,1-1-1A1,1,0,0,1,17,13Z" transform="translate(-3 -3)" fill="#fff"/><path d="M17,7.249v.545a.5.5,0,0,0,.342.474l2.158.719v9.932l-4.342-1.447a.489.489,0,0,0-.316,0L9,19.419l-4.5-1.5V8.081l2.268.808c.511.181.763-.034.763-.425V7.933a.5.5,0,0,0-.342-.474L3.658,6.219A.5.5,0,0,0,3,6.694V18.64a.5.5,0,0,0,.342.474l5.5,1.833a.489.489,0,0,0,.316,0L15,19l5.342,1.781A.5.5,0,0,0,21,20.306V8.267a.5.5,0,0,0-.342-.475l-2.932-.98C17.345,6.689,17,6.859,17,7.249Z" transform="translate(-3 -3)" fill="#fff"/></svg>