<svg xmlns="http://www.w3.org/2000/svg" viewBox="0 0 24 24"><defs><style>.cls-1{fill:none;}.cls-2{fill:#fff;}</style></defs><g data-name="Bounding area"><polyline class="cls-1" points="24 0 24 24 0 24 0 0"/></g><path class="cls-2" d="M12,3A2.93,2.93,0,0,0,9,5.85c0,1.52.58,2.58,2.69,5.75a.31.31,0,0,0,.51,0C14.42,8.34,15,7.35,15,5.85A2.93,2.93,0,0,0,12,3Zm0,4a1,1,0,1,1,1-1A1,1,0,0,1,12,7Z"/><path class="cls-2" d="M21,17.34l-2.63-8A.5.5,0,0,0,17.88,9H16.2a.5.5,0,0,0-.5.5V10a.5.5,0,0,0,.5.5h.95l2,6H4.89l2-6h.95a.5.5,0,0,0,.5-.5V9.5a.5.5,0,0,0-.5-.5H6.13a.51.51,0,0,0-.47.34L3,17.34a.51.51,0,0,0,.48.66h17A.5.5,0,0,0,21,17.34Z"/></svg>