<svg xmlns="http://www.w3.org/2000/svg" viewBox="0 0 24 24"><defs><style>.cls-1{fill:none;}.cls-2{fill:#fff;}</style></defs><g data-name="Bounding area"><polyline class="cls-1" points="24 0 24 24 0 24 0 0"/></g><path class="cls-2" d="M19,8a2.16,2.16,0,0,0-.43-1.79,2.58,2.58,0,0,0-2-.8,2.61,2.61,0,0,0-2,.8A2.12,2.12,0,0,0,14,8l.3,2.47a2.05,2.05,0,0,0,2.17,1.9,2.05,2.05,0,0,0,2.17-1.9Z"/><path class="cls-2" d="M11,11a2.16,2.16,0,0,0-.43-1.79,2.58,2.58,0,0,0-2-.8,2.61,2.61,0,0,0-2,.8A2.12,2.12,0,0,0,6,11l.3,2.47a2.05,2.05,0,0,0,2.17,1.9,2.05,2.05,0,0,0,2.17-1.9Z"/><path class="cls-2" d="M11,16.24a.5.5,0,0,0-.51,0,3.57,3.57,0,0,1-3.87,0,.52.52,0,0,0-.51-.05A3.5,3.5,0,0,0,4,19.34v.16a.5.5,0,0,0,.5.5h8a.5.5,0,0,0,.5-.5v-.16A3.47,3.47,0,0,0,11,16.24Z"/><path class="cls-2" d="M19,13.24a.5.5,0,0,0-.51,0,3.57,3.57,0,0,1-3.87,0,.54.54,0,0,0-.52,0,3.83,3.83,0,0,0-1.69,1.64.5.5,0,0,0,.16.61,5.24,5.24,0,0,1,1.2,1.29.49.49,0,0,0,.42.23h6.29a.53.53,0,0,0,.57-.49v-.17A3.47,3.47,0,0,0,19,13.24Z"/></svg>