<svg xmlns="http://www.w3.org/2000/svg" viewBox="0 0 24 24"><defs><style>.cls-1{fill:none;}.cls-2{fill:#fff;}</style></defs><g data-name="Bounding area"><polyline class="cls-1" points="24 0 24 24 0 24 0 0"/></g><path class="cls-2" d="M16,19.5v-2a.5.5,0,0,0-.5-.5H15a.5.5,0,0,0-.5.5v1h-9v-9h1A.5.5,0,0,0,7,9V8.5A.5.5,0,0,0,6.5,8h-2a.5.5,0,0,0-.5.5v11a.5.5,0,0,0,.5.5h11A.5.5,0,0,0,16,19.5Z"/><path class="cls-2" d="M19.5,4H9.5a.5.5,0,0,0-.5.5v10a.5.5,0,0,0,.5.5h10a.5.5,0,0,0,.5-.5V4.5A.5.5,0,0,0,19.5,4ZM17.68,7.38,14,11l1.29,1.29A.4.4,0,0,1,15,13H11.4a.4.4,0,0,1-.4-.4V9a.4.4,0,0,1,.68-.29L13,10l3.64-3.65a.51.51,0,0,1,.71,0l.36.36A.5.5,0,0,1,17.68,7.38Z"/></svg>