<svg xmlns="http://www.w3.org/2000/svg" viewBox="0 0 24 24"><defs><style>.cls-1{fill:none;}.cls-2{fill:#fff;}</style></defs><g data-name="Bounding area"><polyline class="cls-1" points="24 0 24 24 0 24 0 0"/></g><rect class="cls-2" x="13.75" y="7.75" width="2.5" height="8.49"/><path class="cls-2" d="M15.5,8.5v7h-1v-7h1m1-1.5h-3a.5.5,0,0,0-.5.5v9a.5.5,0,0,0,.5.5h3a.5.5,0,0,0,.5-.5v-9a.5.5,0,0,0-.5-.5Z"/><rect class="cls-2" x="7.75" y="7.75" width="2.5" height="8.49"/><path class="cls-2" d="M9.5,8.5v7h-1v-7h1m1-1.5h-3a.5.5,0,0,0-.5.5v9a.5.5,0,0,0,.5.5h3a.5.5,0,0,0,.5-.5v-9a.5.5,0,0,0-.5-.5Z"/></svg>