<svg id="ad482420-3f27-4786-9368-05a2552641e4"   xmlns="http://www.w3.org/2000/svg" viewBox="0 0 24 24"> <g id="171b3228-4ddc-4307-b56c-86644ce991d6" data-name="Bounding area"><polyline id="5413cbb5-f9dc-4117-8576-6fbee7f2288e"   points="24 0 24 24 0 24 0 0" fill="none"/></g><path d="M14.073,5.5l.862,1.724a.5.5,0,0,0,.447.276H18.5v11H5.5V7.5H8.618a.5.5,0,0,0,.447-.276L9.927,5.5h4.146M9.309,4a.5.5,0,0,0-.447.276L8,6H4.5a.5.5,0,0,0-.5.5v13a.5.5,0,0,0,.5.5h15a.5.5,0,0,0,.5-.5V6.5a.5.5,0,0,0-.5-.5H16l-.862-1.724A.5.5,0,0,0,14.691,4Z" fill="#fff"/><path d="M12,10.5a2,2,0,1,1-2,2,2,2,0,0,1,2-2M12,9a3.5,3.5,0,1,0,3.5,3.5A3.5,3.5,0,0,0,12,9Z" fill="#fff"/><path d="M17.5,9.5a1,1,0,1,1-1-1A1,1,0,0,1,17.5,9.5Z" fill="#fff"/></svg>