<svg xmlns="http://www.w3.org/2000/svg" viewBox="0 0 24 24"><defs><style>.cls-1{fill:none;}.cls-2{fill:#fff;}</style></defs><g data-name="Bounding area"><polyline class="cls-1" points="24 0 24 24 0 24 0 0"/></g><path class="cls-2" d="M12,4A8,8,0,0,0,9.08,19.45a7.74,7.74,0,0,1,0-2.3c.15-.62.94-4,.94-4A2.89,2.89,0,0,1,9.81,12c0-1.11.65-1.94,1.45-1.94a1,1,0,0,1,1,1.12,16.59,16.59,0,0,1-.66,2.67,1.16,1.16,0,0,0,1.18,1.44c1.42,0,2.52-1.5,2.52-3.66A3.15,3.15,0,0,0,12,8.37a3.46,3.46,0,0,0-3.62,3.47A3.09,3.09,0,0,0,9,13.66a.25.25,0,0,1,.05.23c-.06.26-.19.8-.22.91s-.11.18-.26.11a3.6,3.6,0,0,1-1.63-3.1C6.89,9.28,8.72,7,12.18,7a4.69,4.69,0,0,1,4.93,4.62c0,2.75-1.74,5-4.15,5a2.15,2.15,0,0,1-1.84-.92s-.4,1.53-.49,1.91a9.19,9.19,0,0,1-1,2.09A8.1,8.1,0,0,0,12,20,8,8,0,0,0,12,4Z"/></svg>