<svg xmlns="http://www.w3.org/2000/svg" viewBox="0 0 24 24"><defs><style>.cls-1{fill:none;}.cls-2{fill:#fff;}</style></defs><g data-name="Bounding area"><polyline class="cls-1" points="24 0 24 24 0 24 0 0"/></g><rect class="cls-2" x="15" y="11.25" width="5" height="1.5" rx="0.5" ry="0.5"/><rect class="cls-2" x="15" y="6" width="5" height="1.5" rx="0.5" ry="0.5"/><rect class="cls-2" x="9" y="16.5" width="11" height="1.5" rx="0.5" ry="0.5"/><path class="cls-2" d="M8,3a5,5,0,1,0,5,5A5,5,0,0,0,8,3ZM7,5.28a1.3,1.3,0,0,1,1-.4,1.34,1.34,0,0,1,1,.4,1.07,1.07,0,0,1,.21.88L9.09,7.47A1,1,0,0,1,8,8.4a1,1,0,0,1-1.09-.93L6.75,6.15A1,1,0,0,1,7,5.28ZM5.55,11A2,2,0,0,1,6.94,9.14a2.29,2.29,0,0,0,2.12,0A2,2,0,0,1,10.45,11Z"/></svg>