<svg xmlns="http://www.w3.org/2000/svg" viewBox="0 0 24 24"><defs><style>.cls-1{fill:none;}.cls-2{fill:#fff;}</style></defs><g data-name="Bounding area"><polyline class="cls-1" points="24 0 24 24 0 24 0 0"/></g><path class="cls-2" d="M13,12a1,1,0,1,1-1-1A1,1,0,0,1,13,12Z"/><rect class="cls-2" x="11.25" y="15" width="1.5" height="6" rx="0.5" ry="0.5"/><path class="cls-2" d="M7.09,16.24A6.4,6.4,0,0,1,5.52,12.4a6.68,6.68,0,0,1,6.39-6.9,6.49,6.49,0,0,1,5,10.74.5.5,0,0,0,0,.69l.36.36a.5.5,0,0,0,.72,0,8,8,0,1,0-12,0,.51.51,0,0,0,.73,0l.35-.36A.51.51,0,0,0,7.09,16.24Z"/><path class="cls-2" d="M12,9A3,3,0,0,1,14.9,12a3.19,3.19,0,0,1-.6,1.85.51.51,0,0,0,.07.67l.33.33a.5.5,0,0,0,.76-.06A4.68,4.68,0,0,0,16.4,12a4.4,4.4,0,1,0-7.87,2.73.5.5,0,0,0,.77.07l.33-.33a.51.51,0,0,0,.07-.67A3.19,3.19,0,0,1,9.1,12,2.94,2.94,0,0,1,12,9Z"/></svg>