<svg xmlns="http://www.w3.org/2000/svg" viewBox="0 0 24 24"><defs><style>.cls-1{fill:none;}.cls-2{fill:#fff;}</style></defs><g data-name="Bounding area"><polyline class="cls-1" points="24 0 24 24 0 24 0 0"/></g><polygon class="cls-2" points="12 7 12.01 7 12.01 7 12 7"/><polygon class="cls-2" points="12.01 17 12.01 17 12 17 12.01 17"/><path class="cls-2" d="M19.82,12.29a.55.55,0,0,0,0-.58C17.86,8.83,15.32,7,12,7S6.15,8.83,4.2,11.71a.53.53,0,0,0,0,.58C6.12,15.19,8.69,17,12,17S17.9,15.19,19.82,12.29ZM12,14a2,2,0,1,1,2-2A2,2,0,0,1,12,14Z"/></svg>