<svg xmlns="http://www.w3.org/2000/svg" viewBox="0 0 24 24"><defs><style>.cls-1{fill:none;}.cls-2{fill:#fff;}</style></defs><g data-name="Bounding area"><polyline class="cls-1" points="24 0 24 24 0 24 0 0"/></g><path class="cls-2" d="M18.5,4.5v11H15a.5.5,0,0,0-.5.5v2.2l-3.92-2.62a.54.54,0,0,0-.28-.08H5.5V4.5h13M4.5,3a.5.5,0,0,0-.5.5v13a.5.5,0,0,0,.5.5H10l5.53,3.69a.3.3,0,0,0,.47-.25V17h3.5a.5.5,0,0,0,.5-.5V3.5a.5.5,0,0,0-.5-.5Z"/><path class="cls-2" d="M13,13a1,1,0,1,1-1-1A1,1,0,0,1,13,13Z"/><path class="cls-2" d="M12.27,6.55h-2a.29.29,0,0,0-.3.3V7.7a.29.29,0,0,0,.3.3H12a.78.78,0,0,1,.89.83c0,.37-.27.54-1.52,1.57a.24.24,0,0,0-.1.19v.16a.25.25,0,0,0,.25.25h1.16a.57.57,0,0,0,.31-.1c1.33-1,1.58-1.46,1.58-2.27A2,2,0,0,0,12.27,6.55Z"/></svg>