<svg xmlns="http://www.w3.org/2000/svg" viewBox="0 0 24 24"><defs><style>.cls-1{fill:none;}.cls-2{fill:#fff;}</style></defs><g data-name="Bounding area"><polyline class="cls-1" points="24 0 24 24 0 24 0 0"/></g><path class="cls-2" d="M19.5,7H17.37a2.17,2.17,0,0,0,.37-1.24A2.49,2.49,0,0,0,15.1,3.17,2.73,2.73,0,0,0,12.52,4.8L12,5.8l-.55-1A2.81,2.81,0,0,0,8.89,3.17,2.49,2.49,0,0,0,6.25,5.76,2.17,2.17,0,0,0,6.63,7H4.5a.5.5,0,0,0-.5.5v11a.5.5,0,0,0,.5.5h15a.5.5,0,0,0,.5-.5V7.5A.5.5,0,0,0,19.5,7ZM15.1,4.67a1.11,1.11,0,0,1,1.14,1.21A1.14,1.14,0,0,1,15,7h-2l.77-1.47C14.28,4.7,14.73,4.67,15.1,4.67ZM7.75,5.88A1.11,1.11,0,0,1,8.89,4.67a1.32,1.32,0,0,1,1.25.82L10.93,7H9A1.14,1.14,0,0,1,7.75,5.88ZM18.5,17.5H5.5v-2h13Zm0-3.5H5.5V8.5h5.09L9.52,10.55a.49.49,0,0,0,.21.67l.44.23a.5.5,0,0,0,.68-.21L12,9l1.15,2.2a.49.49,0,0,0,.67.21l.45-.23a.5.5,0,0,0,.21-.67L13.41,8.5H18.5Z"/></svg>