<svg xmlns="http://www.w3.org/2000/svg" viewBox="0 0 24 24"><defs><style>.cls-1{fill:none;}.cls-2{fill:#fff;}</style></defs><g data-name="Bounding area"><polyline class="cls-1" points="24 0 24 24 0 24 0 0"/></g><path class="cls-2" d="M12,6h2V3.78a.4.4,0,0,1,.68-.28l3,3a.42.42,0,0,1,0,.57l-3,3A.4.4,0,0,1,14,9.84V7.5H12.22a6.2,6.2,0,0,0-4,1.39,5.93,5.93,0,0,0-1.74,6.5,5.78,5.78,0,0,0,5.46,3.86H12a5.88,5.88,0,0,0,5.78-4.82.5.5,0,0,1,.49-.43h.51a.5.5,0,0,1,.5.5.54.54,0,0,1,0,.08A7.37,7.37,0,0,1,12,20.75h-.11a7.47,7.47,0,0,1-7.26-7.28A7.37,7.37,0,0,1,12,6Z"/></svg>