<svg xmlns="http://www.w3.org/2000/svg" viewBox="0 0 24 24"><defs><style>.cls-1{fill:none;}.cls-2{fill:#fff;}</style></defs><g data-name="Bounding area"><polyline class="cls-1" points="24 0 24 24 0 24 0 0"/></g><path class="cls-2" d="M16.27,7.16l1.42,1.41L19.26,7a.4.4,0,0,1,.68.28v4.29a.4.4,0,0,1-.4.4H15.25a.4.4,0,0,1-.28-.68l1.66-1.66L15.37,8.37a6.22,6.22,0,0,0-3.83-1.86A5.94,5.94,0,0,0,5.71,9.88a5.77,5.77,0,0,0,1.14,6.59l.06.06a5.87,5.87,0,0,0,7.49.67.5.5,0,0,1,.65.05l.36.35a.51.51,0,0,1,0,.71l-.06.06a7.39,7.39,0,0,1-9.51-.78l-.07-.08a7.48,7.48,0,0,1,0-10.28A7.37,7.37,0,0,1,16.27,7.16Z"/></svg>