<svg xmlns="http://www.w3.org/2000/svg" viewBox="0 0 24 24"><defs><style>.cls-1{fill:#fff;}.cls-2{fill:none;}</style></defs><path class="cls-1" d="M10,18a.51.51,0,0,0-.41.81,3,3,0,0,0,4.77,0A.51.51,0,0,0,14,18Z"/><g data-name="Bounding area"><polyline class="cls-2" points="24 0 24 24 0 24 0 0"/></g><path class="cls-1" d="M20.65,19.59,4.41,3.35a.5.5,0,0,0-.7,0l-.36.36a.5.5,0,0,0,0,.7L6.63,7.69a8.19,8.19,0,0,0-.52,2.88A10.73,10.73,0,0,1,5,15.27a.49.49,0,0,0,.44.72h9.45l4.66,4.66a.51.51,0,0,0,.71,0l.35-.35A.51.51,0,0,0,20.65,19.59ZM7,14.49a12.29,12.29,0,0,0,.64-3.92,8,8,0,0,1,.21-1.69l5.61,5.61Z"/><path class="cls-1" d="M12,4a5.38,5.38,0,0,0-2.49.48.5.5,0,0,0-.32.46.54.54,0,0,0,.1.3l.34.43a.51.51,0,0,0,.6.14A4.84,4.84,0,0,1,12,5.5c2.9,0,4.42,2.58,4.42,5.13h0v1.64a.66.66,0,0,0,.21.53l.43.44a.52.52,0,0,0,.36.16.5.5,0,0,0,.5-.5V10.63C17.93,7.12,15.66,4,12,4Z"/></svg>