<svg xmlns="http://www.w3.org/2000/svg" viewBox="0 0 24 24"><defs><style>.cls-1{fill:none;}.cls-2{fill:#fff;}</style></defs><g data-name="Bounding area"><polyline class="cls-1" points="24 0 24 24 0 24 0 0"/></g><path class="cls-2" d="M12,5.5c2.9,0,4.42,2.58,4.42,5.13a12.25,12.25,0,0,0,.63,3.86H7a12.29,12.29,0,0,0,.64-3.92c0-1.19.32-5.07,4.4-5.07M12,4c-4,0-5.9,3.05-5.9,6.57A10.73,10.73,0,0,1,5,15.27a.49.49,0,0,0,.44.72H18.54a.5.5,0,0,0,.45-.72,10.52,10.52,0,0,1-1.06-4.64C17.93,7.12,15.66,4,12,4Z"/><path class="cls-2" d="M10,18a.51.51,0,0,0-.41.81,3,3,0,0,0,4.77,0A.51.51,0,0,0,14,18Z"/></svg>