<svg xmlns="http://www.w3.org/2000/svg" viewBox="0 0 24 24"><defs><style>.cls-1{fill:none;}.cls-2{fill:#fff;}</style></defs><g data-name="Bounding area"><polyline class="cls-1" points="24 0 24 24 0 24 0 0"/></g><path class="cls-2" d="M19.05,8.86a.5.5,0,0,0,.07-.59L18,6.23A.5.5,0,0,0,17.4,6l-2.48.58a6.56,6.56,0,0,0-1.36-.78l-.74-2.44A.48.48,0,0,0,12.34,3H10a.49.49,0,0,0-.48.36L8.79,5.8a6.39,6.39,0,0,0-1.37.78L4.94,6a.49.49,0,0,0-.54.23l-1.18,2a.5.5,0,0,0,.07.59L5,10.71a6.27,6.27,0,0,0,0,1.58L3.29,14.14a.5.5,0,0,0-.07.59l1.18,2a.49.49,0,0,0,.54.23l1.67-.39A.51.51,0,0,0,7,16.12V12.77a4.15,4.15,0,0,1,.33-3.68,4.38,4.38,0,0,1,8.18,1.47A.51.51,0,0,0,16,11h1.07a.48.48,0,0,0,.39-.19Z"/><path class="cls-2" d="M15.53,18.17l.25-1.8a.14.14,0,0,0-.24-.1l-1.18,1.38a.16.16,0,0,0,.06.26l.87.4A.17.17,0,0,0,15.53,18.17ZM11,19a4.09,4.09,0,0,1,4-4.19A4.09,4.09,0,0,1,19,19Zm9.5-6H9.5a.5.5,0,0,0-.5.5v7a.5.5,0,0,0,.5.5h11a.5.5,0,0,0,.5-.5v-7A.5.5,0,0,0,20.5,13Z"/></svg>