<svg id="be86c8ad-e742-4829-9dc8-b5e802a36f40" xmlns="http://www.w3.org/2000/svg" viewBox="0 0 24 24"><g id="7cb47bba-7a2c-4de3-932a-8ed15b684ea1" data-name="Bounding area"><polyline id="dbe6f126-db0d-4d4a-a1b1-358581658c6d" points="24 0 24 24 0 24 0 0" fill="none"/></g><path d="M14.628,7.472H10V5.2a.5.5,0,0,0-.853-.354L6.114,7.87a.5.5,0,0,0,0,.706l3.032,3.052A.5.5,0,0,0,10,11.276v-2.3h4.628a3.6,3.6,0,0,1,3.662,3.362,3.323,3.323,0,0,1-.939,2.473,3.686,3.686,0,0,1-1.926,1.015.51.51,0,0,0-.425.493v.532a.509.509,0,0,0,.587.5,5,5,0,0,0,2.841-1.493,4.852,4.852,0,0,0,1.362-3.562A5.11,5.11,0,0,0,14.628,7.472Z" fill="#fff"/><path d="M9.772,16.7V15.467A1.507,1.507,0,0,1,11.4,13.9a1.505,1.505,0,0,1,1.621,1.571V16.7A1.5,1.5,0,0,1,11.4,18.27,1.507,1.507,0,0,1,9.772,16.7Zm2.052-.024V15.492c0-.35-.143-.532-.425-.532s-.431.188-.431.532v1.183c0,.344.143.531.431.531S11.824,17.024,11.824,16.675Z" fill="#fff"/><path d="M9.309,17.329v.62a.231.231,0,0,1-.24.24H6.759a.231.231,0,0,1-.24-.24v-.62a.231.231,0,0,1,.24-.24h.66v-1.96l-.64.2a.235.235,0,0,1-.32-.17l-.14-.53a.234.234,0,0,1,.16-.29l1.05-.33a.852.852,0,0,1,.23-.03h.61a.231.231,0,0,1,.24.24v2.87h.46A.231.231,0,0,1,9.309,17.329Z" fill="#fff"/></svg>