<svg id="16bb5457-7f40-4958-8f41-604660fcf72c" xmlns="http://www.w3.org/2000/svg" viewBox="0 0 24 24"><g id="45074891-9f3a-44a3-acd2-8478b921ca79" data-name="Bounding area"><polyline id="89559506-b7cc-4ab8-9d49-ee5f4ac803c2" points="24 0 24 24 0 24 0 0" fill="none"/></g><path d="M14.628,7.472H10V5.2a.5.5,0,0,0-.853-.354L6.114,7.87a.5.5,0,0,0,0,.706l3.032,3.052A.5.5,0,0,0,10,11.276v-2.3h4.628a3.6,3.6,0,0,1,3.662,3.362,3.323,3.323,0,0,1-.939,2.473,3.686,3.686,0,0,1-1.926,1.015.51.51,0,0,0-.425.493v.532a.509.509,0,0,0,.587.5,5,5,0,0,0,2.841-1.493,4.852,4.852,0,0,0,1.362-3.562A5.11,5.11,0,0,0,14.628,7.472Z" fill="#fff"/><path d="M13.029,16.8a1.468,1.468,0,0,1-1.64,1.47,1.407,1.407,0,0,1-1.54-1.2.191.191,0,0,1,.21-.24h.74a.223.223,0,0,1,.2.15.42.42,0,0,0,.39.23.475.475,0,1,0-.33-.81.213.213,0,0,1-.15.07h-.76a.231.231,0,0,1-.24-.24v-2.01a.231.231,0,0,1,.24-.24h2.42a.231.231,0,0,1,.24.24v.54a.231.231,0,0,1-.24.24h-1.53v.53a1.468,1.468,0,0,1,.64-.14A1.33,1.33,0,0,1,13.029,16.8Z" fill="#fff"/></svg>