<svg xmlns="http://www.w3.org/2000/svg" viewBox="0 0 24 24"><defs><style>.cls-1{fill:none;}.cls-2{fill:#fff;}</style></defs><g data-name="Bounding area"><polyline class="cls-1" points="24 0 24 24 0 24 0 0"/></g><path class="cls-2" d="M17.35,10.75H19.5a.5.5,0,0,0,.5-.5v-.5a.5.5,0,0,0-.5-.5H17.14a3.82,3.82,0,0,0-2.39-2.46V4.5a.5.5,0,0,0-.5-.5h-.5a.5.5,0,0,0-.5.5v2A4,4,0,0,0,10.54,7.7h0L8.76,5.94a.5.5,0,0,0-.71,0l-.35.35A.5.5,0,0,0,7.7,7L9.47,8.77,7.28,11,5.52,9.18a.51.51,0,0,0-.71,0l-.35.35a.5.5,0,0,0,0,.71L6.24,12a4,4,0,0,0,5.64,5.64l1.77,1.77a.5.5,0,0,0,.71,0l.35-.35a.51.51,0,0,0,0-.71l-1.77-1.76,2.18-2.19,1.77,1.77a.5.5,0,0,0,.71,0l.35-.35a.5.5,0,0,0,0-.71l-1.76-1.76h0A4,4,0,0,0,17.35,10.75Zm-7.26,5.12L8,13.8a.5.5,0,0,1,0-.71l.35-.35a.51.51,0,0,1,.71,0l2.07,2.07a.5.5,0,0,1,0,.71l-.35.35A.5.5,0,0,1,10.09,15.87Zm3.24-3.24-2.07-2.07a.5.5,0,0,1,0-.71l.35-.35a.5.5,0,0,1,.71,0l2.07,2.07a.5.5,0,0,1,0,.71l-.35.35A.5.5,0,0,1,13.33,12.63Z"/></svg>