<svg xmlns="http://www.w3.org/2000/svg" viewBox="0 0 24 24"><defs><style>.cls-1{fill:none;}.cls-2{fill:#fff;}</style></defs><g data-name="Bounding area"><polyline class="cls-1" points="24 0 24 24 0 24 0 0"/></g><path class="cls-2" d="M14.51,12.5V16a.5.5,0,0,0,.5.5h4.5v3h-15v-3H9a.5.5,0,0,0,.5-.5V12.5h5m-6-1.5a.5.5,0,0,0-.5.5V15H3.51a.5.5,0,0,0-.5.5v5a.5.5,0,0,0,.5.5h17a.5.5,0,0,0,.5-.5v-5a.5.5,0,0,0-.5-.5H16V11.5a.5.5,0,0,0-.5-.5Z"/><path class="cls-2" d="M14.83,5.22l-1.9-.16-.77-1.79c-.12-.28-.3-.28-.4,0L11.1,5l-1.92.17c-.3,0-.36.21-.12.39l1.51,1.27L10,8.7c-.09.28,0,.39.3.22L12,7.84l1.71,1.08c.24.17.38.06.29-.22l-.54-1.82,1.5-1.28C15.2,5.43,15.13,5.26,14.83,5.22Z"/></svg>