<svg xmlns="http://www.w3.org/2000/svg" viewBox="0 0 24 24"><defs><style>.cls-1{fill:none;}.cls-2{fill:#fff;}</style></defs><g data-name="Bounding area"><polyline class="cls-1" points="24 0 24 24 0 24 0 0"/></g><path class="cls-2" d="M6,12v2H3.78a.4.4,0,0,0-.28.68l3,3a.42.42,0,0,0,.57,0l3-3A.4.4,0,0,0,9.84,14H7.5V12.22a6.2,6.2,0,0,1,1.39-4,5.93,5.93,0,0,1,6.5-1.74,5.78,5.78,0,0,1,3.86,5.46V12a5.88,5.88,0,0,1-4.82,5.78.5.5,0,0,0-.43.49v.51a.5.5,0,0,0,.5.5h.08A7.37,7.37,0,0,0,20.75,12v-.11a7.47,7.47,0,0,0-7.28-7.26A7.37,7.37,0,0,0,6,12Z"/></svg>