<svg id="1c01c9eb-5c1e-4b86-8245-1a7b789aa3e3"   xmlns="http://www.w3.org/2000/svg" viewBox="0 0 24 24"> <g id="2895395b-44dc-4605-ac1a-ef8abd298c11" data-name="Bounding area"><polyline id="41939145-7c1b-4e3a-b159-72fb0f796a2e"   points="24 0 24 24 0 24 0 0" fill="none"/></g><path d="M19.5,20H4.506a.5.5,0,0,1-.5-.5v-5a.5.5,0,0,1,.5-.5h.5a.5.5,0,0,1,.5.5v4H18.5v-4A.5.5,0,0,1,19,14h.5a.5.5,0,0,1,.5.5v5A.5.5,0,0,1,19.5,20Z" fill="#fff"/><path d="M16.035,9.187H12.75V4.5a.5.5,0,0,0-.5-.5h-.5a.5.5,0,0,0-.5.5V9.187H7.973a.4.4,0,0,0-.283.683l4.02,4.013a.4.4,0,0,0,.565,0l4.042-4.013A.4.4,0,0,0,16.035,9.187Z" fill="#fff"/><path d="M19.5,20H4.506a.5.5,0,0,1-.5-.5v-5a.5.5,0,0,1,.5-.5h.5a.5.5,0,0,1,.5.5v4H18.5v-4A.5.5,0,0,1,19,14h.5a.5.5,0,0,1,.5.5v5A.5.5,0,0,1,19.5,20Z" fill="#fff"/></svg>