<svg xmlns="http://www.w3.org/2000/svg" viewBox="0 0 24 24"><defs><style>.cls-1{fill:none;}.cls-2{fill:#fff;}</style></defs><g data-name="Bounding area"><polyline class="cls-1" points="24 0 24 24 0 24 0 0"/></g><path class="cls-2" d="M19.5,12.5v6H9.5v-6h10M8.5,11a.5.5,0,0,0-.5.5v8a.5.5,0,0,0,.5.5h12a.5.5,0,0,0,.5-.5v-8a.5.5,0,0,0-.5-.5Z"/><path class="cls-2" d="M5.5,15.5h-1V4.5h7v4A.5.5,0,0,0,12,9h.5a.5.5,0,0,0,.5-.5v-5a.5.5,0,0,0-.5-.5h-9a.5.5,0,0,0-.5.5v13a.5.5,0,0,0,.5.5h2a.5.5,0,0,0,.5-.5V16A.5.5,0,0,0,5.5,15.5Z"/><path class="cls-2" d="M20.37,7H19.26c0-2.45-1.32-3.85-3.82-4a.41.41,0,0,0-.42.41v.69a.39.39,0,0,0,.37.4A2.2,2.2,0,0,1,17.76,7H16.65a.3.3,0,0,0-.23.49l1.86,2.23a.29.29,0,0,0,.46,0L20.6,7.49A.3.3,0,0,0,20.37,7Z"/></svg>