<svg xmlns="http://www.w3.org/2000/svg" viewBox="0 0 24 24"><defs><style>.cls-1{fill:none;}.cls-2{fill:#fff;}</style></defs><g data-name="Bounding area"><polyline class="cls-1" points="24 0 24 24 0 24 0 0"/></g><path class="cls-2" d="M13.5,7.5v9h-9v-9h9M3.51,6a.5.5,0,0,0-.5.5v11a.5.5,0,0,0,.5.5h11a.5.5,0,0,0,.5-.5V6.5a.5.5,0,0,0-.5-.5Z"/><rect class="cls-2" x="16.49" y="7.5" width="1.5" height="9" rx="0.5" ry="0.5"/><rect class="cls-2" x="19.48" y="8.5" width="1.5" height="7" rx="0.5" ry="0.5"/><path id="Fill-3" class="cls-2" d="M7,9.68v4.64a.2.2,0,0,0,.3.17l4.15-2.32a.21.21,0,0,0,0-.34L7.31,9.51A.2.2,0,0,0,7,9.68Z"/></svg>