<svg xmlns="http://www.w3.org/2000/svg" viewBox="0 0 24 24"><defs><style>.cls-1{fill:none;}.cls-2{fill:#fff;}</style></defs><g data-name="Bounding area"><polyline class="cls-1" points="24 0 24 24 0 24 0 0"/></g><path class="cls-2" d="M18.55,12a7.55,7.55,0,0,0-.05-.83l1.86-2a.5.5,0,0,0,.07-.6L19.17,6.41a.49.49,0,0,0-.55-.24L16,6.79A6.91,6.91,0,0,0,14.53,6l-.78-2.6A.49.49,0,0,0,13.27,3H10.74a.5.5,0,0,0-.48.36L9.48,6A6.83,6.83,0,0,0,8,6.79L5.39,6.17a.5.5,0,0,0-.55.24L3.58,8.59a.51.51,0,0,0,.07.6l1.86,2a6.91,6.91,0,0,0,0,1.66l-1.86,2a.51.51,0,0,0-.07.6l1.26,2.18a.5.5,0,0,0,.55.24L8,17.21A6.43,6.43,0,0,0,9.48,18l.78,2.6a.5.5,0,0,0,.48.36h2.53a.49.49,0,0,0,.48-.36l.78-2.6A6.49,6.49,0,0,0,16,17.21l2.64.62a.49.49,0,0,0,.55-.24l1.26-2.18a.5.5,0,0,0-.07-.6l-1.86-2A7.55,7.55,0,0,0,18.55,12ZM12,16.7A4.7,4.7,0,1,1,16.7,12,4.7,4.7,0,0,1,12,16.7Z"/></svg>