<svg id="export" xmlns="http://www.w3.org/2000/svg" viewBox="0 0 24 24"><defs><style>.cls-1{fill:none;}.cls-2{fill:#fff;}</style></defs><g id="Bounding_area" ><polyline class="cls-1" points="24 0 24 24 0 24 0 0"/></g><path class="cls-2" d="M21,10.834a2.038,2.038,0,0,0-3.42-1.5,10.231,10.231,0,0,0-5.142-1.519l1.1-3.36,2.891.681a1.678,1.678,0,1,0,.134-.66l-3.114-.733a.4.4,0,0,0-.472.264l-1.245,3.8a10.353,10.353,0,0,0-5.343,1.5A2.039,2.039,0,1,0,3.968,12.57a3.686,3.686,0,0,0-.051.605c0,2.96,3.609,5.368,8.046,5.368s8.045-2.408,8.046-5.368a3.659,3.659,0,0,0-.045-.565A2.025,2.025,0,0,0,21,10.834Zm-2.893-6.7a1.006,1.006,0,1,1-1,1.006A1.007,1.007,0,0,1,18.107,4.129ZM4.156,11.876A1.366,1.366,0,0,1,5.819,9.713,5.077,5.077,0,0,0,4.156,11.876Zm3.877.322a1.274,1.274,0,0,1,1.259-1.26,1.258,1.258,0,0,1,1.241,1.26,1.241,1.241,0,0,1-1.241,1.24A1.257,1.257,0,0,1,8.033,12.2ZM14.9,15.729a3.944,3.944,0,0,1-2.9.9,3.944,3.944,0,0,1-2.9-.9.336.336,0,1,1,.476-.475,3.344,3.344,0,0,0,2.425.7,3.347,3.347,0,0,0,2.426-.7.336.336,0,1,1,.475.475Zm-.174-2.291a1.258,1.258,0,0,1-1.261-1.24,1.274,1.274,0,0,1,1.261-1.26,1.257,1.257,0,0,1,1.241,1.26A1.24,1.24,0,0,1,14.726,13.438Zm5.061-1.515a5.027,5.027,0,0,0-1.645-2.182,1.366,1.366,0,0,1,1.645,2.182Z"/></svg>