<svg xmlns="http://www.w3.org/2000/svg" viewBox="0 0 24 24"><defs><style>.cls-1{fill:none;}.cls-2{fill:#fff;fill-rule:evenodd;}</style></defs><g data-name="Bounding area"><polyline class="cls-1" points="24 0 24 24 0 24 0 0"/></g><g id="WA_Logo" data-name="WA Logo"><path class="cls-2" d="M17.69,6.34A8,8,0,0,0,5.11,16L4,20.12,8.21,19A8,8,0,0,0,12,20h0A8,8,0,0,0,17.69,6.34ZM12,18.64h0a6.59,6.59,0,0,1-3.38-.93l-.24-.14-2.52.66.68-2.45-.16-.26a6.54,6.54,0,0,1-1-3.53A6.65,6.65,0,0,1,12,5.35,6.64,6.64,0,0,1,18.67,12,6.65,6.65,0,0,1,12,18.64Zm3.65-5c-.2-.1-1.18-.58-1.37-.65s-.31-.1-.45.1-.51.65-.63.79-.23.15-.43,0a5.54,5.54,0,0,1-1.61-1,6.22,6.22,0,0,1-1.11-1.39.3.3,0,0,1,.09-.41,3.83,3.83,0,0,0,.3-.35,1.38,1.38,0,0,0,.2-.33.36.36,0,0,0,0-.35C10.6,10,10.2,9.05,10,8.65s-.33-.34-.45-.34H9.2a.74.74,0,0,0-.53.25A2.25,2.25,0,0,0,8,10.22a3.85,3.85,0,0,0,.82,2.06,9,9,0,0,0,3.41,3c.48.2.85.32,1.14.42a2.64,2.64,0,0,0,1.26.07,2,2,0,0,0,1.34-.94,1.65,1.65,0,0,0,.12-.95C16,13.81,15.88,13.76,15.68,13.66Z"/></g></svg>