<svg xmlns="http://www.w3.org/2000/svg" viewBox="0 0 24 24"><defs><style>.cls-1{fill:none;}.cls-2{fill:#fff;}</style></defs><g data-name="Bounding area"><polyline class="cls-1" points="24 0 24 24 0 24 0 0"/></g><path id="White" class="cls-2" d="M18.67,4.5H5.33a.83.83,0,0,0-.83.83V18.67a.83.83,0,0,0,.83.83h7.18V13.69H10.56V11.43h1.95V9.76a2.73,2.73,0,0,1,2.91-3c.83,0,1.54.06,1.75.08v2H16c-.94,0-1.12.45-1.12,1.1v1.45h2.24l-.29,2.26h-2V19.5h3.82a.83.83,0,0,0,.83-.83V5.33A.83.83,0,0,0,18.67,4.5Z"/></svg>