<svg xmlns="http://www.w3.org/2000/svg" viewBox="0 0 24 24"><defs><style>.cls-1{fill:none;}.cls-2{fill:#fff;}</style></defs><g data-name="Bounding area"><polyline class="cls-1" points="24 0 24 24 0 24 0 0"/></g><path class="cls-2" d="M16.47,18.5a1.25,1.25,0,1,1-1.25-1.25A1.24,1.24,0,0,1,16.47,18.5Z"/><circle class="cls-2" cx="9.74" cy="18.5" r="1.25"/><path class="cls-2" d="M18.86,8H7.13l-1-2.65A.49.49,0,0,0,5.71,5H3.51a.5.5,0,0,0-.5.5V6a.5.5,0,0,0,.5.5H5L7.9,14.65a.5.5,0,0,0,.48.35h8.25a.5.5,0,0,0,.48-.35l2.23-6A.5.5,0,0,0,18.86,8Zm-2.94,5.5H9.09l-1.43-4h9.8Z"/></svg>