<svg xmlns="http://www.w3.org/2000/svg" viewBox="0 0 24 24"><defs><style>.cls-1{fill:none;}.cls-2{fill:#fff;}</style></defs><g data-name="Bounding area"><polyline class="cls-1" points="24 0 24 24 0 24 0 0"/></g><path class="cls-2" d="M9.24,14.36l.53-1.61a.3.3,0,0,1,.49-.12l1.05,1a.29.29,0,0,1-.11.49l-1.58.57A.3.3,0,0,1,9.24,14.36Z"/><rect class="cls-2" x="10.08" y="7.12" width="12.16" height="1.5" rx="0.5" ry="0.5" transform="translate(-0.83 13.73) rotate(-45)"/><path class="cls-2" d="M18.91,9.23a.49.49,0,0,0-.26.61A6.74,6.74,0,0,1,19,12a7.27,7.27,0,0,1-.21,1.71,7,7,0,1,1-8.2-8.57,7.12,7.12,0,0,1,3.6.21.49.49,0,0,0,.62-.26L15,4.6a.51.51,0,0,0-.28-.68,6.31,6.31,0,0,0-1.65-.38A8.63,8.63,0,0,0,3.6,10.69a8.5,8.5,0,0,0,16.65,3.39A8.88,8.88,0,0,0,20.5,12a7.48,7.48,0,0,0-.44-2.69A.52.52,0,0,0,19.37,9Z"/></svg>