<svg xmlns="http://www.w3.org/2000/svg" viewBox="0 0 24 24"><defs><style>.cls-1{fill:none;}.cls-2{fill:#fff;}</style></defs><g data-name="Bounding area"><polyline class="cls-1" points="24 0 24 24 0 24 0 0"/></g><path class="cls-2" d="M18.6,5H14a.4.4,0,0,0-.29.68l1.8,1.8-2.64,2.64a.5.5,0,0,0,0,.7l.36.36a.5.5,0,0,0,.7,0l2.64-2.64,1.78,1.78A.4.4,0,0,0,19,10V5.4A.4.4,0,0,0,18.6,5Z"/><path class="cls-2" d="M10.13,12.82,7.48,15.48l-1.8-1.8A.4.4,0,0,0,5,14V18.6a.4.4,0,0,0,.4.4H10a.4.4,0,0,0,.29-.68L8.54,16.54l2.66-2.66a.5.5,0,0,0,0-.7l-.36-.36A.51.51,0,0,0,10.13,12.82Z"/></svg>