<svg xmlns="http://www.w3.org/2000/svg" viewBox="0 0 24 24"><defs><style>.cls-1{fill:none;}.cls-2{fill:#fff;}</style></defs><g ><g data-name="Bounding area"><polyline class="cls-1" points="24 0 24 24 0 24 0 0"/></g><path class="cls-2" d="M18.28,17.44l-8.38-5a.5.5,0,0,1,0-.9l8.38-5A.49.49,0,0,1,19,7V17A.5.5,0,0,1,18.28,17.44Z"/><rect class="cls-2" x="6.75" y="7.75" width="0.5" height="8.5"/><path class="cls-2" d="M7.5,7h-1a.5.5,0,0,0-.5.5v9a.5.5,0,0,0,.5.5h1a.5.5,0,0,0,.5-.5v-9A.5.5,0,0,0,7.5,7Z"/></g></svg>