<svg id="9d2ca238-bf2e-460c-8ce1-ef8a3f2090d7" xmlns="http://www.w3.org/2000/svg" viewBox="0 0 24 24"><g id="9e2f2dba-8839-4ec5-9148-eb817d69206c" data-name="Bounding area"><polyline id="9d1ca922-d73d-4aa2-9385-1180bb8a293f" points="24 0 24 24 0 24 0 0" fill="none"/></g><path d="M11.034,8.992H8.75v9.5a.5.5,0,0,1-.5.5h-.5a.5.5,0,0,1-.5-.5v-9.5H4.966a.4.4,0,0,1-.283-.683L7.717,5.275a.4.4,0,0,1,.566,0l3.034,3.034A.4.4,0,0,1,11.034,8.992Z" fill="#fff"/><path d="M18.69,17.9v.77a.359.359,0,0,1-.36.36H13.71a.35.35,0,0,1-.35-.36V17.9a.506.506,0,0,1,.16-.37l2.94-2.73H13.73a.359.359,0,0,1-.36-.36v-.77a.359.359,0,0,1,.36-.36h4.62a.359.359,0,0,1,.36.36v.77a.523.523,0,0,1-.16.37l-2.99,2.73h2.77A.359.359,0,0,1,18.69,17.9ZM16,6.645l-.54,1.89h1.1Zm.91,3.09H15.1l-.23.7a.417.417,0,0,1-.4.29H13.43a.265.265,0,0,1-.27-.39l1.85-5.06a.4.4,0,0,1,.39-.27h1.2a.4.4,0,0,1,.39.27l1.85,5.06a.265.265,0,0,1-.27.39H17.53a.4.4,0,0,1-.4-.29Z" fill="#fff"/></svg>