<svg xmlns="http://www.w3.org/2000/svg" viewBox="0 0 24 24"><defs><style>.cls-1{fill:none;}.cls-2{fill:#fff;}</style></defs><g data-name="Bounding area"><polyline class="cls-1" points="24 0 24 24 0 24 0 0"/></g><path class="cls-2" d="M17.5,5.5v13H6.5V5.5h11M5.5,4a.5.5,0,0,0-.5.5v15a.5.5,0,0,0,.5.5h13a.5.5,0,0,0,.5-.5V4.5a.5.5,0,0,0-.5-.5Z"/><rect class="cls-2" x="9" y="11.25" width="4" height="1.5" rx="0.5" ry="0.5"/><rect class="cls-2" x="9" y="8.02" width="6" height="1.5" rx="0.5" ry="0.5"/><rect class="cls-2" x="9" y="14.48" width="6" height="1.5" rx="0.5" ry="0.5"/></svg>