<svg xmlns="http://www.w3.org/2000/svg" viewBox="0 0 24 24"><defs><style>.cls-1{fill:none;}.cls-2{fill:#fff;}</style></defs><g data-name="Bounding area"><polyline class="cls-1" points="24 0 24 24 0 24 0 0"/></g><path class="cls-2" d="M12,5a7,7,0,1,1-7,7,7,7,0,0,1,7-7m0-1.5A8.5,8.5,0,1,0,20.5,12,8.51,8.51,0,0,0,12,3.5Z"/><path class="cls-2" d="M11,15.2,8.12,12.37a.5.5,0,0,1,0-.71l.35-.35a.5.5,0,0,1,.71,0l2.07,2.06,4-4.74a.48.48,0,0,1,.7-.06l.38.32a.49.49,0,0,1,.06.7l-4.7,5.58A.49.49,0,0,1,11,15.2Z"/></svg>