<svg id="a7843789-a36f-47b1-bbcd-c89181fd6cb6" xmlns="http://www.w3.org/2000/svg" viewBox="0 0 24 24"><g id="13959773-2e35-43f3-a5ad-8cd1aadedfea" data-name="Bounding area"><polyline id="d6b2b267-2dd7-4f07-99fc-824e5ab70562" points="24 0 24 24 0 24 0 0" fill="none"/></g><path d="M6.508,10.225H8.137L7.318,7.607Zm2.005,1.2H6.128l-.357,1.057a.4.4,0,0,1-.379.272H4.5a.3.3,0,0,1-.265-.439L6.344,6.353a.5.5,0,0,1,.47-.328h1a.5.5,0,0,1,.47.329L10.4,12.311a.3.3,0,0,1-.266.439H9.236a.4.4,0,0,1-.38-.276Z" fill="#fff"/><rect x="13" y="11.25" width="7" height="1.5" rx="0.5" ry="0.5" fill="#fff"/><rect x="13" y="6" width="7" height="1.5" rx="0.5" ry="0.5" fill="#fff"/><rect x="4" y="16.5" width="16" height="1.5" rx="0.5" ry="0.5" fill="#fff"/></svg>