<svg xmlns="http://www.w3.org/2000/svg" viewBox="0 0 24 24"><defs><style>.cls-1{fill:none;}.cls-2{fill:#fff;}</style></defs><g data-name="Bounding area"><polyline class="cls-1" points="24 0 24 24 0 24 0 0"/></g><path class="cls-2" d="M15.71,14.65a.49.49,0,0,0-.47.07,5.45,5.45,0,0,1-3.24,1,5.45,5.45,0,0,1-3.24-1,.49.49,0,0,0-.47-.07c-2.36.88-4,2.61-4.26,4.82a.49.49,0,0,0,.49.53h15a.49.49,0,0,0,.49-.53C19.74,17.26,18.07,15.53,15.71,14.65Z"/><path class="cls-2" d="M15.08,5A4,4,0,0,0,12,3.78,4,4,0,0,0,8.92,5a3,3,0,0,0-.63,2.5L8.73,11A3,3,0,0,0,12,13.72,3,3,0,0,0,15.27,11l.43-3.47A3,3,0,0,0,15.08,5Z"/></svg>