<svg xmlns="http://www.w3.org/2000/svg" viewBox="0 0 24 24"><defs><style>.cls-1{fill:none;}.cls-2{fill:#fff;}</style></defs><g data-name="Bounding area"><polyline class="cls-1" points="24 0 24 24 0 24 0 0"/></g><path class="cls-2" d="M19.59,8.23q-.11,2.37-3.3,6.49C14.08,17.58,12.22,19,10.7,19,9.75,19,9,18.14,8.3,16.4c-.43-1.6-.87-3.2-1.3-4.8C6.51,9.85,6,9,5.44,9a4.8,4.8,0,0,0-1.27.76l-.77-1L5.77,6.65a5.25,5.25,0,0,1,2.4-1.46c1.26-.12,2,.74,2.32,2.59S11,11,11.15,11.5c.36,1.65.76,2.48,1.2,2.48s.85-.54,1.52-1.61A6.22,6.22,0,0,0,15,9.92c.1-.93-.26-1.39-1.09-1.39a3.12,3.12,0,0,0-1.19.26Q13.87,4.88,17.24,5C18.9,5,19.68,6.12,19.59,8.23Z"/></svg>