<svg xmlns="http://www.w3.org/2000/svg" viewBox="0 0 24 24"><defs><style>.cls-1{fill:none;}.cls-2{fill:#fff;}</style></defs><g data-name="Bounding area"><polyline class="cls-1" points="24 0 24 24 0 24 0 0"/></g><path class="cls-2" d="M11.17,6.71,8.62,9H5.5a.5.5,0,0,0-.5.5v5a.5.5,0,0,0,.5.5H8.61l2.56,2.26a.5.5,0,0,0,.83-.37V7.08A.5.5,0,0,0,11.17,6.71Z"/><path class="cls-2" d="M17.75,11.25V9.4a.4.4,0,0,0-.4-.4h-.7a.4.4,0,0,0-.4.4v1.85H14.4a.4.4,0,0,0-.4.4v.7a.4.4,0,0,0,.4.4h1.85V14.6a.4.4,0,0,0,.4.4h.7a.4.4,0,0,0,.4-.4V12.75H19.6a.4.4,0,0,0,.4-.4v-.7a.4.4,0,0,0-.4-.4Z"/></svg>