<svg xmlns="http://www.w3.org/2000/svg" viewBox="0 0 24 24"><defs><style>.cls-1{fill:none;}.cls-2{fill:#fff;}</style></defs><g data-name="Bounding area"><polyline class="cls-1" points="24 0 24 24 0 24 0 0"/></g><path class="cls-2" d="M11.17,6.71,8.62,9H5.5a.5.5,0,0,0-.5.5v5a.5.5,0,0,0,.5.5H8.61l2.56,2.26a.5.5,0,0,0,.83-.37V7.08A.5.5,0,0,0,11.17,6.71Z"/><path class="cls-2" d="M14.37,8.69,14,9.06a.49.49,0,0,0,0,.67,3.14,3.14,0,0,1,.93,2.2,3.42,3.42,0,0,1-1,2.28.51.51,0,0,0,0,.68l.35.36a.5.5,0,0,0,.69,0,4.59,4.59,0,0,0,.09-6.61A.5.5,0,0,0,14.37,8.69Z"/><path class="cls-2" d="M17.23,5.42a.52.52,0,0,0-.72,0l-.34.36a.49.49,0,0,0,0,.7,7.66,7.66,0,0,1-.08,10.94.5.5,0,0,0,0,.71l.34.35a.5.5,0,0,0,.71,0,9.14,9.14,0,0,0,.09-13.1Z"/></svg>