<svg xmlns="http://www.w3.org/2000/svg" viewBox="0 0 24 24"><defs><style>.cls-1{fill:none;}.cls-2{fill:#fff;}</style></defs><g data-name="Bounding area"><polyline class="cls-1" points="24 0 24 24 0 24 0 0"/></g><path class="cls-2" d="M19,5.33A.33.33,0,0,0,18.67,5H14.33a.33.33,0,0,0-.23.56l1.66,1.66L12,11,8.83,7.81A2,2,0,1,0,7,9a1.86,1.86,0,0,0,.75-.15L10.94,12l-.65.65c-1.36,1.34-2,2-2,3.52A3.65,3.65,0,0,0,12,19.75a3.64,3.64,0,0,0,3.76-3.5c0-1.54-.71-2.24-2.13-3.64L13.06,12l3.76-3.76L18.44,9.9A.33.33,0,0,0,19,9.67ZM14.26,16.25a2.14,2.14,0,0,1-2.26,2,2.18,2.18,0,0,1-2.25-2c0-.85.27-1.16,1.59-2.45l.66-.65.58.57C14,15.05,14.26,15.37,14.26,16.25Z"/></svg>