<svg id="3a4741de-7198-4aa9-bc04-f353899b459c"   xmlns="http://www.w3.org/2000/svg" viewBox="0 0 24 24"> <g id="9c33cee3-2f1e-4400-ab66-23fa8f70fc19" data-name="Bounding area"><polyline id="1b20d4b9-46c3-4e47-ac31-ee1f970b38ab"   points="24 0 24 24 0 24 0 0" fill="none"/></g><path d="M18,9V6.5a.5.5,0,0,0-.5-.5H6.5a.5.5,0,0,0-.5.5v11a.5.5,0,0,0,.5.5h11a.5.5,0,0,0,.5-.5V11h.5a.5.5,0,0,0,.5-.5v-1a.5.5,0,0,0-.5-.5Zm-1.424,7.576H7.424V7.424h9.152Z" fill="#fff"/><path d="M9.45,21h5.113a.5.5,0,0,0,.495-.429l.143-3A.5.5,0,0,0,14.707,17H9.3a.5.5,0,0,0-.494.572l.145,3A.5.5,0,0,0,9.45,21Z" fill="#fff"/><path d="M14.563,3H9.45a.5.5,0,0,0-.495.428l-.145,3A.5.5,0,0,0,9.3,7h5.4a.5.5,0,0,0,.494-.571l-.143-3A.5.5,0,0,0,14.563,3Z" fill="#fff"/></svg>