<svg xmlns="http://www.w3.org/2000/svg" viewBox="0 0 24 24"><defs><style>.cls-1{fill:none;}.cls-2{fill:#fff;}</style></defs><g data-name="Bounding area"><polyline class="cls-1" points="24 0 24 24 0 24 0 0"/></g><path class="cls-2" d="M20.14,7.9a2.14,2.14,0,0,0-1.5-1.51A50.15,50.15,0,0,0,12,6a50.15,50.15,0,0,0-6.64.36A2.14,2.14,0,0,0,3.86,7.9,22.72,22.72,0,0,0,3.51,12a22.63,22.63,0,0,0,.35,4.11,2.12,2.12,0,0,0,1.5,1.51A50.15,50.15,0,0,0,12,18a50.15,50.15,0,0,0,6.64-.36,2.12,2.12,0,0,0,1.5-1.51A22.63,22.63,0,0,0,20.49,12,22.72,22.72,0,0,0,20.14,7.9Zm-9.88,6.64v-5L14.7,12Z"/></svg>