<svg xmlns="http://www.w3.org/2000/svg" viewBox="0 0 24 24"><defs><style>.cls-1{fill:none;}.cls-2{fill:#fff;}</style></defs><g data-name="Bounding area"><polyline class="cls-1" points="24 0 24 24 0 24 0 0"/></g><path class="cls-2" d="M12.5,9.25H10.75V7.5a.5.5,0,0,0-.5-.5h-.5a.5.5,0,0,0-.5.5V9.25H7.5a.5.5,0,0,0-.5.5v.5a.5.5,0,0,0,.5.5H9.25V12.5a.5.5,0,0,0,.5.5h.5a.5.5,0,0,0,.5-.5V10.75H12.5a.5.5,0,0,0,.5-.5v-.5A.5.5,0,0,0,12.5,9.25Z"/><path class="cls-2" d="M10,5.5A4.5,4.5,0,1,1,5.5,10,4.51,4.51,0,0,1,10,5.5M10,4a6,6,0,1,0,6,6,6,6,0,0,0-6-6Z"/><rect class="cls-2" x="17.16" y="14.92" width="1.5" height="5.95" rx="0.5" ry="0.5" transform="translate(-7.41 17.9) rotate(-45)"/></svg>