<svg id="export" xmlns="http://www.w3.org/2000/svg" viewBox="0 0 24 24"><defs><style>.cls-1{fill:none}.cls-2{fill:#000}</style></defs><path class="cls-1" d="M24 0v24H0V0" id="Bounding_area"/><circle class="cls-2" cx="16.38" cy="15.5" r=".5"/><path class="cls-2" d="M7 6.5v6a.5.5 0 0 0 .5.5h9a.5.5 0 0 0 .5-.5v-6a.5.5 0 0 0-.5-.5h-9a.5.5 0 0 0-.5.5zm6.951 3.3l-3.129 1.638a.236.236 0 0 1-.341-.2v-3.47a.236.236 0 0 1 .351-.194l3.129 1.833a.217.217 0 0 1-.01.393zM5.778 14.46A3.36 3.36 0 0 1 4.508 12a2.766 2.766 0 0 1 .36-1.33.993.993 0 0 0 .14-.5V9.15a.379.379 0 0 0-.67-.28A4.607 4.607 0 0 0 3.008 12a5.123 5.123 0 0 0 2.43 4.1.352.352 0 0 0 .57-.31v-.84a.592.592 0 0 0-.23-.49zM18 14.95v.84a.352.352 0 0 0 .57.31A5.123 5.123 0 0 0 21 12a4.607 4.607 0 0 0-1.33-3.13.379.379 0 0 0-.67.28v1.02a.993.993 0 0 0 .14.5A2.766 2.766 0 0 1 19.5 12a3.36 3.36 0 0 1-1.27 2.46.592.592 0 0 0-.23.49zM14 17.258c-.2 0-.294-.13-.294-.365v-.809c0-.234.1-.365.294-.365s.293.124.293.365v.809c-.004.241-.102.365-.293.365zm-2.5.731a1.089 1.089 0 0 0 1.122-1.083.985.985 0 0 0-.835-1l.443-.678c.066-.1.02-.183-.1-.183h-.63a.2.2 0 0 0-.182.1l-.587.881a1.448 1.448 0 0 0-.346.86 1.094 1.094 0 0 0 1.115 1.103zm.006-.744a.336.336 0 0 1 0-.672.336.336 0 0 1 0 .672zm-2.471.744c.639 0 1.089-.353 1.089-.868a.706.706 0 0 0-.437-.665.667.667 0 0 0 .378-.633c0-.5-.4-.834-1.017-.834a1 1 0 0 0-1.076.834c-.02.1.039.157.137.157h.461c.084 0 .13-.046.169-.13A.272.272 0 0 1 9 15.693c.17 0 .274.091.274.241s-.1.235-.287.235H8.87a.134.134 0 0 0-.15.15v.281a.135.135 0 0 0 .15.15H9c.189 0 .294.091.294.247a.263.263 0 0 1-.294.261.273.273 0 0 1-.261-.169c-.032-.092-.071-.137-.163-.137h-.482a.129.129 0 0 0-.144.156.989.989 0 0 0 1.083.881zm4.963 0a1.034 1.034 0 0 0 1.115-1.076v-.848A1.034 1.034 0 0 0 14 14.989a1.034 1.034 0 0 0-1.115 1.076v.848A1.034 1.034 0 0 0 14 17.989z"/></svg>