<svg xmlns="http://www.w3.org/2000/svg" viewBox="0 0 24 24"><defs><style>.cls-1{fill:none}.cls-2{fill:#000}</style></defs><path class="cls-1" d="M24 0v24H0V0" data-name="Bounding area"/><path class="cls-2" d="M16.5 11.25h-3.75V7.5a.5.5 0 0 0-.5-.5h-.5a.5.5 0 0 0-.5.5v3.75H7.5a.5.5 0 0 0-.5.5v.5a.5.5 0 0 0 .5.5h3.75v3.75a.5.5 0 0 0 .5.5h.5a.5.5 0 0 0 .5-.5v-3.75h3.75a.5.5 0 0 0 .5-.5v-.5a.5.5 0 0 0-.5-.5z"/><path class="cls-2" d="M12 5a7 7 0 1 1-7 7 7 7 0 0 1 7-7m0-1.5a8.5 8.5 0 1 0 8.5 8.5A8.51 8.51 0 0 0 12 3.5z"/></svg>