<svg xmlns="http://www.w3.org/2000/svg" viewBox="0 0 24 24"><defs><style>.cls-1{fill:none}.cls-2{fill:#000}</style></defs><path class="cls-1" d="M24 0v24H0V0" data-name="Bounding area"/><path class="cls-2" d="M7.45 20h9.1a.5.5 0 0 0 .41-.78l-4.55-6.62a.5.5 0 0 0-.82 0L7 19.22a.5.5 0 0 0 .45.78z"/><path class="cls-2" d="M20.5 5h-17a.5.5 0 0 0-.5.5v11a.5.5 0 0 0 .5.5h2.24a.51.51 0 0 0 .39-.19l.42-.54a.51.51 0 0 0 .09-.27.5.5 0 0 0-.5-.5H4.5v-9h15v9h-1.72a.5.5 0 0 0-.5.5.48.48 0 0 0 .09.26l.35.52a.48.48 0 0 0 .41.22h2.37a.5.5 0 0 0 .5-.5v-11a.5.5 0 0 0-.5-.5z"/></svg>