<svg id="export" xmlns="http://www.w3.org/2000/svg" viewBox="0 0 60 24"><defs><style>.cls-1{fill:none}.cls-2{fill:#a6a5a5}.cls-3{fill:#fff}</style></defs><path class="cls-1" d="M24 0v24H0V0" id="Bounding_area" data-name="Bounding area"/><rect x="3.15" y="3.15" width="53.7" height="17.7" rx="2.85" ry="2.85"/><path class="cls-2" d="M54 3.3A2.7 2.7 0 0 1 56.7 6v12a2.7 2.7 0 0 1-2.7 2.7H6A2.7 2.7 0 0 1 3.3 18V6A2.7 2.7 0 0 1 6 3.3h48m0-.3H6a3 3 0 0 0-3 3v12a3 3 0 0 0 3 3h48a3 3 0 0 0 3-3V6a3 3 0 0 0-3-3z"/><path id="_Path_" data-name="Path" class="cls-3" d="M14.146 12.27a2.226 2.226 0 0 1 1.06-1.868 2.277 2.277 0 0 0-1.8-.971c-.756-.08-1.488.452-1.873.452s-.985-.444-1.624-.431A2.393 2.393 0 0 0 7.9 10.679c-.87 1.507-.221 3.721.613 4.939.417.6.9 1.263 1.542 1.239s.858-.4 1.611-.4.965.4 1.616.383c.67-.011 1.092-.6 1.494-1.2a4.921 4.921 0 0 0 .683-1.391 2.153 2.153 0 0 1-1.313-1.979z"/><path id="_Path_2" data-name="Path 2" class="cls-3" d="M12.916 8.63a2.189 2.189 0 0 0 .5-1.571 2.23 2.23 0 0 0-1.443.747 2.084 2.084 0 0 0-.515 1.512 1.845 1.845 0 0 0 1.458-.688z"/><path class="cls-3" d="M20.509 11.27l-2.017 5.588h.9l.511-1.511h2.13l.512 1.511h.917l-2.015-5.588zm-.383 3.381l.833-2.452h.023l.832 2.452zM26.106 12.741a1.447 1.447 0 0 0-1.3.72h-.015v-.677h-.81v5.422h.837v-2.018h.019a1.38 1.38 0 0 0 1.282.712c1.023 0 1.7-.813 1.7-2.079s-.679-2.08-1.713-2.08zm-.221 3.451c-.639 0-1.069-.55-1.069-1.371s.43-1.367 1.069-1.367 1.077.542 1.077 1.367-.427 1.371-1.077 1.371zM30.59 12.741a1.448 1.448 0 0 0-1.3.72h-.015v-.677h-.809v5.422h.834v-2.018h.019a1.381 1.381 0 0 0 1.282.712c1.023 0 1.7-.813 1.7-2.079s-.677-2.08-1.711-2.08zm-.221 3.451c-.639 0-1.069-.55-1.069-1.371s.43-1.367 1.069-1.367 1.077.542 1.077 1.367-.427 1.371-1.077 1.371zM37.077 13.7l-.616-.151c-.72-.178-1.014-.411-1.014-.806 0-.5.461-.836 1.134-.836s1.135.336 1.185.894h.845a1.788 1.788 0 0 0-2.018-1.626c-1.193 0-2.033.662-2.033 1.626 0 .779.476 1.259 1.5 1.507l.725.174c.724.178 1.03.438 1.03.871 0 .5-.507.864-1.212.864-.736 0-1.274-.364-1.336-.918h-.856c.054 1.011.89 1.65 2.13 1.65 1.324 0 2.157-.655 2.157-1.7.002-.816-.474-1.276-1.621-1.549zM40.505 11.82h-.841v.964h-.592v.662h.592v2.335c0 .79.322 1.1 1.147 1.1a2.255 2.255 0 0 0 .464-.039v-.658a2.802 2.802 0 0 1-.275.02c-.34 0-.495-.163-.495-.512v-2.246h.774v-.662h-.774zM43.66 12.734a1.878 1.878 0 0 0-1.932 2.087 1.938 1.938 0 1 0 3.865 0 1.876 1.876 0 0 0-1.933-2.087zm1.081 2.087c0 .883-.4 1.4-1.081 1.4s-1.08-.515-1.08-1.4.4-1.4 1.08-1.4 1.081.519 1.081 1.4zM47.1 13.477h-.02v-.693h-.8v4.074h.837v-2.417a.8.8 0 0 1-.005-.129.843.843 0 0 1 .876-.808 1.143 1.143 0 0 1 .376.051v-.783a1.314 1.314 0 0 0-.287-.031.974.974 0 0 0-.977.736zM52.268 15.03v-.287a1.793 1.793 0 0 0-1.836-2.009 1.879 1.879 0 0 0-1.886 2.106 1.855 1.855 0 0 0 1.921 2.068 1.634 1.634 0 0 0 1.754-1.247h-.794a.921.921 0 0 1-.94.573.981.981 0 0 1-.133 0 1.061 1.061 0 0 1-.963-1.151v-.05zm-2.868-.593a1.031 1.031 0 0 1 1.037-1.026h.076a.979.979 0 0 1 .923 1.032H49.4zM21.512 8.4a1.221 1.221 0 0 0 .006-.234 1.188 1.188 0 0 0-1.27-1.1h-.97v2.683h.97A1.194 1.194 0 0 0 21.512 8.4zm-1.812.969V7.443h.5a.879.879 0 0 1 .162.007.845.845 0 0 1 .723.953.922.922 0 0 1 .008.174.844.844 0 0 1-.893.792zM22.847 7.688a.959.959 0 0 0-.864 1.047.96.96 0 1 0 1.911 0 .932.932 0 0 0 0-.183.959.959 0 0 0-1.047-.864zm.092 1.744c-.348 0-.543-.254-.543-.7s.2-.7.543-.7.543.257.543.7-.197.7-.543.7zM25.152 9.749l.417-1.493h.032l.418 1.493h.415l.557-2.026h-.4l-.362 1.546h-.031l-.417-1.546h-.383l-.417 1.546h-.03l-.363-1.546h-.406l.559 2.026h.411zM28.781 9.749h.4V8.437a.647.647 0 0 0 0-.146.659.659 0 0 0-.706-.608.607.607 0 0 0-.605.361h-.03v-.321h-.38v2.026h.4V8.563a.546.546 0 0 1 0-.07.465.465 0 0 1 .486-.443c.3 0 .437.162.437.487zM29.82 6.93h.4v2.82h-.4zM31.638 7.688a.96.96 0 0 0-.864 1.047.96.96 0 1 0 1.911 0 .932.932 0 0 0 0-.183.959.959 0 0 0-1.047-.864zm.092 1.744c-.347 0-.543-.254-.543-.7s.2-.7.543-.7.544.257.544.7-.197.7-.544.7zM34.807 9.749V8.364c0-.428-.286-.681-.794-.681-.46 0-.788.224-.828.572h.387c.044-.144.2-.226.422-.226.273 0 .415.121.415.335v.175l-.549.032c-.482.03-.754.24-.754.605v.061a.612.612 0 0 0 .672.545.679.679 0 0 0 .608-.318h.032v.285zM34.409 9v.015a.479.479 0 0 1-.524.428c-.217 0-.375-.107-.375-.289s.126-.273.405-.292l.495-.032zM36.174 9.782a.7.7 0 0 0 .636-.353h.032v.32h.383V6.932h-.4v1.112H36.8a.669.669 0 0 0-.621-.355c-.512 0-.841.406-.841 1.046s.32 1.047.836 1.047zm.113-1.734c.335 0 .545.266.545.689s-.208.686-.545.686-.541-.258-.541-.688.204-.687.541-.687zM40.79 8.735a.932.932 0 0 0 0-.183.96.96 0 0 0-1.911.183.96.96 0 1 0 1.911 0zm-1.5 0c0-.439.2-.7.544-.7s.543.257.543.7-.2.7-.543.7-.542-.257-.542-.7zM42.211 8.05c.3 0 .437.162.437.487v1.212h.4V8.437a.647.647 0 0 0 0-.146.659.659 0 0 0-.706-.608.607.607 0 0 0-.605.361h-.03v-.321h-.385v2.026h.4V8.563a.41.41 0 0 1 0-.07.464.464 0 0 1 .489-.443zM44.907 9.213c0 .391.177.547.622.547a1.423 1.423 0 0 0 .217-.02v-.334a1.279 1.279 0 0 1-.152.01c-.2 0-.287-.093-.287-.3V8.069h.439v-.337h-.439v-.514h-.4v.514h-.322v.337h.322zM46.693 8.565a.427.427 0 0 1 0-.08.473.473 0 0 1 .511-.433c.282 0 .433.164.433.487v1.21h.4V8.441a.591.591 0 0 0 0-.126.667.667 0 0 0-.7-.63.624.624 0 0 0-.618.363h-.032V6.932h-.4v2.817h.4zM49.49 9.788a.822.822 0 0 0 .878-.586h-.385a.484.484 0 0 1-.482.245.29.29 0 0 1-.051 0 .535.535 0 0 1-.489-.578v-.025h1.431v-.139c0-.636-.34-1.022-.9-1.022a.976.976 0 0 0-.132.009.934.934 0 0 0-.8 1.05.839.839 0 0 0-.008.15.92.92 0 0 0 .938.896zm-.529-1.253a.518.518 0 0 1 .525-.511.365.365 0 0 1 .047 0 .489.489 0 0 1 .452.524h-1.024z"/></svg>