<svg xmlns="http://www.w3.org/2000/svg" viewBox="0 0 24 24"><defs><style>.cls-1{fill:none}.cls-2{fill:#000}</style></defs><path class="cls-1" d="M24 0v24H0V0" data-name="Bounding area"/><path class="cls-2" d="M19.3 13h1.37a.3.3 0 0 0 .24-.47l-1.44-2.07a.25.25 0 0 0-.47.15v2.09a.29.29 0 0 0 .3.3zM13 9.3a1 1 0 1 0-1-1 1 1 0 0 0 1 1zm-4.5 7.2v-11h7v3L13 12l-.91-1.31a.29.29 0 0 0-.49 0l-1.27 1.83a.3.3 0 0 0 .24.47h4.93v3.5zM3.34 13H4.7a.29.29 0 0 0 .3-.3v-2.09a.25.25 0 0 0-.47-.15l-1.44 2.07a.3.3 0 0 0 .25.47zm4.16 5h9a.5.5 0 0 0 .5-.5v-13a.5.5 0 0 0-.5-.5h-9a.5.5 0 0 0-.5.5v13a.5.5 0 0 0 .5.5z"/></svg>