<svg xmlns="http://www.w3.org/2000/svg" viewBox="0 0 24 24"><defs><style>.cls-1{fill:none}.cls-2{fill:#000}</style></defs><path class="cls-1" d="M24 0v24H0V0" data-name="Bounding area"/><rect class="cls-2" x="9" y="13.03" width="6" height="1.5" rx=".5" ry=".5"/><path class="cls-2" d="M17.5 12.5v6h-11v-6A.5.5 0 0 0 6 12h-.5a.5.5 0 0 0-.5.5v7a.5.5 0 0 0 .5.5h13a.5.5 0 0 0 .5-.5v-7a.5.5 0 0 0-.5-.5H18a.5.5 0 0 0-.5.5zM18.5 5.5v3h-13v-3h13M4.5 4a.5.5 0 0 0-.5.5v5a.5.5 0 0 0 .5.5h15a.5.5 0 0 0 .5-.5v-5a.5.5 0 0 0-.5-.5z"/></svg>