<svg xmlns="http://www.w3.org/2000/svg" viewBox="0 0 24 24"><defs><style>.cls-1{fill:none}.cls-2{fill:#000}</style></defs><path class="cls-1" d="M24 0v24H0V0" data-name="Bounding area"/><path class="cls-2" d="M6.59 9.75a2.85 2.85 0 0 0 2.91 2.68 2.85 2.85 0 0 0 2.92-2.68l.29-2.55A3 3 0 0 0 9.5 3.61 3 3 0 0 0 6.29 7.2zM11.45 19.42l.55-1.61a.29.29 0 0 1 .49-.12l1 1a.29.29 0 0 1-.11.49l-1.58.56a.29.29 0 0 1-.35-.32z"/><rect class="cls-2" x="12.65" y="13.1" width="9.58" height="1.5" rx=".5" ry=".5" transform="rotate(-45 17.44 13.856)"/><path class="cls-2" d="M13.43 13.52a.24.24 0 0 0-.07-.17l-.19-.19a.24.24 0 0 0-.18-.07.25.25 0 0 0-.17.06 5.06 5.06 0 0 1-3.32 1.28 4.83 4.83 0 0 1-3.26-1.22.5.5 0 0 0-.56-.09 4.58 4.58 0 0 0-2.63 3.28.5.5 0 0 0 .49.6h6.31a.49.49 0 0 0 .35-.15l3.15-3.15a.25.25 0 0 0 .08-.18z"/></svg>