<svg xmlns="http://www.w3.org/2000/svg" viewBox="0 0 24 24"><path fill="none" d="M24 0v24H0V0" data-name="Bounding area"/><path d="M14.628 7.472H10V5.2a.5.5 0 0 0-.853-.354L6.114 7.87a.5.5 0 0 0 0 .706l3.032 3.052a.5.5 0 0 0 .854-.352v-2.3h4.628a3.6 3.6 0 0 1 3.662 3.362 3.323 3.323 0 0 1-.939 2.473 3.686 3.686 0 0 1-1.926 1.015.51.51 0 0 0-.425.493v.532a.509.509 0 0 0 .587.5 5 5 0 0 0 2.841-1.493 4.852 4.852 0 0 0 1.362-3.562 5.11 5.11 0 0 0-5.162-4.824z"/><path d="M11.359 13.9a1.507 1.507 0 0 0-1.627 1.571V16.7a1.507 1.507 0 0 0 1.627 1.571 1.5 1.5 0 0 0 1.62-1.571v-1.233a1.5 1.5 0 0 0-1.62-1.567zm.425 2.779c0 .349-.143.531-.425.531s-.431-.187-.431-.531v-1.187c0-.344.143-.532.431-.532s.425.182.425.532zM8.148 16.732c.72-.46 1.1-.78 1.1-1.48a1.323 1.323 0 0 0-1.5-1.36 1.449 1.449 0 0 0-1.59 1.28.268.268 0 0 0 .3.32h.6a.3.3 0 0 0 .3-.24.315.315 0 0 1 .33-.24.327.327 0 0 1 .35.37c0 .24-.13.33-.75.73a2.016 2.016 0 0 0-1.15 1.64v.14a.278.278 0 0 0 .3.3h2.54a.278.278 0 0 0 .3-.3v-.42a.278.278 0 0 0-.3-.3h-1.46a5.41 5.41 0 0 1 .63-.44z"/></svg>