<svg xmlns="http://www.w3.org/2000/svg" viewBox="0 0 24 24"><defs><style>.cls-1{fill:none}.cls-2{fill:#000}</style></defs><path class="cls-1" d="M24 0v24H0V0" data-name="Bounding area"/><rect class="cls-2" x="11.47" y="8.79" width="1.5" height="1.53" rx=".5" ry=".5" transform="rotate(-45 12.22 9.559)"/><rect class="cls-2" x="13.59" y="10.91" width="1.5" height="1.53" rx=".5" ry=".5" transform="rotate(-45.08 14.335 11.67)"/><path class="cls-2" d="M5.41 15.72a.51.51 0 0 0 .58.09 1.38 1.38 0 0 1 .71-.19A1.46 1.46 0 0 1 8 17.81a.48.48 0 0 0 .1.57l2.15 2.15a.51.51 0 0 0 .71 0L20.45 11a.51.51 0 0 0 0-.71l-2.11-2.1a.49.49 0 0 0-.59-.09 1.46 1.46 0 0 1-2-2 .49.49 0 0 0-.09-.59l-2.08-2.08a.5.5 0 0 0-.71 0L3.35 13a.5.5 0 0 0 0 .7zm7.82-10.53l.91.91A3 3 0 0 0 17 9.81a2.65 2.65 0 0 0 .74-.11l.94 1-8.11 8.11-.81-.81a.54.54 0 0 1-.13-.44A3 3 0 0 0 8.8 15a2.93 2.93 0 0 0-2.8-.79l-.9-.91z"/></svg>