<svg xmlns="http://www.w3.org/2000/svg" viewBox="0 0 24 24"><path fill="none" d="M24 0v24H0V0" data-name="Bounding area"/><rect x="10" y="4" width="4" height="1.5" rx=".5" ry=".5"/><path d="M16 4.5V5a.5.5 0 0 0 .5.5h2v13h-13v-13h2A.5.5 0 0 0 8 5v-.5a.5.5 0 0 0-.5-.5h-3a.5.5 0 0 0-.5.5v15a.5.5 0 0 0 .5.5h15a.5.5 0 0 0 .5-.5v-15a.5.5 0 0 0-.5-.5h-3a.5.5 0 0 0-.5.5z"/><path d="M15.979 13.509v.649a.319.319 0 0 1-.325.325h-2.64a.319.319 0 0 1-.324-.325v-.649a.318.318 0 0 1 .324-.324h.736v-2.3l-.725.227a.314.314 0 0 1-.411-.227l-.151-.562a.316.316 0 0 1 .216-.379l1.277-.389a.666.666 0 0 1 .205-.033h.671a.319.319 0 0 1 .325.325v3.343h.5a.319.319 0 0 1 .322.319zm-4.23-.422c0 .887-.779 1.493-1.872 1.493a1.681 1.681 0 0 1-1.85-1.493.235.235 0 0 1 .238-.292h.822a.311.311 0 0 1 .282.217.5.5 0 0 0 .962-.141c0-.271-.184-.433-.508-.433H9.65a.3.3 0 0 1-.3-.3v-.389a.3.3 0 0 1 .3-.3h.15c.314 0 .5-.141.5-.4s-.184-.412-.476-.412a.446.446 0 0 0-.454.282.315.315 0 0 1-.282.205h-.812a.234.234 0 0 1-.238-.292A1.726 1.726 0 0 1 9.9 9.42c1.049 0 1.752.573 1.752 1.428a1.138 1.138 0 0 1-.66 1.092 1.218 1.218 0 0 1 .757 1.147z"/></svg>