<svg xmlns="http://www.w3.org/2000/svg" viewBox="0 0 24 24"><defs><style>.cls-1{fill:none}.cls-2{fill:#000}</style></defs><path class="cls-1" d="M24 0v24H0V0" data-name="Bounding area"/><path class="cls-2" d="M15.71 8.64l-.35-.35a.5.5 0 0 0-.71 0L12 10.94 9.35 8.29a.5.5 0 0 0-.71 0l-.35.35a.5.5 0 0 0 0 .71L10.94 12l-2.65 2.65a.5.5 0 0 0 0 .71l.35.35a.5.5 0 0 0 .71 0L12 13.06l2.65 2.65a.5.5 0 0 0 .71 0l.35-.35a.51.51 0 0 0 0-.71L13.06 12l2.65-2.65a.51.51 0 0 0 0-.71z"/><path class="cls-2" d="M12 5a7 7 0 1 1-7 7 7 7 0 0 1 7-7m0-1.5a8.5 8.5 0 1 0 8.5 8.5A8.51 8.51 0 0 0 12 3.5z"/></svg>