<svg xmlns="http://www.w3.org/2000/svg" viewBox="0 0 24 24"><path fill="none" d="M24 0v24H0V0" data-name="Bounding area"/><path d="M19.5 6.5v10h-15v-10h15m1-1.5h-17a.5.5 0 0 0-.5.5v12a.5.5 0 0 0 .5.5h17a.5.5 0 0 0 .5-.5v-12a.5.5 0 0 0-.5-.5z"/><path d="M9.166 10.413a1.016 1.016 0 0 1 .863.429.328.328 0 0 0 .27.16h.9c.16 0 .23-.1.2-.23a2.159 2.159 0 0 0-2.223-1.518 2.275 2.275 0 1 0 0 4.544A2.144 2.144 0 0 0 11.4 12.23c.03-.129-.04-.229-.2-.229h-.883a.32.32 0 0 0-.28.179 1.006 1.006 0 0 1-.873.46 1.045 1.045 0 0 1-1.052-1.119 1.041 1.041 0 0 1 1.054-1.108zM16.936 12h-.882a.321.321 0 0 0-.281.179 1 1 0 0 1-.872.46 1.045 1.045 0 0 1-1.053-1.119 1.042 1.042 0 0 1 1.052-1.107 1.013 1.013 0 0 1 .862.429.33.33 0 0 0 .271.16h.9c.161 0 .231-.1.2-.23a2.16 2.16 0 0 0-2.226-1.518 2.275 2.275 0 1 0 0 4.544 2.145 2.145 0 0 0 2.226-1.568c.034-.13-.033-.23-.197-.23z"/></svg>