<svg xmlns="http://www.w3.org/2000/svg" viewBox="0 0 24 24"><path fill="none" d="M24 0v24H0V0" data-name="Bounding area"/><path d="M19.5 6.5v10h-15v-10h15m1-1.5h-17a.5.5 0 0 0-.5.5v12a.5.5 0 0 0 .5.5h17a.5.5 0 0 0 .5-.5v-12a.5.5 0 0 0-.5-.5z"/><path d="M5.5 7.5v8h13v-8zm4.1 4.967a.85.85 0 0 0 .737-.388.269.269 0 0 1 .237-.152h.746c.135 0 .2.085.169.194a1.812 1.812 0 0 1-1.881 1.326 1.923 1.923 0 1 1 0-3.841 1.825 1.825 0 0 1 1.881 1.283c.026.11-.034.194-.169.194h-.76a.278.278 0 0 1-.229-.135.855.855 0 0 0-.728-.363.881.881 0 0 0-.89.937.883.883 0 0 0 .887.945zm4.846 0a.85.85 0 0 0 .738-.388.268.268 0 0 1 .237-.152h.745c.136 0 .2.085.17.194a1.812 1.812 0 0 1-1.881 1.326 1.923 1.923 0 1 1 0-3.841 1.825 1.825 0 0 1 1.881 1.283c.025.11-.034.194-.17.194h-.762a.277.277 0 0 1-.229-.135.856.856 0 0 0-.729-.363.881.881 0 0 0-.889.937.882.882 0 0 0 .892.945z"/></svg>