<svg xmlns="http://www.w3.org/2000/svg" viewBox="0 0 24 24"><defs><style>.cls-1{fill:none}.cls-2{fill:#000}</style></defs><path class="cls-1" d="M24 0v24H0V0" data-name="Bounding area"/><path class="cls-2" d="M11 15.2l-2.88-2.83a.5.5 0 0 1 0-.71l.35-.35a.5.5 0 0 1 .71 0l2.07 2.06 4-4.74a.48.48 0 0 1 .7-.06l.38.32a.49.49 0 0 1 .06.7l-4.7 5.58a.49.49 0 0 1-.69.03z"/><path class="cls-2" d="M18.5 5.5v13h-13v-13h13M4.5 4a.5.5 0 0 0-.5.5v15a.5.5 0 0 0 .5.5h15a.5.5 0 0 0 .5-.5v-15a.5.5 0 0 0-.5-.5z"/></svg>