<svg xmlns="http://www.w3.org/2000/svg" viewBox="0 0 24 24"><defs><style>.cls-1{fill:none}.cls-2{fill:#000}</style></defs><path class="cls-1" d="M24 0v24H0V0" data-name="Bounding area"/><path class="cls-2" d="M20.5 5h-17a.5.5 0 0 0-.5.5V6a.5.5 0 0 0 .5.5h16v10h-4.8a.5.5 0 0 0-.5.5v.5a.5.5 0 0 0 .5.5h5.8a.5.5 0 0 0 .5-.5v-12a.5.5 0 0 0-.5-.5z"/><path class="cls-2" d="M5.62 17.4a2.83 2.83 0 0 0-2-2 .5.5 0 0 0-.6.49v1.61a.51.51 0 0 0 .51.5h1.6a.49.49 0 0 0 .49-.6zm3.31.08a6 6 0 0 0-5.4-5.41.5.5 0 0 0-.53.5v.5a.51.51 0 0 0 .48.5 4.5 4.5 0 0 1 4 4 .52.52 0 0 0 .5.47h.5a.49.49 0 0 0 .45-.56zM3 9.81a.52.52 0 0 0 .49.5 7.7 7.7 0 0 1 7.22 7.21.49.49 0 0 0 .49.48h.5a.51.51 0 0 0 .51-.52 9.2 9.2 0 0 0-8.67-8.67.51.51 0 0 0-.54.5z"/></svg>