<svg xmlns="http://www.w3.org/2000/svg" viewBox="0 0 24 24"><defs><style>.cls-1{fill:none}.cls-2{fill:#000}</style></defs><path class="cls-1" d="M24 0v24H0V0" data-name="Bounding area"/><path class="cls-2" d="M18.5 7.5v9H9.31L5.06 12l4.25-4.5h9.19M8.88 6a.48.48 0 0 0-.36.16l-5.2 5.5a.5.5 0 0 0 0 .68l5.2 5.5a.48.48 0 0 0 .36.16H19.5a.5.5 0 0 0 .5-.5v-11a.5.5 0 0 0-.5-.5z"/><path class="cls-2" d="M15.79 9.86l-.36-.35a.48.48 0 0 0-.7 0l-1.44 1.43-1.43-1.43a.48.48 0 0 0-.7 0l-.36.35a.51.51 0 0 0 0 .71L12.23 12l-1.43 1.43a.51.51 0 0 0 0 .71l.36.35a.48.48 0 0 0 .7 0l1.43-1.43 1.44 1.43a.48.48 0 0 0 .7 0l.36-.35a.51.51 0 0 0 0-.71L14.35 12l1.44-1.43a.51.51 0 0 0 0-.71z"/></svg>