<svg xmlns="http://www.w3.org/2000/svg" viewBox="0 0 24 24"><defs><style>.cls-1{fill:none}.cls-2{fill:#000}</style></defs><path class="cls-1" d="M24 0v24H0V0" data-name="Bounding area"/><path class="cls-2" d="M13.32 6a.5.5 0 0 0-.48.36l-3.08 11a.5.5 0 0 0 .47.67h.46a.52.52 0 0 0 .49-.36l3.07-11a.5.5 0 0 0-.47-.67zM19.73 11.65l-3.39-3.39a.4.4 0 0 0-.28-.12.37.37 0 0 0-.27.11l-.44.44a.36.36 0 0 0-.11.26.44.44 0 0 0 .11.28L18.12 12l-2.77 2.77a.44.44 0 0 0-.11.28.36.36 0 0 0 .11.26l.44.44a.37.37 0 0 0 .27.11.4.4 0 0 0 .28-.12l3.39-3.39a.5.5 0 0 0 0-.7zM4.14 12.35l3.39 3.39a.4.4 0 0 0 .28.12.37.37 0 0 0 .27-.11l.44-.44a.41.41 0 0 0 .11-.26.4.4 0 0 0-.12-.28L5.75 12l2.76-2.77A.4.4 0 0 0 8.63 9a.41.41 0 0 0-.11-.26l-.44-.44a.37.37 0 0 0-.27-.11.4.4 0 0 0-.28.12l-3.39 3.34a.48.48 0 0 0 0 .7z"/></svg>