<svg xmlns="http://www.w3.org/2000/svg" viewBox="0 0 24 24"><defs><style>.cls-1{fill:none}.cls-2{fill:#000}</style></defs><path class="cls-1" d="M24 0v24H0V0" data-name="Bounding area"/><path class="cls-2" d="M7.11 6.5a11.66 11.66 0 0 1 4.32 1.14A14.16 14.16 0 0 0 16.87 9a9.73 9.73 0 0 0 1.61-.14v8.41a6 6 0 0 1-1.61.22 11.66 11.66 0 0 1-4.32-1.14A14.16 14.16 0 0 0 7.11 15a9.63 9.63 0 0 0-1.61.14V6.72a6 6 0 0 1 1.61-.22m0-1.5a7.85 7.85 0 0 0-2.78.52A.51.51 0 0 0 4 6v10.43a.49.49 0 0 0 .66.46 7.93 7.93 0 0 1 2.45-.4c3.54 0 6.22 2.5 9.76 2.5a7.89 7.89 0 0 0 2.78-.52A.53.53 0 0 0 20 18V7.57a.5.5 0 0 0-.66-.47 7.93 7.93 0 0 1-2.45.4C13.32 7.5 10.65 5 7.11 5z"/></svg>