<svg xmlns="http://www.w3.org/2000/svg" viewBox="0 0 24 24"><defs><style>.cls-1{fill:none}.cls-2{fill:#000}</style></defs><path class="cls-1" d="M24 0v24H0V0" data-name="Bounding area"/><path class="cls-2" d="M17.5 10v8.5h-12v-12H14a.5.5 0 0 0 .5-.5v-.5A.5.5 0 0 0 14 5H4.5a.5.5 0 0 0-.5.5v14a.5.5 0 0 0 .5.5h14a.5.5 0 0 0 .5-.5V10a.5.5 0 0 0-.5-.5H18a.5.5 0 0 0-.5.5z"/><path class="cls-2" d="M9.24 14.42l.53-1.61a.29.29 0 0 1 .49-.12l1.05 1.05a.29.29 0 0 1-.11.49l-1.58.56a.29.29 0 0 1-.38-.37z"/><rect class="cls-2" x="10.08" y="7.18" width="12.16" height="1.5" rx=".5" ry=".5" transform="rotate(-45 16.163 7.925)"/></svg>