<svg xmlns="http://www.w3.org/2000/svg" viewBox="0 0 24 24"><path fill="none" d="M24 0v24H0V0" data-name="Bounding area"/><path d="M20.5 4h-14a.5.5 0 0 0-.5.5V5a.5.5 0 0 0 .5.5h13v9a.5.5 0 0 0 .5.5h.5a.5.5 0 0 0 .5-.5v-10a.5.5 0 0 0-.5-.5z"/><path d="M16.006 16.5h-5.19v-1.08a1.632 1.632 0 0 0 1.59-1.6c0-.75-.39-1.16-1.45-1.59l-.69-.25c-.58-.22-.74-.36-.74-.67 0-.35.27-.56.73-.56a.735.735 0 0 1 .75.46.307.307 0 0 0 .28.22h.72c.17 0 .24-.11.21-.24a1.625 1.625 0 0 0-1.4-1.34v-.86h5.19zm-11.5-7.51h5.17v.86a1.529 1.529 0 0 0-1.37 1.49c0 .74.44 1.22 1.45 1.6l.66.24c.58.2.75.36.75.71 0 .38-.32.6-.88.6a.876.876 0 0 1-.92-.59.287.287 0 0 0-.28-.23h-.74c-.17 0-.23.1-.21.23a1.772 1.772 0 0 0 1.54 1.5v1.1h-5.17zm12.5-1.5h-13.5a.508.508 0 0 0-.5.5v9.51a.5.5 0 0 0 .5.5h13.5a.5.5 0 0 0 .5-.5V7.99a.5.5 0 0 0-.5-.5z"/></svg>