<svg xmlns="http://www.w3.org/2000/svg" viewBox="0 0 24 24"><defs><style>.cls-1{fill:none}.cls-2{fill:#000}</style></defs><path class="cls-1" d="M24 0v24H0V0" data-name="Bounding area"/><path class="cls-2" d="M19.59 7.3a.3.3 0 0 0-.3-.3h-1.42a.51.51 0 0 0-.3.1l-3.32 2.53a.32.32 0 0 0-.11.23.29.29 0 0 0 .12.22l.62.49a.5.5 0 0 0 .61 0l4-3.05a.3.3 0 0 0 .1-.22zM19.46 16.47l-9.17-6.89a2.75 2.75 0 0 0-3.41-3.69 2.68 2.68 0 0 0-1.74 1.74 2.76 2.76 0 0 0 2.62 3.62 2.71 2.71 0 0 0 1.58-.51l1.72 1.31-1.66 1.26a2.71 2.71 0 0 0-2.12-.52 2.75 2.75 0 1 0 3 3.78 2.63 2.63 0 0 0 0-2.06l2-1.51 5.27 3.9a.57.57 0 0 0 .31.1h1.41a.3.3 0 0 0 .3-.3.28.28 0 0 0-.11-.23zM7.76 9.75A1.25 1.25 0 1 1 9 8.5a1.25 1.25 0 0 1-1.24 1.25zm0 7A1.25 1.25 0 1 1 9 15.5a1.25 1.25 0 0 1-1.24 1.25z"/></svg>