<svg xmlns="http://www.w3.org/2000/svg" viewBox="0 0 24 24"><g data-name="Bounding area"><path data-name="box" fill="none" d="M24 0v24H0V0"/></g><path d="M17.114 9.455l-.8 8.8H7.685l-.8-8.795A.5.5 0 0 0 6.388 9h-.5a.5.5 0 0 0-.5.545l.887 9.75a.5.5 0 0 0 .5.455h10.453a.5.5 0 0 0 .5-.455l.887-9.75a.5.5 0 0 0-.5-.545h-.5a.5.5 0 0 0-.501.455z"/><path d="M13.25 9.5l-.259 6a.5.5 0 0 0 .5.5h.5a.5.5 0 0 0 .5-.5l.259-6a.5.5 0 0 0-.5-.5h-.5a.5.5 0 0 0-.5.5zM9.25 9.5l.259 6a.5.5 0 0 0 .5.5h.5a.5.5 0 0 0 .5-.5l-.259-6a.5.5 0 0 0-.5-.5h-.5a.5.5 0 0 0-.5.5zM15 5v-.5a.5.5 0 0 0-.5-.5h-5a.5.5 0 0 0-.5.5V5H4.5a.5.5 0 0 0-.5.5V6a.5.5 0 0 0 .5.5h15A.5.5 0 0 0 20 6v-.5a.5.5 0 0 0-.5-.5z"/></svg>