<svg xmlns="http://www.w3.org/2000/svg" viewBox="0 0 24 24"><defs><style>.cls-1{fill:none}.cls-2{fill:#000}</style></defs><path class="cls-1" d="M24 0v24H0V0" data-name="Bounding area"/><path class="cls-2" d="M14 10.5v-3h3.08l1.89 3zm0 4V12h5.5v2.5zm2.53 4.5A1.5 1.5 0 1 1 18 17.5a1.5 1.5 0 0 1-1.47 1.5zm-12-4.5v-9h8v9zm3 4.5A1.5 1.5 0 1 1 9 17.5 1.5 1.5 0 0 1 7.48 19zm0 1.5a3 3 0 0 0 3-3A2.75 2.75 0 0 0 10 16h4a2.81 2.81 0 0 0-.44 1.52 3 3 0 0 0 6 0 2.68 2.68 0 0 0-.48-1.52h1.42a.5.5 0 0 0 .5-.5v-4.33a.61.61 0 0 0-.08-.38l-2.87-4.55a.5.5 0 0 0-.42-.24H14V4.5a.5.5 0 0 0-.5-.5h-10a.5.5 0 0 0-.5.5v11a.5.5 0 0 0 .5.5h1.43a2.69 2.69 0 0 0-.45 1.5 3 3 0 0 0 3.01 3z"/></svg>