<svg xmlns="http://www.w3.org/2000/svg" viewBox="0 0 24 24"><defs><style>.cls-1{fill:none}.cls-2{fill:#000}</style></defs><path class="cls-1" d="M24 0v24H0V0" data-name="Bounding area"/><path class="cls-2" d="M13.5 9a.5.5 0 0 0-.5.5v10a.5.5 0 0 0 .5.5h7a.5.5 0 0 0 .5-.5v-10a.5.5 0 0 0-.5-.5zM17 19a1 1 0 1 1 1-1 1 1 0 0 1-1 1zm2.5-3h-5v-5.5h5z"/><path class="cls-2" d="M10.5 14.5h-5v-8h14A.5.5 0 0 0 20 6v-.5a.5.5 0 0 0-.5-.5h-15a.5.5 0 0 0-.5.5v10a.5.5 0 0 0 .5.5h6a.5.5 0 0 0 .5-.5V15a.5.5 0 0 0-.5-.5z"/><rect class="cls-2" x="7" y="18.5" width="4" height="1.5" rx=".5" ry=".5"/></svg>