<svg xmlns="http://www.w3.org/2000/svg" viewBox="0 0 24 24"><defs><style>.cls-1{fill:none}.cls-2{fill:#000}</style></defs><path class="cls-1" d="M24 0v24H0V0" data-name="Bounding area"/><path class="cls-2" d="M16 19.5v-2a.5.5 0 0 0-.5-.5H15a.5.5 0 0 0-.5.5v1h-9v-9h1A.5.5 0 0 0 7 9v-.5a.5.5 0 0 0-.5-.5h-2a.5.5 0 0 0-.5.5v11a.5.5 0 0 0 .5.5h11a.5.5 0 0 0 .5-.5z"/><path class="cls-2" d="M19.5 4h-10a.5.5 0 0 0-.5.5v10a.5.5 0 0 0 .5.5h10a.5.5 0 0 0 .5-.5v-10a.5.5 0 0 0-.5-.5zm-1 5.75a.5.5 0 0 1-.5.5h-2.75V13a.5.5 0 0 1-.5.5h-.5a.5.5 0 0 1-.5-.5v-2.75H11a.5.5 0 0 1-.5-.5v-.5a.5.5 0 0 1 .5-.5h2.75V6a.5.5 0 0 1 .5-.5h.5a.5.5 0 0 1 .5.5v2.75H18a.5.5 0 0 1 .5.5z"/></svg>