<svg xmlns="http://www.w3.org/2000/svg" viewBox="0 0 24 24"><defs><style>.cls-1{fill:none}.cls-2{fill:#000}</style></defs><path class="cls-1" d="M24 0v24H0V0" data-name="Bounding area"/><path class="cls-2" d="M19.86 16.79l-3.47-3.47 2.18-1.41a.36.36 0 0 0-.09-.65l-6.81-2a.37.37 0 0 0-.46.46l2 6.78a.36.36 0 0 0 .66.08l1.37-2.12 3.48 3.48a.5.5 0 0 0 .71 0l.35-.35a.5.5 0 0 0 .08-.8zM4.5 7.5h1.75v9H4.5a.5.5 0 0 0-.5.5v.5a.5.5 0 0 0 .5.5h5a.5.5 0 0 0 .5-.5V17a.5.5 0 0 0-.5-.5H7.75v-9H9.5A.5.5 0 0 0 10 7v-.5a.5.5 0 0 0-.5-.5h-5a.5.5 0 0 0-.5.5V7a.5.5 0 0 0 .5.5z"/></svg>