<svg xmlns="http://www.w3.org/2000/svg" viewBox="0 0 24 24"><defs><style>.cls-1{fill:none}.cls-2{fill:#000}</style></defs><path class="cls-1" d="M24 0v24H0V0" data-name="Bounding area"/><path class="cls-2" d="M20.73 19.62l-2.52-2.52a4.53 4.53 0 1 0-1.06 1.06l2.52 2.52a.5.5 0 0 0 .7 0l.36-.36a.5.5 0 0 0 0-.7zm-6.18-2.12a3 3 0 1 1 3-3 3 3 0 0 1-3 3z"/><rect class="cls-2" x="4" y="11.25" width="4" height="1.5" rx=".5" ry=".5"/><rect class="cls-2" x="4" y="6" width="15" height="1.5" rx=".5" ry=".5"/><rect class="cls-2" x="4" y="16.5" width="4" height="1.5" rx=".5" ry=".5"/></svg>