<svg xmlns="http://www.w3.org/2000/svg" viewBox="0 0 24 24"><defs><style>.cls-1{fill:none}.cls-2{fill:#000}</style></defs><path class="cls-1" d="M24 0v24H0V0" data-name="Bounding area"/><rect class="cls-2" x="5.01" y="6.5" width="14" height="1.5" rx=".5" ry=".5"/><rect class="cls-2" x="6.92" y="3" width="10.08" height="1.5" rx=".5" ry=".5"/><path class="cls-2" d="M19.5 11.5v8h-15v-8h15M3.5 10a.5.5 0 0 0-.5.5v10a.5.5 0 0 0 .5.5h17a.5.5 0 0 0 .5-.5v-10a.5.5 0 0 0-.5-.5z"/><path id="Fill-3" class="cls-2" d="M10 13.16v4.68a.3.3 0 0 0 .43.27l4.43-2.21a.3.3 0 0 0 0-.53l-4.41-2.47a.3.3 0 0 0-.45.26z"/></svg>