<svg xmlns="http://www.w3.org/2000/svg" viewBox="0 0 24 24"><path fill="none" d="M24 0v24H0V0" data-name="Bounding area"/><path d="M12.75 12.35v-2.6a.5.5 0 0 0-.5-.5h-.5a.5.5 0 0 0-.5.5v2.979a.5.5 0 0 0 .125.331l1.882 2.128a.5.5 0 0 0 .705.044l.375-.332a.5.5 0 0 0 .044-.7z"/><path d="M11.953 19.749h.114a7.3 7.3 0 0 0 7.266-6.157s.009-.063.009-.092a.5.5 0 0 0-.5-.5h-.508a.5.5 0 0 0-.49.425 5.882 5.882 0 0 1-5.778 4.825h-.074a5.776 5.776 0 0 1-5.469-3.857A5.926 5.926 0 0 1 8.263 7.9a6.179 6.179 0 0 1 4.026-1.4h1.857v2.312a.4.4 0 0 0 .683.283l3.034-3.032a.4.4 0 0 0 0-.566l-3.034-3.034a.4.4 0 0 0-.683.283V5h-2.079a7.376 7.376 0 0 0-7.376 7.475 7.473 7.473 0 0 0 7.262 7.274z"/></svg>