<svg xmlns="http://www.w3.org/2000/svg" viewBox="0 0 24 24"><path fill="none" d="M24 0v24H0V0" data-name="Bounding area"/><path d="M12.75 11.465v-2.6a.5.5 0 0 0-.5-.5h-.5a.5.5 0 0 0-.5.5v2.978a.507.507 0 0 0 .125.332l1.882 2.125a.5.5 0 0 0 .705.043l.375-.331a.5.5 0 0 0 .044-.706z"/><path d="M12.193 4.251h-.114a7.3 7.3 0 0 0-7.267 6.157s-.012.062-.012.092a.5.5 0 0 0 .5.5h.508a.5.5 0 0 0 .49-.425 5.882 5.882 0 0 1 5.781-4.825h.074a5.776 5.776 0 0 1 5.469 3.857 5.926 5.926 0 0 1-1.739 6.5 6.181 6.181 0 0 1-4.026 1.393H10v-2.312a.4.4 0 0 0-.683-.283l-3.034 3.032a.4.4 0 0 0 0 .566l3.034 3.034a.4.4 0 0 0 .683-.283V19h2.079a7.376 7.376 0 0 0 7.376-7.475 7.473 7.473 0 0 0-7.262-7.274z"/></svg>