<svg xmlns="http://www.w3.org/2000/svg" viewBox="0 0 24 24"><defs><style>.cls-1{fill:none}.cls-2{fill:#000}</style></defs><path class="cls-1" d="M24 0v24H0V0" data-name="Bounding area"/><path class="cls-2" d="M18.5 14H18a.49.49 0 0 0-.49.5v4h-12v-12h4A.5.5 0 0 0 10 6v-.5a.5.5 0 0 0-.5-.5h-5a.5.5 0 0 0-.5.5v14a.5.5 0 0 0 .5.5h14a.5.5 0 0 0 .5-.5v-5a.5.5 0 0 0-.5-.5z"/><path class="cls-2" d="M18.6 5H13a.4.4 0 0 0-.29.68l2.44 2.43-4.19 4.2a.5.5 0 0 0 0 .71l.35.35a.51.51 0 0 0 .71 0l4.19-4.2 2.14 2.14A.4.4 0 0 0 19 11V5.4a.4.4 0 0 0-.4-.4z"/></svg>