<svg xmlns="http://www.w3.org/2000/svg" viewBox="0 0 24 24"><defs><style>.cls-1{fill:none}.cls-2{fill:#000}</style></defs><path class="cls-1" d="M24 0v24H0V0" data-name="Bounding area"/><path class="cls-2" d="M13.54 12l5.71-4.49v9zm-7 0l5.71-4.49v9zm-1.79 4.25v-8.5h.5v8.5z"/><path class="cls-2" d="M18.5 9.05v5.88L14.76 12l3.74-2.95m-7 0v5.87L7.76 12l3.74-2.94m8-2.58a.46.46 0 0 0-.22.06L13 11.47V7a.5.5 0 0 0-.5-.5.46.46 0 0 0-.22.06L6 11.47v-4A.5.5 0 0 0 5.5 7h-1a.5.5 0 0 0-.5.5v9a.5.5 0 0 0 .5.5h1a.5.5 0 0 0 .5-.5v-4l6.28 4.91a.59.59 0 0 0 .22 0A.5.5 0 0 0 13 17v-4.47l6.28 4.91a.59.59 0 0 0 .22 0A.5.5 0 0 0 20 17V7a.5.5 0 0 0-.5-.5z"/></svg>