<svg xmlns="http://www.w3.org/2000/svg" viewBox="0 0 24 24"><defs><style>.cls-1{fill:none}.cls-2{fill:#000}</style></defs><path class="cls-1" d="M24 0v24H0V0" data-name="Bounding area"/><path class="cls-2" d="M11.75 7.51L17.46 12l-5.71 4.46zm-7 0L10.46 12l-5.71 4.46zm14 8.74v-8.5h.5v8.5z"/><path class="cls-2" d="M12.5 9.05L16.24 12l-3.74 2.93V9.05m-7 0L9.24 12 5.5 14.93V9.05m6-2.57A.5.5 0 0 0 11 7v4.49L4.72 6.54a.46.46 0 0 0-.22-.06A.5.5 0 0 0 4 7v10a.5.5 0 0 0 .5.5.59.59 0 0 0 .22 0L11 12.53V17a.5.5 0 0 0 .5.5.59.59 0 0 0 .22 0L18 12.53v4a.5.5 0 0 0 .5.5h1a.5.5 0 0 0 .5-.5v-9a.5.5 0 0 0-.5-.5h-1a.5.5 0 0 0-.5.5v4l-6.28-4.99a.46.46 0 0 0-.22-.06z"/></svg>