<svg id="export" xmlns="http://www.w3.org/2000/svg" viewBox="0 0 24 24"><defs><style>.cls-1{fill:none}.cls-2{fill:#000}</style></defs><g id="Bounding_area"><path id="box" class="cls-1" d="M24 0v24H0V0"/></g><path class="cls-2" d="M17.09 6.07a.44.44 0 0 0 .42.11l2.29-.56a.5.5 0 0 0 .35-.6l-.42-1.95a.48.48 0 0 0-.57-.37l-3.63.88a.52.52 0 0 0-.21.87zM3.61 9.54l3.53-.86a.51.51 0 0 0 .2-.87L5.53 6.2a.42.42 0 0 0-.41-.11L3 6.62a.5.5 0 0 0-.36.6l.43 2a.46.46 0 0 0 .54.32zM10.12 7.67a.65.65 0 0 0 .58.15L14.08 7a.51.51 0 0 0 .21-.86l-1.7-1.56a.67.67 0 0 0-.59-.14l-3.42.81a.51.51 0 0 0-.2.87zM10.85 10.18l-2 2a.53.53 0 0 0-.14.35.5.5 0 0 0 .5.5h3.49a.47.47 0 0 0 .35-.15l2-2a.51.51 0 0 0 .16-.37.5.5 0 0 0-.5-.5h-3.44a.56.56 0 0 0-.42.17z"/><path class="cls-2" d="M20.54 10h-1.81a.6.6 0 0 0-.43.18l-2 2a.48.48 0 0 0-.14.35.5.5 0 0 0 .5.5h2.84v6.5h-15V13h.79a.51.51 0 0 0 .36-.15l2-2a.51.51 0 0 0 .16-.37.5.5 0 0 0-.5-.5H3.5a.5.5 0 0 0-.5.5v10a.5.5 0 0 0 .5.5h17a.5.5 0 0 0 .5-.5v-10a.49.49 0 0 0-.46-.48z"/></svg>