<svg xmlns="http://www.w3.org/2000/svg" viewBox="0 0 24 24"><defs><style>.cls-1{fill:none}.cls-2{fill:#000}</style></defs><path class="cls-1" d="M24 0v24H0V0" data-name="Bounding area"/><path class="cls-2" d="M9 11a5 5 0 1 0 5 5 5 5 0 0 0-5-5zm2.3 5.68l-2 2.15a.4.4 0 0 1-.57 0l-2-2.15A.4.4 0 0 1 7 16h1.25v-2.5a.5.5 0 0 1 .5-.5h.5a.5.5 0 0 1 .5.5V16H11a.4.4 0 0 1 .3.68z"/><path class="cls-2" d="M14.41 4H6.5a.5.5 0 0 0-.5.5V9a.48.48 0 0 0 .5.48H7A.48.48 0 0 0 7.5 9V5.5H14v3a.5.5 0 0 0 .5.5h3v9.5h-2a.5.5 0 0 0-.5.5v.5a.5.5 0 0 0 .5.5h3a.5.5 0 0 0 .5-.5V8.57a.47.47 0 0 0-.15-.35l-4.08-4.07a.49.49 0 0 0-.36-.15z"/></svg>