<svg xmlns="http://www.w3.org/2000/svg" viewBox="0 0 24 24"><defs><style>.cls-1{fill:none}.cls-2{fill:#000}</style></defs><path class="cls-1" d="M24 0v24H0V0" data-name="Bounding area"/><rect class="cls-2" x="11" y="11.25" width="9" height="1.5" rx=".5" ry=".5"/><rect class="cls-2" x="4" y="6" width="16" height="1.5" rx=".5" ry=".5"/><rect class="cls-2" x="15" y="16.5" width="5" height="1.5" rx=".5" ry=".5"/><path class="cls-2" d="M10.28 15H7.75v-3.5a.5.5 0 0 0-.5-.5h-.5a.5.5 0 0 0-.5.5V15H3.73a.3.3 0 0 0-.22.51l3.14 3.16a.5.5 0 0 0 .71 0l3.13-3.16a.3.3 0 0 0-.21-.51z"/></svg>