<svg xmlns="http://www.w3.org/2000/svg" viewBox="0 0 24 24"><defs><style>.cls-1{fill:none}.cls-2{fill:#000}</style></defs><path class="cls-1" d="M24 0v24H0V0" data-name="Bounding area"/><path class="cls-2" d="M8 11a5 5 0 1 0 5 5 5 5 0 0 0-5-5zm3 5.25a.5.5 0 0 1-.5.5H8.75v1.75a.5.5 0 0 1-.5.5h-.5a.5.5 0 0 1-.5-.5v-1.75H5.5a.5.5 0 0 1-.5-.5v-.5a.5.5 0 0 1 .5-.5h1.75V13.5a.5.5 0 0 1 .5-.5h.5a.5.5 0 0 1 .5.5v1.75h1.75a.5.5 0 0 1 .5.5z"/><path class="cls-2" d="M20.5 7H13l-.87-1.72a.5.5 0 0 0-.49-.28H3.5a.5.5 0 0 0-.5.5V10a.5.5 0 0 0 .5.5H4a.5.5 0 0 0 .5-.5V6.5H11l.87 1.72a.5.5 0 0 0 .44.28h7.19v9H15a.5.5 0 0 0-.5.5v.5a.5.5 0 0 0 .5.5h5.5a.5.5 0 0 0 .5-.5v-11a.5.5 0 0 0-.5-.5z"/></svg>