<svg xmlns="http://www.w3.org/2000/svg" viewBox="0 0 24 24"><defs><style>.cls-1{fill:none}.cls-2{fill:#000}</style></defs><path class="cls-1" d="M24 0v24H0V0" data-name="Bounding area"/><path class="cls-2" d="M19.41 11.5l-2.81 6H6.18l2.82-6h10.41M8.35 10a.49.49 0 0 0-.45.29l-3.81 8.14a.4.4 0 0 0 .36.57h12.79a.49.49 0 0 0 .45-.29l3.81-8.14a.4.4 0 0 0-.36-.57z"/><path class="cls-2" d="M19.5 6.5H14l-.87-1.72a.5.5 0 0 0-.44-.28H4.5A.5.5 0 0 0 4 5v7.55a.29.29 0 0 0 .3.3.3.3 0 0 0 .27-.17l.88-1.89a.5.5 0 0 0 0-.21V6H12l.87 1.72a.5.5 0 0 0 .44.28h6.19a.5.5 0 0 0 .5-.5V7a.5.5 0 0 0-.5-.5z"/></svg>