<svg xmlns="http://www.w3.org/2000/svg" viewBox="0 0 24 24"><defs><style>.cls-1{fill:none}.cls-2{fill:#000}</style></defs><path class="cls-1" d="M24 0v24H0V0" data-name="Bounding area"/><path class="cls-2" d="M3 16a5 5 0 1 0 5-5 5 5 0 0 0-5 5zm5.68-2.3l2.15 2a.4.4 0 0 1 0 .57l-2.15 2A.4.4 0 0 1 8 18v-1.25H5.5a.5.5 0 0 1-.5-.5v-.5a.5.5 0 0 1 .5-.5H8V14a.4.4 0 0 1 .68-.3z"/><path class="cls-2" d="M20.5 7H13l-.87-1.72a.5.5 0 0 0-.49-.28H3.5a.5.5 0 0 0-.5.5V10a.5.5 0 0 0 .5.5H4a.5.5 0 0 0 .5-.5V6.5H11l.87 1.72a.5.5 0 0 0 .44.28h7.19v9H15a.5.5 0 0 0-.5.5v.5a.5.5 0 0 0 .5.5h5.5a.5.5 0 0 0 .5-.5v-11a.5.5 0 0 0-.5-.5z"/></svg>