<svg xmlns="http://www.w3.org/2000/svg" viewBox="0 0 24 24"><path fill="none" d="M24 0v24H0V0" data-name="Bounding area"/><rect x="8" y="11.25" width="12" height="1.5" rx=".5" ry=".5"/><rect x="8" y="6" width="12" height="1.5" rx=".5" ry=".5"/><rect x="8" y="16.5" width="12" height="1.5" rx=".5" ry=".5"/><path d="M6.306 17.9c0 .53-.48.9-1.15.9a1.018 1.018 0 0 1-1.12-.89.155.155 0 0 1 .17-.2h.47c.09 0 .14.06.18.15a.3.3 0 0 0 .58-.1c0-.16-.11-.26-.31-.26h-.09a.2.2 0 0 1-.2-.2v-.2a.209.209 0 0 1 .2-.21h.08c.19 0 .3-.08.3-.25 0-.15-.11-.25-.29-.25a.289.289 0 0 0-.28.17.169.169 0 0 1-.16.13h-.46a.161.161 0 0 1-.18-.2 1.063 1.063 0 0 1 1.13-.84c.64 0 1.07.36 1.07.88a.7.7 0 0 1-.4.66.748.748 0 0 1 .46.71zm-.02-4.88v.32a.209.209 0 0 1-.2.21h-1.85a.218.218 0 0 1-.21-.21v-.1a1.491 1.491 0 0 1 .83-1.19c.45-.28.54-.35.54-.52a.237.237 0 0 0-.25-.27.222.222 0 0 0-.24.18c-.03.1-.09.17-.19.17h-.5c-.13 0-.19-.08-.17-.19a1.033 1.033 0 0 1 1.14-.96.949.949 0 0 1 1.08.98c0 .5-.27.73-.79 1.06a5.4 5.4 0 0 0-.45.31h1.06a.209.209 0 0 1 .2.206zm-.03-5.33v.38a.2.2 0 0 1-.2.2h-1.61a.209.209 0 0 1-.2-.21v-.37a.209.209 0 0 1 .2-.21H4.9V6.066l-.43.14a.211.211 0 0 1-.27-.15l-.08-.32a.2.2 0 0 1 .13-.25l.69-.21a.672.672 0 0 1 .24-.04h.37a.2.2 0 0 1 .2.2v2.04h.3a.218.218 0 0 1 .206.21z"/></svg>