<svg xmlns="http://www.w3.org/2000/svg" viewBox="0 0 24 24"><path fill="none" d="M24 0v24H0V0" data-name="Bounding area"/><path d="M10.372 7.472H15V5.2a.5.5 0 0 1 .853-.354l3.033 3.024a.5.5 0 0 1 0 .706l-3.032 3.052a.5.5 0 0 1-.854-.352v-2.3h-4.628a3.6 3.6 0 0 0-3.662 3.358 3.323 3.323 0 0 0 .939 2.473 3.686 3.686 0 0 0 1.926 1.015.51.51 0 0 1 .425.493v.532a.509.509 0 0 1-.587.5 5 5 0 0 1-2.841-1.493 4.852 4.852 0 0 1-1.362-3.565 5.11 5.11 0 0 1 5.162-4.817z"/><path d="M18.869 16.8a1.468 1.468 0 0 1-1.64 1.47 1.407 1.407 0 0 1-1.54-1.2.191.191 0 0 1 .21-.24h.74a.223.223 0 0 1 .2.15.42.42 0 0 0 .39.23.475.475 0 1 0-.33-.81.213.213 0 0 1-.15.07h-.76a.231.231 0 0 1-.24-.24v-2.01a.231.231 0 0 1 .24-.24h2.42a.231.231 0 0 1 .24.24v.54a.231.231 0 0 1-.24.24h-1.53v.53a1.468 1.468 0 0 1 .64-.14 1.33 1.33 0 0 1 1.35 1.41zm-3.72.53v.62a.231.231 0 0 1-.24.24H12.6a.231.231 0 0 1-.24-.24v-.62a.231.231 0 0 1 .24-.24h.66v-1.96l-.64.2a.235.235 0 0 1-.32-.17l-.14-.53a.234.234 0 0 1 .16-.29l1.05-.33a.852.852 0 0 1 .23-.03h.61a.231.231 0 0 1 .24.24v2.87h.46a.231.231 0 0 1 .239.239z"/></svg>