<svg xmlns="http://www.w3.org/2000/svg" viewBox="0 0 24 24"><path fill="none" d="M24 0v24H0V0" data-name="Bounding area"/><path d="M10.372 7.472H15V5.2a.5.5 0 0 1 .853-.354l3.033 3.024a.5.5 0 0 1 0 .706l-3.032 3.052a.5.5 0 0 1-.854-.352v-2.3h-4.628a3.6 3.6 0 0 0-3.662 3.358 3.323 3.323 0 0 0 .939 2.473 3.686 3.686 0 0 0 1.926 1.015.51.51 0 0 1 .425.493v.532a.509.509 0 0 1-.587.5 5 5 0 0 1-2.841-1.493 4.852 4.852 0 0 1-1.362-3.565 5.11 5.11 0 0 1 5.162-4.817zM15.6 16.7v-1.233a1.506 1.506 0 0 1 1.63-1.567 1.505 1.505 0 0 1 1.621 1.571V16.7a1.5 1.5 0 0 1-1.621 1.57 1.506 1.506 0 0 1-1.63-1.57zm2.051-.024v-1.184c0-.35-.143-.532-.425-.532s-.431.188-.431.532v1.183c0 .344.143.531.431.531s.429-.182.429-.531z"/><path d="M14.019 16.732c.72-.46 1.1-.78 1.1-1.48a1.323 1.323 0 0 0-1.5-1.36 1.449 1.449 0 0 0-1.59 1.28.268.268 0 0 0 .3.32h.6a.3.3 0 0 0 .3-.24.315.315 0 0 1 .33-.24.327.327 0 0 1 .35.37c0 .24-.13.33-.75.73a2.016 2.016 0 0 0-1.15 1.64v.14a.278.278 0 0 0 .3.3h2.54a.278.278 0 0 0 .3-.3v-.42a.278.278 0 0 0-.3-.3h-1.46a5.41 5.41 0 0 1 .63-.44z"/></svg>