<svg xmlns="http://www.w3.org/2000/svg" viewBox="0 0 24 24"><defs><style>.cls-1{fill:none}.cls-2{fill:#000}</style></defs><path class="cls-1" d="M24 0v24H0V0" data-name="Bounding area"/><path class="cls-2" d="M4.5 9.5v-3h5A.5.5 0 0 0 10 6v-.5a.5.5 0 0 0-.5-.5h-6a.5.5 0 0 0-.5.5v4a.5.5 0 0 0 .5.5H4a.5.5 0 0 0 .5-.5zM14.5 6.5h5v3a.5.5 0 0 0 .5.5h.5a.5.5 0 0 0 .5-.5v-4a.5.5 0 0 0-.5-.5h-6a.5.5 0 0 0-.5.5V6a.5.5 0 0 0 .5.5zM19.5 13.5v3h-5a.5.5 0 0 0-.5.5v.5a.5.5 0 0 0 .5.5h6a.5.5 0 0 0 .5-.5v-4a.5.5 0 0 0-.5-.5H20a.5.5 0 0 0-.5.5zM9.5 16.5h-5v-3A.5.5 0 0 0 4 13h-.5a.5.5 0 0 0-.5.5v4a.5.5 0 0 0 .5.5h6a.5.5 0 0 0 .5-.5V17a.5.5 0 0 0-.5-.5z"/></svg>