<svg xmlns="http://www.w3.org/2000/svg" viewBox="0 0 24 24"><defs><style>.cls-1{fill:none}.cls-2{fill:#000}</style></defs><path class="cls-1" d="M24 0v24H0V0" data-name="Bounding area"/><path class="cls-2" d="M15.5 18.5v-3h5a.5.5 0 0 0 .5-.5v-.5a.5.5 0 0 0-.5-.5h-6a.5.5 0 0 0-.5.5v4a.5.5 0 0 0 .5.5h.5a.5.5 0 0 0 .5-.5zM3.5 15.5h5v3a.5.5 0 0 0 .5.5h.5a.5.5 0 0 0 .5-.5v-4a.5.5 0 0 0-.5-.5h-6a.5.5 0 0 0-.5.5v.5a.5.5 0 0 0 .5.5zM8.5 5.5v3h-5A.5.5 0 0 0 3 9v.5a.5.5 0 0 0 .5.5h6a.5.5 0 0 0 .5-.5v-4a.5.5 0 0 0-.5-.5H9a.5.5 0 0 0-.5.5zM20.5 8.5h-5v-3A.5.5 0 0 0 15 5h-.5a.5.5 0 0 0-.5.5v4a.5.5 0 0 0 .5.5h6a.5.5 0 0 0 .5-.5V9a.5.5 0 0 0-.5-.5z"/></svg>