<svg id="export" xmlns="http://www.w3.org/2000/svg" viewBox="0 0 67 24"><defs><style>.cls-1{fill:#a6a5a5}.cls-2{fill:none}.cls-3{fill:#fff}.cls-4{fill:#5bc8f3}.cls-5{fill:url(#linear-gradient)}.Graphic-Style-3{fill:url(#linear-gradient-2)}.cls-6{fill:url(#linear-gradient-3)}</style><linearGradient id="linear-gradient" x1="17" y1="12.13" x2="6.12" y2="12.13" gradientUnits="userSpaceOnUse"><stop offset="0" stop-color="#ffdf00"/><stop offset=".41" stop-color="#fbbc0e"/><stop offset=".78" stop-color="#f9a418"/><stop offset="1" stop-color="#f89b1c"/></linearGradient><linearGradient id="linear-gradient-2" x1="14.17" y1="13.17" x2="3.94" y2="23.4" gradientUnits="userSpaceOnUse"><stop offset="0" stop-color="#ee4447"/><stop offset="1" stop-color="#c5166c"/></linearGradient><linearGradient id="linear-gradient-3" x1="3.89" y1=".82" x2="12.25" y2="9.18" gradientUnits="userSpaceOnUse"><stop offset="0" stop-color="#269e6f"/><stop offset=".05" stop-color="#2ba06f"/><stop offset=".47" stop-color="#53b26b"/><stop offset=".8" stop-color="#6bbd69"/><stop offset="1" stop-color="#74c168"/></linearGradient></defs><rect x="3.16" y="3.15" width="60.7" height="17.7" rx="1.85" ry="1.85"/><path class="cls-1" d="M62.006 3.3a1.7 1.7 0 0 1 1.7 1.7v14a1.7 1.7 0 0 1-1.7 1.7h-57a1.7 1.7 0 0 1-1.7-1.7V5a1.7 1.7 0 0 1 1.7-1.7h57m0-.3h-57a2 2 0 0 0-2 2v14a2 2 0 0 0 2 2h57a2 2 0 0 0 2-2V5a2 2 0 0 0-2-2z"/><g id="Bounding_area" data-name="Bounding area"><path id="box" class="cls-2" d="M24 0v24H0V0"/></g><path class="cls-3" d="M23.017 9.158a1.421 1.421 0 0 0 1.071-.433 1.331 1.331 0 0 0 .369-.981 1.269 1.269 0 0 0-.021-.223l-.017-.093H22.9v.55h.964a.68.68 0 0 1-.177.354.963.963 0 0 1-1.334 0 .919.919 0 0 1-.276-.7.93.93 0 0 1 .936-.966.8.8 0 0 1 .653.28l.078.094.4-.4-.066-.079a1.237 1.237 0 0 0-.464-.333 1.509 1.509 0 0 0-.6-.122A1.5 1.5 0 0 0 21.5 7.635a1.5 1.5 0 0 0 1.516 1.523zM26.531 8.541h-1.23v-.632h1.109V7.36h-1.109v-.631h1.23v-.557h-1.802v2.926h1.802v-.557zM27.994 9.098V6.729h.754v-.557h-2.081v.557h.754v2.369h.573zM29.86 6.17h.57V9.1h-.57zM31.976 9.098V6.729h.754v-.557h-2.08v.557h.753v2.369h.573zM35.139 9.158a1.442 1.442 0 0 0 1.071-.444 1.565 1.565 0 0 0 0-2.157 1.509 1.509 0 0 0-2.138 0 1.571 1.571 0 0 0 0 2.159 1.44 1.44 0 0 0 1.067.442zm-.921-1.523a.941.941 0 0 1 .268-.7.926.926 0 0 1 1.307 0 1.038 1.038 0 0 1 0 1.392.926.926 0 0 1-1.307 0 .944.944 0 0 1-.268-.692zM37.472 7.3l-.003-.13 1.202 1.928h.537V6.172h-.571v1.696l.003.13-1.141-1.826h-.597v2.926h.57V7.3zM24.49 13.51v.812h1.943a1.693 1.693 0 0 1-.442 1.022 1.989 1.989 0 0 1-1.5.6 2.161 2.161 0 0 1 0-4.321 2.072 2.072 0 0 1 1.465.58l.572-.573a2.829 2.829 0 0 0-2.037-.819 2.973 2.973 0 1 0 0 5.945 2.717 2.717 0 0 0 2.074-.834 2.685 2.685 0 0 0 .7-1.9 2.648 2.648 0 0 0-.044-.508zM48.818 11.009h-2.012v5.626h.839V14.5h1.173a1.75 1.75 0 1 0 0-3.494zm.021 2.711h-1.194v-1.928h1.194a.964.964 0 1 1 0 1.928zM44.878 14.141a1.778 1.778 0 0 0-1.638-1.218 1.819 1.819 0 0 0-1.8 1.914 1.873 1.873 0 0 0 1.9 1.914 1.9 1.9 0 0 0 1.595-.849l-.652-.435a1.1 1.1 0 0 1-.943.53.974.974 0 0 1-.928-.58l2.559-1.059zm-2.609.638a1.049 1.049 0 0 1 1-1.117.741.741 0 0 1 .71.406zM54.028 12.913a1.576 1.576 0 0 0-1.5.861l.746.311a.8.8 0 0 1 .767-.413.809.809 0 0 1 .883.724v.058a1.857 1.857 0 0 0-.876-.217c-.8 0-1.621.441-1.621 1.267a1.3 1.3 0 0 0 1.4 1.237 1.185 1.185 0 0 0 1.071-.55h.029v.434h.81v-2.156a1.543 1.543 0 0 0-1.709-1.556zM53.927 16c-.275 0-.659-.138-.659-.478 0-.434.478-.6.891-.6a1.5 1.5 0 0 1 .767.188 1.019 1.019 0 0 1-.999.89zM51.13 11.01h.84v5.63h-.84zM29.476 12.923a1.914 1.914 0 1 0 1.924 1.914 1.887 1.887 0 0 0-1.924-1.914zm0 3.074a1.163 1.163 0 1 1 1.08-1.16A1.108 1.108 0 0 1 29.476 16zM58.689 13.036l-.963 2.439h-.028l-.999-2.439h-.905l1.498 3.408-.854 1.896h.876l2.309-5.304h-.934zM33.667 12.923a1.914 1.914 0 1 0 1.921 1.914 1.887 1.887 0 0 0-1.921-1.914zm0 3.074a1.163 1.163 0 1 1 1.08-1.16A1.108 1.108 0 0 1 33.667 16zM40.19 11.01h.84v5.63h-.84zM38.811 13.351h-.029a1.327 1.327 0 0 0-1.008-.428 1.916 1.916 0 0 0 0 3.828 1.306 1.306 0 0 0 1.008-.435h.029v.275a.981.981 0 0 1-1.023 1.124 1.06 1.06 0 0 1-.964-.682l-.732.3a1.824 1.824 0 0 0 1.7 1.131 1.75 1.75 0 0 0 1.82-1.994v-3.431h-.8zM37.846 16a1.164 1.164 0 0 1 0-2.32 1.079 1.079 0 0 1 1.023 1.167A1.07 1.07 0 0 1 37.846 16z"/><path class="cls-4" d="M7.7 6.531a.9.9 0 0 0-.208.632v9.944a.9.9 0 0 0 .208.631l.033.033 5.57-5.571v-.131L7.735 6.5z"/><path class="cls-5" d="M15.162 14.058L13.305 12.2v-.131l1.857-1.857.042.024 2.2 1.25a.682.682 0 0 1 0 1.3l-2.2 1.25z"/><path class="Graphic-Style-3" d="M15.2 14.034l-1.9-1.9-5.6 5.6a.731.731 0 0 0 .934.028l6.566-3.728"/><path class="cls-6" d="M15.2 10.236L8.636 6.5a.731.731 0 0 0-.934.027l5.6 5.6z"/></svg>