<svg xmlns="http://www.w3.org/2000/svg" viewBox="0 0 24 24"><defs><style>.cls-1{fill:none}.cls-2{fill:#000}</style></defs><path class="cls-1" d="M24 0v24H0V0" data-name="Bounding area"/><path class="cls-2" d="M12.75 12.1V9.5a.5.5 0 0 0-.5-.5h-.5a.5.5 0 0 0-.5.5v3a.46.46 0 0 0 .13.33l1.88 2.13a.5.5 0 0 0 .7 0l.38-.33a.51.51 0 0 0 0-.71z"/><path class="cls-2" d="M19.75 12.14v.11a7.31 7.31 0 0 1-6.16 7.27h-.09A.5.5 0 0 1 13 19v-.51a.5.5 0 0 1 .43-.49 5.88 5.88 0 0 0 4.82-5.78v-.07a5.78 5.78 0 0 0-3.86-5.47A5.91 5.91 0 0 0 7.9 8.45a6.16 6.16 0 0 0-1.4 4v1.86h2.31a.4.4 0 0 1 .29.69l-3 3a.4.4 0 0 1-.56 0l-3-3a.4.4 0 0 1 .29-.68H5v-2.07a7.37 7.37 0 0 1 7.47-7.37 7.47 7.47 0 0 1 7.28 7.26z"/></svg>