<svg xmlns="http://www.w3.org/2000/svg" viewBox="0 0 24 24"><defs><style>.cls-1{fill:none}.cls-2{fill:#000}</style></defs><path class="cls-1" d="M24 0v24H0V0" data-name="Bounding area"/><path class="cls-2" d="M17 6.06V4.5a.5.5 0 0 0-.5-.5h-9a.5.5 0 0 0-.5.5v1.56c0 2.68 1.77 4.17 3.67 5.49-1.89 1.35-3.67 3-3.67 6v1.95a.5.5 0 0 0 .5.5h9a.5.5 0 0 0 .5-.5v-1.94c0-3-1.78-4.66-3.67-6 1.9-1.33 3.67-2.82 3.67-5.5zM15.36 16.5H8.65c.39-1.82 1.77-3 3.35-4.05 1.58 1.09 3 2.23 3.36 4.05zM12 10.64c-1.9-1.29-3.5-2.45-3.5-4.58v-.55h7v.55c0 2.13-1.6 3.29-3.5 4.58z"/></svg>