<svg xmlns="http://www.w3.org/2000/svg" viewBox="0 0 24 24"><defs><style>.cls-1{fill:none}.cls-2{fill:#000}</style></defs><path class="cls-1" d="M24 0v24H0V0" data-name="Bounding area"/><path class="cls-2" d="M17 6.44V4.5a.5.5 0 0 0-.5-.5h-9a.5.5 0 0 0-.5.5v1.94c0 3 1.78 4.66 3.67 6C8.77 13.77 7 15.26 7 17.94v1.56a.5.5 0 0 0 .5.5h9a.5.5 0 0 0 .5-.5v-1.56c0-2.68-1.77-4.17-3.67-5.49C15.22 11.1 17 9.41 17 6.44zM8.5 5.5h7v.94a4.82 4.82 0 0 1-.35 1.81H8.86a4.63 4.63 0 0 1-.36-1.81zm7 12.44v.55h-7v-.55c0-2.13 1.6-3.29 3.5-4.58 1.9 1.29 3.5 2.45 3.5 4.58z"/></svg>