<svg xmlns="http://www.w3.org/2000/svg" viewBox="0 0 24 24"><defs><style>.cls-1{fill:none}.cls-2{fill:#000}</style></defs><path class="cls-1" d="M24 0v24H0V0" data-name="Bounding area"/><path class="cls-2" d="M19.5 6.5v11h-15v-11h15M3.5 5a.5.5 0 0 0-.5.5v13a.5.5 0 0 0 .5.5h17a.5.5 0 0 0 .5-.5v-13a.5.5 0 0 0-.5-.5z"/><path class="cls-2" d="M13.82 11.11L11.14 15l-1.82-2.65a.24.24 0 0 0-.39 0L7 15.13a.23.23 0 0 0 .19.37h9.6a.23.23 0 0 0 .19-.37l-2.78-4a.24.24 0 0 0-.38-.02zM10.83 10.83a1.17 1.17 0 1 0-1.16-1.16 1.16 1.16 0 0 0 1.16 1.16z"/></svg>