<svg xmlns="http://www.w3.org/2000/svg" viewBox="0 0 24 24"><defs><style>.cls-1{fill:none}.cls-2{fill:#000}</style></defs><path class="cls-1" d="M24 0v24H0V0" data-name="Bounding area"/><path class="cls-2" d="M11 19.25a6.16 6.16 0 0 1-.95-.07A6.33 6.33 0 0 1 4.82 14a6.22 6.22 0 0 1 4.43-7v6.5a1.25 1.25 0 0 0 1.25 1.25H17a6.21 6.21 0 0 1-6 4.5z"/><path class="cls-2" d="M8.5 8.1v5.4a2 2 0 0 0 2 2h5.4a5.47 5.47 0 0 1-4.9 3 5.93 5.93 0 0 1-.84-.06A5.5 5.5 0 0 1 8.5 8.1m1-1.92h-.1a7 7 0 0 0 .53 13.73A7.68 7.68 0 0 0 11 20a7 7 0 0 0 6.81-5.41.5.5 0 0 0-.49-.59H10.5a.5.5 0 0 1-.5-.5V6.68a.5.5 0 0 0-.49-.5z"/><path class="cls-2" d="M12.75 11.25V4.79a7.26 7.26 0 0 1 6.46 6.46z"/><path class="cls-2" d="M13.5 5.67a6.56 6.56 0 0 1 4.83 4.83H13.5V5.67M12.49 4a.5.5 0 0 0-.49.5v7a.5.5 0 0 0 .5.5h7a.5.5 0 0 0 .5-.52A8 8 0 0 0 12.52 4z"/></svg>