<svg xmlns="http://www.w3.org/2000/svg" viewBox="0 0 24 24"><defs><style>.cls-1{fill:none}.cls-2{fill:#000}</style></defs><path class="cls-1" d="M24 0v24H0V0" data-name="Bounding area"/><path class="cls-2" d="M8.48 8.5v8A.5.5 0 0 0 9 17h5.91l3.6 3.51a.3.3 0 0 0 .51-.22V17h1.5a.5.5 0 0 0 .5-.5v-8a.5.5 0 0 0-.5-.5H9a.5.5 0 0 0-.52.5zm11 7H18a.5.5 0 0 0-.5.5v1.5l-1.86-1.85a.47.47 0 0 0-.35-.15H10v-6h9.5z"/><path class="cls-2" d="M15.5 3h-12a.5.5 0 0 0-.5.5v8a.5.5 0 0 0 .5.5H5v3.11a.31.31 0 0 0 .3.31.33.33 0 0 0 .26-.14l.83-1A.51.51 0 0 0 6.5 14v-3a.5.5 0 0 0-.5-.5H4.5v-6h10v1a.5.5 0 0 0 .5.5h.5a.5.5 0 0 0 .5-.5v-2a.5.5 0 0 0-.5-.5z"/></svg>