<svg xmlns="http://www.w3.org/2000/svg" viewBox="0 0 24 24"><defs><style>.cls-1{fill:none;}.cls-2{fill:#000;}</style></defs><g data-name="Bounding area"><polyline class="cls-1" points="24 0 24 24 0 24 0 0"/></g><path class="cls-2" d="M7.45,20h9.1a.5.5,0,0,0,.41-.78L12.41,12.6a.5.5,0,0,0-.82,0L7,19.22A.5.5,0,0,0,7.45,20Z"/><path class="cls-2" d="M20.5,5H3.5a.5.5,0,0,0-.5.5v11a.5.5,0,0,0,.5.5H5.74a.51.51,0,0,0,.39-.19l.42-.54A.51.51,0,0,0,6.64,16a.5.5,0,0,0-.5-.5H4.5v-9h15v9H17.78a.5.5,0,0,0-.5.5.48.48,0,0,0,.09.26l.35.52a.48.48,0,0,0,.41.22H20.5a.5.5,0,0,0,.5-.5V5.5A.5.5,0,0,0,20.5,5Z"/></svg>