<svg xmlns="http://www.w3.org/2000/svg" viewBox="0 0 24 24"><defs><style>.cls-1{fill:none;}.cls-2{fill:#000;}</style></defs><g data-name="Bounding area"><polyline class="cls-1" points="24 0 24 24 0 24 0 0"/></g><path class="cls-2" d="M19.3,13h1.37a.3.3,0,0,0,.24-.47l-1.44-2.07a.25.25,0,0,0-.47.15V12.7A.29.29,0,0,0,19.3,13ZM13,9.3a1,1,0,1,0-1-1A1,1,0,0,0,13,9.3ZM8.5,16.5V5.5h7v3L13,12l-.91-1.31a.29.29,0,0,0-.49,0l-1.27,1.83a.3.3,0,0,0,.24.47H15.5v3.5ZM3.34,13H4.7a.29.29,0,0,0,.3-.3V10.61a.25.25,0,0,0-.47-.15L3.09,12.53A.3.3,0,0,0,3.34,13ZM7.5,18h9a.5.5,0,0,0,.5-.5V4.5a.5.5,0,0,0-.5-.5h-9a.5.5,0,0,0-.5.5v13A.5.5,0,0,0,7.5,18Z"/></svg>