<svg xmlns="http://www.w3.org/2000/svg" viewBox="0 0 24 24"><defs><style>.cls-1{fill:none;}.cls-2{fill:#000;}</style></defs><g data-name="Bounding area"><polyline class="cls-1" points="24 0 24 24 0 24 0 0"/></g><rect class="cls-2" x="11.47" y="8.79" width="1.5" height="1.53" rx="0.5" ry="0.5" transform="translate(-3.18 11.44) rotate(-45)"/><rect class="cls-2" x="13.59" y="10.91" width="1.5" height="1.53" rx="0.5" ry="0.5" transform="translate(-4.05 13.58) rotate(-45.08)"/><path class="cls-2" d="M5.41,15.72a.51.51,0,0,0,.58.09,1.38,1.38,0,0,1,.71-.19A1.46,1.46,0,0,1,8,17.81a.48.48,0,0,0,.1.57l2.15,2.15a.51.51,0,0,0,.71,0L20.45,11a.51.51,0,0,0,0-.71L18.34,8.19a.49.49,0,0,0-.59-.09,1.46,1.46,0,0,1-2-2,.49.49,0,0,0-.09-.59L13.58,3.43a.5.5,0,0,0-.71,0L3.35,13a.5.5,0,0,0,0,.7ZM13.23,5.19l.91.91A3,3,0,0,0,17,9.81a2.65,2.65,0,0,0,.74-.11l.94,1-8.11,8.11L9.76,18a.54.54,0,0,1-.13-.44A3,3,0,0,0,8.8,15h0A2.93,2.93,0,0,0,6,14.21l-.9-.91Z"/></svg>