<svg id="32c463b9-ebca-4a50-8f39-34e20378d083"   xmlns="http://www.w3.org/2000/svg" viewBox="0 0 24 24"> <g id="7c0632b0-f58f-486e-8c56-31217ad194ee" data-name="Bounding area"><polyline id="831cec27-bb15-4851-a567-5ccd39244dfd"   points="24 0 24 24 0 24 0 0" fill="none"/></g><rect x="10" y="4" width="4" height="1.5" rx="0.5" ry="0.5" fill="#000"/><path d="M16,4.5V5a.5.5,0,0,0,.5.5h2v13H5.5V5.5h2A.5.5,0,0,0,8,5V4.5A.5.5,0,0,0,7.5,4h-3a.5.5,0,0,0-.5.5v15a.5.5,0,0,0,.5.5h15a.5.5,0,0,0,.5-.5V4.5a.5.5,0,0,0-.5-.5h-3A.5.5,0,0,0,16,4.5Z" fill="#000"/><path d="M15.979,13.509v.649a.319.319,0,0,1-.325.325h-2.64a.319.319,0,0,1-.324-.325v-.649a.318.318,0,0,1,.324-.324h.736v-2.3l-.725.227a.314.314,0,0,1-.411-.227l-.151-.562a.316.316,0,0,1,.216-.379l1.277-.389a.666.666,0,0,1,.205-.033h.671a.319.319,0,0,1,.325.325v3.343h.5A.319.319,0,0,1,15.979,13.509Zm-4.23-.422c0,.887-.779,1.493-1.872,1.493a1.681,1.681,0,0,1-1.85-1.493.235.235,0,0,1,.238-.292h.822a.311.311,0,0,1,.282.217.5.5,0,0,0,.962-.141c0-.271-.184-.433-.508-.433H9.65a.3.3,0,0,1-.3-.3v-.389a.3.3,0,0,1,.3-.3H9.8c.314,0,.5-.141.5-.4s-.184-.412-.476-.412a.446.446,0,0,0-.454.282.315.315,0,0,1-.282.205H8.276a.234.234,0,0,1-.238-.292A1.726,1.726,0,0,1,9.9,9.42c1.049,0,1.752.573,1.752,1.428a1.138,1.138,0,0,1-.66,1.092A1.218,1.218,0,0,1,11.749,13.087Z" fill="#000"/></svg>