<svg xmlns="http://www.w3.org/2000/svg" viewBox="0 0 24 24"><defs><style>.cls-1{fill:none;}.cls-2{fill:#000;}</style></defs><g data-name="Bounding area"><polyline class="cls-1" points="24 0 24 24 0 24 0 0"/></g><path class="cls-2" d="M18.5,7.5v9H9.31L5.06,12,9.31,7.5H18.5M8.88,6a.48.48,0,0,0-.36.16l-5.2,5.5a.5.5,0,0,0,0,.68l5.2,5.5a.48.48,0,0,0,.36.16H19.5a.5.5,0,0,0,.5-.5V6.5a.5.5,0,0,0-.5-.5Z"/><path class="cls-2" d="M15.79,9.86l-.36-.35a.48.48,0,0,0-.7,0l-1.44,1.43L11.86,9.51a.48.48,0,0,0-.7,0l-.36.35a.51.51,0,0,0,0,.71L12.23,12,10.8,13.43a.51.51,0,0,0,0,.71l.36.35a.48.48,0,0,0,.7,0l1.43-1.43,1.44,1.43a.48.48,0,0,0,.7,0l.36-.35a.51.51,0,0,0,0-.71L14.35,12l1.44-1.43A.51.51,0,0,0,15.79,9.86Z"/></svg>