<svg id="bd22fc19-120e-4f0b-b04c-a81de6eedae5" xmlns="http://www.w3.org/2000/svg" viewBox="0 0 24 24"><g id="be5073e4-48a3-442e-8707-943c945cf9b7" data-name="Bounding area"><polyline id="3ca4fe52-1139-4dc6-9c37-ddd4cb97e9a3" data-name="box" points="24 0 24 24 0 24 0 0" fill="none"/></g><path d="M16,19.5v-2a.5.5,0,0,0-.5-.5H15a.5.5,0,0,0-.5.5v1h-9v-9h1A.5.5,0,0,0,7,9V8.5A.5.5,0,0,0,6.5,8h-2a.5.5,0,0,0-.5.5v11a.5.5,0,0,0,.5.5h11A.5.5,0,0,0,16,19.5Z" fill="#000"/><path d="M19.5,4H9.5a.5.5,0,0,0-.5.5v10a.5.5,0,0,0,.5.5h10a.5.5,0,0,0,.5-.5V4.5A.5.5,0,0,0,19.5,4Zm-5.342,8.652-.033.032a1.749,1.749,0,0,1-1.25.512,2.1,2.1,0,0,1-1.461-.625,1.914,1.914,0,0,1-.121-2.719l1.6-1.6a1.757,1.757,0,0,1,2.353-.1.314.314,0,0,1,.025.52l-.3.316a.389.389,0,0,1-.5.065.535.535,0,0,0-.7.033l-1.628,1.628a.716.716,0,0,0,.122,1,.711.711,0,0,0,.982.122l.1-.089a.207.207,0,0,1,.244.056l.56.552A.2.2,0,0,1,14.158,12.652ZM17.7,9.146l-1.612,1.612a1.642,1.642,0,0,1-1.193.487,1.954,1.954,0,0,1-1.161-.389c-.179-.13-.2-.317-.016-.52l.292-.316a.387.387,0,0,1,.5-.065.533.533,0,0,0,.7-.033l1.637-1.637a.706.706,0,0,0-.122-.99.842.842,0,0,0-.568-.276.568.568,0,0,0-.414.146l-.016.017a.2.2,0,0,1-.3,0l-.568-.552a.2.2,0,0,1,0-.3l.017-.016a1.767,1.767,0,0,1,1.339-.5,2.044,2.044,0,0,1,1.371.625A1.9,1.9,0,0,1,17.7,9.146Z" fill="#000"/></svg>