<svg xmlns="http://www.w3.org/2000/svg" viewBox="0 0 24 24"><defs><style>.cls-1{fill:none;}.cls-2{fill:#000;}</style></defs><g data-name="Bounding area"><polyline class="cls-1" points="24 0 24 24 0 24 0 0"/></g><path class="cls-2" d="M17.5,10v8.5H5.5V6.5H14a.5.5,0,0,0,.5-.5V5.5A.5.5,0,0,0,14,5H4.5a.5.5,0,0,0-.5.5v14a.5.5,0,0,0,.5.5h14a.5.5,0,0,0,.5-.5V10a.5.5,0,0,0-.5-.5H18A.5.5,0,0,0,17.5,10Z"/><path class="cls-2" d="M9.24,14.42l.53-1.61a.29.29,0,0,1,.49-.12l1.05,1.05a.29.29,0,0,1-.11.49l-1.58.56A.29.29,0,0,1,9.24,14.42Z"/><rect class="cls-2" x="10.08" y="7.18" width="12.16" height="1.5" rx="0.5" ry="0.5" transform="translate(-0.87 13.75) rotate(-45)"/></svg>