<svg xmlns="http://www.w3.org/2000/svg" viewBox="0 0 24 24"><defs><style>.cls-1{fill:none;}.cls-2{fill:#000;}</style></defs><g data-name="Bounding area"><polyline class="cls-1" points="24 0 24 24 0 24 0 0"/></g><path class="cls-2" d="M19.59,7.3a.3.3,0,0,0-.3-.3H17.87a.51.51,0,0,0-.3.1L14.25,9.63a.32.32,0,0,0-.11.23.29.29,0,0,0,.12.22l.62.49a.5.5,0,0,0,.61,0l4-3.05A.3.3,0,0,0,19.59,7.3Z"/><path class="cls-2" d="M19.46,16.47,10.29,9.58A2.75,2.75,0,0,0,6.88,5.89,2.68,2.68,0,0,0,5.14,7.63a2.76,2.76,0,0,0,2.62,3.62,2.71,2.71,0,0,0,1.58-.51l1.72,1.31L9.4,13.31a2.71,2.71,0,0,0-2.12-.52,2.75,2.75,0,1,0,3,3.78,2.63,2.63,0,0,0,0-2.06l2-1.51,5.27,3.9a.57.57,0,0,0,.31.1h1.41a.3.3,0,0,0,.3-.3A.28.28,0,0,0,19.46,16.47ZM7.76,9.75A1.25,1.25,0,1,1,9,8.5,1.25,1.25,0,0,1,7.76,9.75Zm0,7A1.25,1.25,0,1,1,9,15.5,1.25,1.25,0,0,1,7.76,16.75Z"/></svg>