<svg xmlns="http://www.w3.org/2000/svg" viewBox="0 0 24 24"><defs><style>.cls-1{fill:none;}.cls-2{fill:#000;}</style></defs><g data-name="Bounding area"><polyline class="cls-1" points="24 0 24 24 0 24 0 0"/></g><path class="cls-2" d="M10,10.25,8,15.7a.27.27,0,0,0,.34.34l5.46-1.91a.45.45,0,0,0,.27-.27L16,8.41a.26.26,0,0,0-.34-.34L10.22,10A.44.44,0,0,0,10,10.25Zm2.08,3a1.17,1.17,0,1,1,1.17-1.17A1.17,1.17,0,0,1,12,13.22Z"/><path class="cls-2" d="M12,5a7,7,0,1,1-7,7,7,7,0,0,1,7-7m0-1.5A8.5,8.5,0,1,0,20.5,12,8.51,8.51,0,0,0,12,3.5Z"/></svg>