<svg xmlns="http://www.w3.org/2000/svg" viewBox="0 0 24 24"><defs><style>.cls-1{fill:none;}.cls-2{fill:#000;}</style></defs><g data-name="Bounding area"><polyline class="cls-1" points="24 0 24 24 0 24 0 0"/></g><path class="cls-2" d="M19.86,16.79l-3.47-3.47,2.18-1.41a.36.36,0,0,0-.09-.65l-6.81-2a.37.37,0,0,0-.46.46l2,6.78a.36.36,0,0,0,.66.08l1.37-2.12,0,0,3.48,3.48a.5.5,0,0,0,.71,0l.35-.35A.5.5,0,0,0,19.86,16.79Z"/><path class="cls-2" d="M4.5,7.5H6.25v9H4.5A.5.5,0,0,0,4,17v.5a.5.5,0,0,0,.5.5h5a.5.5,0,0,0,.5-.5V17a.5.5,0,0,0-.5-.5H7.75v-9H9.5A.5.5,0,0,0,10,7V6.5A.5.5,0,0,0,9.5,6h-5a.5.5,0,0,0-.5.5V7A.5.5,0,0,0,4.5,7.5Z"/></svg>