<svg xmlns="http://www.w3.org/2000/svg" viewBox="0 0 24 24"><defs><style>.cls-1{fill:none;}.cls-2{fill:#000;}</style></defs><g data-name="Bounding area"><polyline class="cls-1" points="24 0 24 24 0 24 0 0"/></g><path class="cls-2" d="M20.73,19.62,18.21,17.1a4.53,4.53,0,1,0-1.06,1.06l2.52,2.52a.5.5,0,0,0,.7,0l.36-.36A.5.5,0,0,0,20.73,19.62ZM14.55,17.5a3,3,0,1,1,3-3A3,3,0,0,1,14.55,17.5Z"/><rect class="cls-2" x="4" y="11.25" width="4" height="1.5" rx="0.5" ry="0.5"/><rect class="cls-2" x="4" y="6" width="15" height="1.5" rx="0.5" ry="0.5"/><rect class="cls-2" x="4" y="16.5" width="4" height="1.5" rx="0.5" ry="0.5"/></svg>