<svg xmlns="http://www.w3.org/2000/svg" viewBox="0 0 24 24"><defs><style>.cls-1{fill:none;}.cls-2{fill:#000;}</style></defs><g data-name="Bounding area"><polyline class="cls-1" points="24 0 24 24 0 24 0 0"/></g><rect class="cls-2" x="10" y="4" width="4" height="1.5" rx="0.5" ry="0.5"/><path class="cls-2" d="M16,4.5V5a.5.5,0,0,0,.5.5h2v13H5.5V5.5h2A.5.5,0,0,0,8,5V4.5A.5.5,0,0,0,7.5,4h-3a.5.5,0,0,0-.5.5v15a.5.5,0,0,0,.5.5h15a.5.5,0,0,0,.5-.5V4.5a.5.5,0,0,0-.5-.5h-3A.5.5,0,0,0,16,4.5Z"/><path class="cls-2" d="M15.56,10.69l-2.39-.21-1-2.26c-.15-.35-.38-.35-.51,0l-.83,2.23-2.42.22c-.38,0-.45.26-.15.49l1.91,1.6-.69,2.31c-.11.35,0,.49.38.28L12,14l2.15,1.36c.31.21.49.07.38-.28l-.69-2.3,1.9-1.61C16,10.94,15.94,10.73,15.56,10.69Z"/></svg>