<svg id="a1d0686c-6d79-47bb-8c19-72ae6bb06bac"   xmlns="http://www.w3.org/2000/svg" viewBox="0 0 24 24"> <g id="38bcc32d-41da-46ea-83a0-efbeaae22084" data-name="Bounding area"><polyline id="b887356a-b1aa-453a-a7fc-cafa5c50db40"   points="24 0 24 24 0 24 0 0" fill="none"/></g><path d="M12.75,12.35V9.75a.5.5,0,0,0-.5-.5h-.5a.5.5,0,0,0-.5.5v2.979a.5.5,0,0,0,.125.331l1.882,2.128a.5.5,0,0,0,.705.044l.375-.332a.5.5,0,0,0,.044-.7Z" fill="#000"/><path d="M11.953,19.749h.114a7.3,7.3,0,0,0,7.266-6.157s.009-.063.009-.092a.5.5,0,0,0-.5-.5h-.508a.5.5,0,0,0-.49.425,5.882,5.882,0,0,1-5.778,4.825h-.074a5.776,5.776,0,0,1-5.469-3.857A5.926,5.926,0,0,1,8.263,7.9,6.179,6.179,0,0,1,12.289,6.5h1.857V8.812a.4.4,0,0,0,.683.283l3.034-3.032a.4.4,0,0,0,0-.566L14.829,2.463a.4.4,0,0,0-.683.283V5H12.067a7.376,7.376,0,0,0-7.376,7.475A7.473,7.473,0,0,0,11.953,19.749Z" fill="#000"/></svg>