<svg id="d9f17c13-ffdf-40c2-9bd6-f27c388cb44e"   xmlns="http://www.w3.org/2000/svg" viewBox="0 0 24 24"> <g id="de827fd3-d274-47d2-8ec3-192230e79c86" data-name="Bounding area"><polyline id="6f964b7d-4599-4f34-bb7e-afdf0617d06b"   points="24 0 24 24 0 24 0 0" fill="none"/></g><path d="M12.75,11.465v-2.6a.5.5,0,0,0-.5-.5h-.5a.5.5,0,0,0-.5.5v2.978a.507.507,0,0,0,.125.332L13.257,14.3a.5.5,0,0,0,.705.043l.375-.331a.5.5,0,0,0,.044-.706Z" fill="#000"/><path d="M12.193,4.251h-.114a7.3,7.3,0,0,0-7.267,6.157S4.8,10.47,4.8,10.5a.5.5,0,0,0,.5.5h.508a.5.5,0,0,0,.49-.425A5.882,5.882,0,0,1,12.079,5.75h.074a5.776,5.776,0,0,1,5.469,3.857,5.926,5.926,0,0,1-1.739,6.5A6.181,6.181,0,0,1,11.857,17.5H10V15.188a.4.4,0,0,0-.683-.283L6.283,17.937a.4.4,0,0,0,0,.566l3.034,3.034A.4.4,0,0,0,10,21.254V19h2.079a7.376,7.376,0,0,0,7.376-7.475A7.473,7.473,0,0,0,12.193,4.251Z" fill="#000"/></svg>