<svg xmlns="http://www.w3.org/2000/svg" viewBox="0 0 24 24"><defs><style>.cls-1{fill:none;}.cls-2{fill:#000;}</style></defs><g data-name="Bounding area"><polyline class="cls-1" points="24 0 24 24 0 24 0 0"/></g><rect class="cls-2" x="10" y="4" width="4" height="1.5" rx="0.5" ry="0.5"/><path class="cls-2" d="M16.5,5.5h2v5a.5.5,0,0,0,.5.5h.5a.5.5,0,0,0,.5-.5v-6a.5.5,0,0,0-.5-.5h-3a.5.5,0,0,0-.5.5V5A.5.5,0,0,0,16.5,5.5Z"/><path class="cls-2" d="M7.5,18.5h-2V5.5h2A.5.5,0,0,0,8,5V4.5A.5.5,0,0,0,7.5,4h-3a.5.5,0,0,0-.5.5v15a.5.5,0,0,0,.5.5h3a.5.5,0,0,0,.5-.5V19A.5.5,0,0,0,7.5,18.5Z"/><path class="cls-2" d="M10.07,12a6.92,6.92,0,0,1,2.5-1.6.5.5,0,0,0,.3-.66L12.2,8.22c-.15-.35-.38-.35-.51,0l-.83,2.23-2.42.22c-.38,0-.45.26-.15.49l1.1.92A.5.5,0,0,0,10.07,12Z"/><path class="cls-2" d="M14.89,21.24a4.25,4.25,0,0,1,.11-8.5h.12a1.75,1.75,0,0,0-1.67,1.75A1.73,1.73,0,0,0,14,15.74h-.53A1.25,1.25,0,0,0,12.2,17v.5a1.25,1.25,0,0,0,1.25,1.25h.25V20A1.25,1.25,0,0,0,14.89,21.24ZM16,21.13A1.25,1.25,0,0,0,16.7,20V17a1.24,1.24,0,0,0-.55-1,1.75,1.75,0,0,0-.6-3.19A4.25,4.25,0,0,1,16,21.13Z"/><path class="cls-2" d="M12.7,14.35v.14a2.43,2.43,0,0,0,.08.61,2,2,0,0,0-1.22,1.22,3.52,3.52,0,0,1,1.14-2m5,.4A3.53,3.53,0,0,1,18.5,17a3.49,3.49,0,0,1-1.05,2.5V17a2,2,0,0,0-.26-1,2.47,2.47,0,0,0,.5-1.25M12.13,19a1.9,1.9,0,0,0,.82.43v.4a3.4,3.4,0,0,1-.82-.83M15,12a5,5,0,1,0,5,5,5,5,0,0,0-5-5Zm.2,3.5a1,1,0,1,1,1-1,1,1,0,0,1-1,1ZM13.45,18a.5.5,0,0,1-.5-.5V17a.5.5,0,0,1,.5-.5h2a.5.5,0,0,1,.5.5v3a.5.5,0,0,1-.5.5H15a.5.5,0,0,1-.5-.5V18Z"/></svg>