<svg xmlns="http://www.w3.org/2000/svg" viewBox="0 0 24 24"><defs><style>.cls-1{fill:none;}.cls-2{fill:#000;}</style></defs><g data-name="Bounding area"><polyline class="cls-1" points="24 0 24 24 0 24 0 0"/></g><path class="cls-2" d="M11.75,7.51,17.46,12l-5.71,4.46Zm-7,0L10.46,12,4.75,16.46Zm14,8.74V7.75h.5v8.5Z"/><path class="cls-2" d="M12.5,9.05,16.24,12,12.5,14.93V9.05m-7,0L9.24,12,5.5,14.93V9.05m6-2.57A.5.5,0,0,0,11,7v4.49L4.72,6.54a.46.46,0,0,0-.22-.06A.5.5,0,0,0,4,7V17a.5.5,0,0,0,.5.5.59.59,0,0,0,.22,0L11,12.53V17a.5.5,0,0,0,.5.5.59.59,0,0,0,.22,0L18,12.53v4a.5.5,0,0,0,.5.5h1a.5.5,0,0,0,.5-.5v-9a.5.5,0,0,0-.5-.5h-1a.5.5,0,0,0-.5.5v4L11.72,6.54a.46.46,0,0,0-.22-.06Z"/></svg>