<svg xmlns="http://www.w3.org/2000/svg" viewBox="0 0 24 24"><defs><style>.cls-1{fill:none;}.cls-2{fill:#000;}</style></defs><g data-name="Bounding area"><polyline class="cls-1" points="24 0 24 24 0 24 0 0"/></g><path class="cls-2" d="M13.54,12l5.71-4.49v9Zm-7,0,5.71-4.49v9ZM4.75,16.25V7.75h.5v8.5Z"/><path class="cls-2" d="M18.5,9.05v5.88L14.76,12,18.5,9.05m-7,0v5.87L7.76,12,11.5,9.06m8-2.58a.46.46,0,0,0-.22.06L13,11.47V7a.5.5,0,0,0-.5-.5.46.46,0,0,0-.22.06L6,11.47v-4A.5.5,0,0,0,5.5,7h-1a.5.5,0,0,0-.5.5v9a.5.5,0,0,0,.5.5h1a.5.5,0,0,0,.5-.5v-4l6.28,4.91a.59.59,0,0,0,.22,0A.5.5,0,0,0,13,17V12.53l6.28,4.91a.59.59,0,0,0,.22,0A.5.5,0,0,0,20,17V7a.5.5,0,0,0-.5-.5Z"/></svg>