<svg xmlns="http://www.w3.org/2000/svg" viewBox="0 0 24 24"><defs><style>.cls-1{fill:none;}.cls-2{fill:#000;}</style></defs><g data-name="Bounding area"><polyline class="cls-1" points="24 0 24 24 0 24 0 0"/></g><path class="cls-2" d="M9,21a5,5,0,1,0-5-5A5,5,0,0,0,9,21ZM6.7,15.32l2-2.15a.4.4,0,0,1,.57,0l2,2.15A.4.4,0,0,1,11,16H9.75v2.5a.5.5,0,0,1-.5.5h-.5a.5.5,0,0,1-.5-.5V16H7A.4.4,0,0,1,6.7,15.32Z"/><path class="cls-2" d="M14.41,4H6.5a.5.5,0,0,0-.5.5V9a.48.48,0,0,0,.5.48H7A.48.48,0,0,0,7.5,9V5.5H14v3a.5.5,0,0,0,.5.5h3v9.5h-2a.5.5,0,0,0-.5.5v.5a.5.5,0,0,0,.5.5h3a.5.5,0,0,0,.5-.5V8.57a.47.47,0,0,0-.15-.35L14.77,4.15A.49.49,0,0,0,14.41,4Z"/></svg>