<svg xmlns="http://www.w3.org/2000/svg" viewBox="0 0 24 24"><defs><style>.cls-1{fill:none;}.cls-2{fill:#000;}</style></defs><g data-name="Bounding area"><polyline class="cls-1" points="24 0 24 24 0 24 0 0"/></g><path class="cls-2" d="M19.41,11.5l-2.81,6H6.18L9,11.5H19.41M8.35,10a.49.49,0,0,0-.45.29L4.09,18.43a.4.4,0,0,0,.36.57H17.24a.49.49,0,0,0,.45-.29l3.81-8.14a.4.4,0,0,0-.36-.57Z"/><path class="cls-2" d="M19.5,6.5H14l-.87-1.72a.5.5,0,0,0-.44-.28H4.5A.5.5,0,0,0,4,5v7.55a.29.29,0,0,0,.3.3.3.3,0,0,0,.27-.17l.88-1.89a.5.5,0,0,0,0-.21V6H12l.87,1.72a.5.5,0,0,0,.44.28H19.5a.5.5,0,0,0,.5-.5V7A.5.5,0,0,0,19.5,6.5Z"/></svg>