<svg xmlns="http://www.w3.org/2000/svg" viewBox="0 0 24 24"><defs><style>.cls-1{fill:none;}.cls-2{fill:#000;}</style></defs><g data-name="Bounding area"><polyline class="cls-1" points="24 0 24 24 0 24 0 0"/></g><path class="cls-2" d="M8,11a5,5,0,1,0,5,5A5,5,0,0,0,8,11Zm3,5.25a.5.5,0,0,1-.5.5H8.75V18.5a.5.5,0,0,1-.5.5h-.5a.5.5,0,0,1-.5-.5V16.75H5.5a.5.5,0,0,1-.5-.5v-.5a.5.5,0,0,1,.5-.5H7.25V13.5a.5.5,0,0,1,.5-.5h.5a.5.5,0,0,1,.5.5v1.75H10.5a.5.5,0,0,1,.5.5Z"/><path class="cls-2" d="M20.5,7H13l-.87-1.72A.5.5,0,0,0,11.64,5H3.5a.5.5,0,0,0-.5.5V10a.5.5,0,0,0,.5.5H4a.5.5,0,0,0,.5-.5V6.5H11l.87,1.72a.5.5,0,0,0,.44.28H19.5v9H15a.5.5,0,0,0-.5.5v.5a.5.5,0,0,0,.5.5h5.5a.5.5,0,0,0,.5-.5V7.5A.5.5,0,0,0,20.5,7Z"/></svg>