<svg xmlns="http://www.w3.org/2000/svg" viewBox="0 0 24 24"><defs><style>.cls-1{fill:none;}.cls-2{fill:#000;}</style></defs><g data-name="Bounding area"><polyline class="cls-1" points="24 0 24 24 0 24 0 0"/></g><path class="cls-2" d="M9,5.52V6a.5.5,0,0,0,.5.5h4.75v12a.5.5,0,0,0,.5.5h.5a.5.5,0,0,0,.5-.5v-12H20.5A.5.5,0,0,0,21,6v-.5a.5.5,0,0,0-.5-.5H9.5A.5.5,0,0,0,9,5.52Z"/><path class="cls-2" d="M3.5,12.51H6.25v6a.5.5,0,0,0,.5.5h.5a.5.5,0,0,0,.5-.5v-6H10.5A.5.5,0,0,0,11,12V11.5a.5.5,0,0,0-.5-.5h-7a.5.5,0,0,0-.5.5V12A.5.5,0,0,0,3.5,12.51Z"/></svg>