<svg id="c00c6300-55f3-42aa-a658-0383b8542f6a" xmlns="http://www.w3.org/2000/svg" viewBox="0 0 24 24"><g id="d917164d-42dc-451f-99ca-6d37bbd82d54" data-name="Bounding area"><polyline id="d58d34de-6deb-4736-817a-91cf0dc0b789" points="24 0 24 24 0 24 0 0" fill="none"/></g><path d="M10.372,7.472H15V5.2a.5.5,0,0,1,.853-.354L18.886,7.87a.5.5,0,0,1,0,.706l-3.032,3.052A.5.5,0,0,1,15,11.276v-2.3H10.372A3.6,3.6,0,0,0,6.71,12.334a3.323,3.323,0,0,0,.939,2.473,3.686,3.686,0,0,0,1.926,1.015.51.51,0,0,1,.425.493v.532a.509.509,0,0,1-.587.5,5,5,0,0,1-2.841-1.493A4.852,4.852,0,0,1,5.21,12.289,5.11,5.11,0,0,1,10.372,7.472Z" fill="#000"/><path d="M18.869,16.8a1.468,1.468,0,0,1-1.64,1.47,1.407,1.407,0,0,1-1.54-1.2.191.191,0,0,1,.21-.24h.74a.223.223,0,0,1,.2.15.42.42,0,0,0,.39.23.475.475,0,1,0-.33-.81.213.213,0,0,1-.15.07h-.76a.231.231,0,0,1-.24-.24v-2.01a.231.231,0,0,1,.24-.24h2.42a.231.231,0,0,1,.24.24v.54a.231.231,0,0,1-.24.24h-1.53v.53a1.468,1.468,0,0,1,.64-.14A1.33,1.33,0,0,1,18.869,16.8Zm-3.72.53v.62a.231.231,0,0,1-.24.24H12.6a.231.231,0,0,1-.24-.24v-.62a.231.231,0,0,1,.24-.24h.66v-1.96l-.64.2a.235.235,0,0,1-.32-.17l-.14-.53a.234.234,0,0,1,.16-.29l1.05-.33a.852.852,0,0,1,.23-.03h.61a.231.231,0,0,1,.24.24v2.87h.46A.231.231,0,0,1,15.149,17.329Z" fill="#000"/></svg>