<svg xmlns="http://www.w3.org/2000/svg" viewBox="0 0 24 24"><defs><style>.cls-1{fill:none;}.cls-2{fill:#000;}</style></defs><g data-name="Bounding area"><polyline class="cls-1" points="24 0 24 24 0 24 0 0"/></g><path class="cls-2" d="M15.5,18.5v-3h5A.5.5,0,0,0,21,15v-.5a.5.5,0,0,0-.5-.5h-6a.5.5,0,0,0-.5.5v4a.5.5,0,0,0,.5.5H15A.5.5,0,0,0,15.5,18.5Z"/><path class="cls-2" d="M3.5,15.5h5v3A.5.5,0,0,0,9,19h.5a.5.5,0,0,0,.5-.5v-4a.5.5,0,0,0-.5-.5h-6a.5.5,0,0,0-.5.5V15A.5.5,0,0,0,3.5,15.5Z"/><path class="cls-2" d="M8.5,5.5v3h-5A.5.5,0,0,0,3,9v.5a.5.5,0,0,0,.5.5h6a.5.5,0,0,0,.5-.5v-4A.5.5,0,0,0,9.5,5H9A.5.5,0,0,0,8.5,5.5Z"/><path class="cls-2" d="M20.5,8.5h-5v-3A.5.5,0,0,0,15,5h-.5a.5.5,0,0,0-.5.5v4a.5.5,0,0,0,.5.5h6a.5.5,0,0,0,.5-.5V9A.5.5,0,0,0,20.5,8.5Z"/></svg>