<svg xmlns="http://www.w3.org/2000/svg" viewBox="0 0 24 24"><defs><style>.cls-1{fill:none;}.cls-2{fill:#000;}</style></defs><g data-name="Bounding area"><polyline class="cls-1" points="24 0 24 24 0 24 0 0"/></g><path class="cls-2" d="M17.15,5.15A.49.49,0,0,0,16.79,5H7.26a.52.52,0,0,0-.35.14L3.32,8.68a.5.5,0,0,0,0,.67L11.7,19.62a.4.4,0,0,0,.62,0l8.4-10.27a.5.5,0,0,0,0-.67Zm-5.9,11.56L5.71,10l5.54.69Zm1.5-6.1,5.66-.81-5.66,6.92ZM19,9.13V9.07l0,0ZM16.38,6.5,18.2,8.32l-5.45.77V6.5Zm-8.71,0h3.58V9.13l-5.54-.7Z"/></svg>