<svg id="402b2a4e-f2a7-47b5-a0eb-5080d9ed48d7" xmlns="http://www.w3.org/2000/svg" viewBox="0 0 24 24"><g id="e269d51f-ce4c-4365-98df-ce6903600fc4" data-name="Bounding area"><polyline id="7d8e0db7-f689-49ee-a750-b45f74a19140" data-name="box" points="24 0 24 24 0 24 0 0" fill="none"/></g><path d="M4.233,10.946A.7.7,0,0,0,4,11.468V18.5a.5.5,0,0,0,.5.5H9.494a.5.5,0,0,0,.5-.5l.005-5a.5.5,0,0,1,.5-.5h3a.5.5,0,0,1,.5.5v5a.5.5,0,0,0,.5.5h5a.5.5,0,0,0,.5-.5V11.468a.7.7,0,0,0-.233-.522L12.333,4.3a.5.5,0,0,0-.666,0Z" fill="#000"/></svg>