<svg xmlns="http://www.w3.org/2000/svg" viewBox="0 0 24 24"><defs><style>.cls-1{fill:none;}.cls-2{fill:#000;}</style></defs><g data-name="Bounding area"><polyline class="cls-1" points="24 0 24 24 0 24 0 0"/></g><path class="cls-2" d="M19.51,4.51v5.88L11,18.87,5.13,13l8.5-8.5h5.88M13.21,3a.47.47,0,0,0-.35.15l-9.5,9.5a.48.48,0,0,0,0,.7l7.27,7.28a.51.51,0,0,0,.71,0l9.52-9.48A.53.53,0,0,0,21,10.8V3.51a.5.5,0,0,0-.5-.5Z"/><path class="cls-2" d="M17.25,8A1.25,1.25,0,1,1,16,6.76,1.25,1.25,0,0,1,17.25,8Z"/></svg>