<svg xmlns="http://www.w3.org/2000/svg" viewBox="0 0 24 24"><defs><style>.cls-1{fill:none;}.cls-2{fill:#000;}</style></defs><g data-name="Bounding area"><polyline class="cls-1" points="24 0 24 24 0 24 0 0"/></g><path class="cls-2" d="M10.37,17.5h0a2.13,2.13,0,0,1-1.65.61,3,3,0,0,1-1.94-.9,2.54,2.54,0,0,1-.3-3.6L9.11,11h0a2.34,2.34,0,0,1,3.13.12.5.5,0,0,0,.67,0l.36-.36a.5.5,0,0,0,0-.73,3.79,3.79,0,0,0-5.2-.06L5.42,12.55a4,4,0,0,0,.3,5.72,4.45,4.45,0,0,0,2.94,1.34h.16a3.68,3.68,0,0,0,2.62-1.05l.64-.64a.5.5,0,0,0,0-.71l-.36-.35a.49.49,0,0,0-.7,0Z"/><path class="cls-2" d="M18.29,5.78a4,4,0,0,0-5.71-.29l-.67.66a.5.5,0,0,0,0,.71l.35.36a.52.52,0,0,0,.72,0l.66-.67a2.53,2.53,0,0,1,3.59.3,2.53,2.53,0,0,1,.3,3.59L14.9,13.06A2.32,2.32,0,0,1,11.77,13a.48.48,0,0,0-.66,0l-.37.36a.5.5,0,0,0,0,.73,4.42,4.42,0,0,0,2.77,1.06,3.43,3.43,0,0,0,2.44-1l2.62-2.63A4,4,0,0,0,18.29,5.78Z"/></svg>