<svg xmlns="http://www.w3.org/2000/svg" viewBox="0 0 24 24"><defs><style>.cls-1{fill:none;}.cls-2{fill:#000;}</style></defs><g data-name="Bounding area"><polyline class="cls-1" points="24 0 24 24 0 24 0 0"/></g><rect class="cls-2" x="11.25" y="15" width="1.5" height="6" rx="0.5" ry="0.5"/><path class="cls-2" d="M12,12.94a.94.94,0,1,1,.93-.94A.94.94,0,0,1,12,12.94Z"/><path class="cls-2" d="M12,11.62a.38.38,0,1,1-.38.38.38.38,0,0,1,.38-.38m0-1.12a1.5,1.5,0,1,0,1.5,1.5A1.5,1.5,0,0,0,12,10.5Z"/><path class="cls-2" d="M15.42,8.69l-.34.37a.49.49,0,0,0,0,.67,3.14,3.14,0,0,1,.93,2.2,3.45,3.45,0,0,1-1,2.28.51.51,0,0,0,0,.68l.35.36a.5.5,0,0,0,.69,0,4.59,4.59,0,0,0,.09-6.61A.5.5,0,0,0,15.42,8.69Z"/><path class="cls-2" d="M18.28,5.42a.5.5,0,0,0-.71,0l-.35.36a.49.49,0,0,0,0,.7,7.66,7.66,0,0,1-.08,10.94.5.5,0,0,0,0,.71l.34.35a.5.5,0,0,0,.71,0,9.14,9.14,0,0,0,.09-13.1Z"/><path class="cls-2" d="M8.58,8.69l.35.37a.49.49,0,0,1,0,.67A3.17,3.17,0,0,0,8,11.93a3.45,3.45,0,0,0,1,2.28.51.51,0,0,1,0,.68l-.35.36a.5.5,0,0,1-.69,0,4.6,4.6,0,0,1-.1-6.61A.5.5,0,0,1,8.58,8.69Z"/><path class="cls-2" d="M5.73,5.42a.5.5,0,0,1,.71,0l.34.36a.49.49,0,0,1,0,.7,7.66,7.66,0,0,0,.08,10.94.5.5,0,0,1,0,.71l-.34.35a.5.5,0,0,1-.71,0,9.14,9.14,0,0,1-.09-13.1Z"/></svg>