<svg xmlns="http://www.w3.org/2000/svg" viewBox="0 0 24 24"><defs><style>.cls-1{fill:none;}.cls-2{fill:#000;}</style></defs><g data-name="Bounding area"><polyline class="cls-1" points="24 0 24 24 0 24 0 0"/></g><path class="cls-2" d="M12,14.84A2.84,2.84,0,1,1,14.84,12,2.84,2.84,0,0,1,12,14.84Z"/><path class="cls-2" d="M12,9.81A2.19,2.19,0,1,1,9.81,12,2.19,2.19,0,0,1,12,9.81M12,8.5A3.5,3.5,0,1,0,15.5,12,3.5,3.5,0,0,0,12,8.5Z"/><path class="cls-2" d="M12,5a7,7,0,1,1-7,7,7,7,0,0,1,7-7m0-1.5A8.5,8.5,0,1,0,20.5,12,8.51,8.51,0,0,0,12,3.5Z"/></svg>