<svg xmlns="http://www.w3.org/2000/svg" viewBox="0 0 24 24"><defs><style>.cls-1{fill:none;}.cls-2{fill:#000;}</style></defs><g data-name="Bounding area"><polyline class="cls-1" points="24 0 24 24 0 24 0 0"/></g><path class="cls-2" d="M12,4.5A4.51,4.51,0,0,1,16.54,9c0,2.31-1,3.78-3.86,8.14l-.74,1.11-.23-.35C8.54,13.06,7.47,11.44,7.47,9A4.51,4.51,0,0,1,12,4.5M12,3A6,6,0,0,0,6,9c0,3.22,1.51,5.17,5.64,11.47a.4.4,0,0,0,.67,0C16.49,14,18,12.21,18,9a6,6,0,0,0-6-6Z"/><circle class="cls-2" cx="12" cy="9" r="1.5"/></svg>