<svg xmlns="http://www.w3.org/2000/svg" viewBox="0 0 24 24"><defs><style>.cls-1{fill:#000;}.cls-2{fill:none;}</style></defs><rect class="cls-1" x="4" y="11.25" width="5" height="1.5" rx="0.5" ry="0.5"/><rect class="cls-1" x="4" y="6" width="16" height="1.5" rx="0.5" ry="0.5"/><rect class="cls-1" x="4" y="16.5" width="5" height="1.5" rx="0.5" ry="0.5"/><g data-name="Bounding area"><polyline class="cls-2" points="24 0 24 24 0 24 0 0"/></g><path class="cls-1" d="M16,20.25a4.25,4.25,0,0,1-.54-8.47,1.26,1.26,0,0,0-1,1.22v3a1.24,1.24,0,0,0,.55,1,1.77,1.77,0,0,0-.8,1.47A1.75,1.75,0,0,0,16,20.25Zm0,0,0,0a1.75,1.75,0,0,0,1.75-1.75A1.77,1.77,0,0,0,17,17a1.24,1.24,0,0,0,.55-1V13a1.26,1.26,0,0,0-1-1.22A4.25,4.25,0,0,1,16,20.25Z"/><path class="cls-1" d="M13.75,13.32V16A2,2,0,0,0,14,17a2.46,2.46,0,0,0-.51,1.46,3.5,3.5,0,0,1,.25-5.13m4.5,0a3.5,3.5,0,0,1,.25,5.13A2.46,2.46,0,0,0,18,17a2,2,0,0,0,.26-1V13.32M16,11a5,5,0,1,0,5,5,5,5,0,0,0-5-5Zm-.25,5.5a.5.5,0,0,1-.5-.5V13a.5.5,0,0,1,.5-.5h.5a.5.5,0,0,1,.5.5v3a.5.5,0,0,1-.5.5Zm.25,3a1,1,0,1,1,1-1,1,1,0,0,1-1,1Z"/></svg>