<svg xmlns="http://www.w3.org/2000/svg" viewBox="0 0 24 24"><defs><style>.cls-1{fill:none;}.cls-2{fill:#000;}</style></defs><g data-name="Bounding area"><polyline class="cls-1" points="24 0 24 24 0 24 0 0"/></g><path class="cls-2" d="M20.65,17.59,14,10.94V7.08a.5.5,0,0,0-.83-.37L11.38,8.32l-5-5a.5.5,0,0,0-.7,0l-.36.36a.5.5,0,0,0,0,.7L19.59,18.65a.51.51,0,0,0,.71,0l.35-.35A.51.51,0,0,0,20.65,17.59Z"/><path class="cls-2" d="M13.82,15.7l-6-6a.49.49,0,0,0-.34-.15.5.5,0,0,0-.5.5v4.42a.5.5,0,0,0,.5.5h3.11l2.56,2.26a.5.5,0,0,0,.83-.37v-.78A.46.46,0,0,0,13.82,15.7Z"/></svg>