<svg id="export" xmlns="http://www.w3.org/2000/svg" viewBox="0 0 24 24"><defs><style>.cls-1{fill:none;}.cls-2{fill:#000;}</style></defs><g id="Bounding_area"><polyline id="box" class="cls-1" points="24 0 24 24 0 24 0 0"/></g><circle class="cls-2" cx="12" cy="12" r="2"/><path class="cls-2" d="M12,10.5A1.5,1.5,0,1,1,10.5,12,1.51,1.51,0,0,1,12,10.5m0-1A2.5,2.5,0,1,0,14.5,12,2.49,2.49,0,0,0,12,9.5Z"/><circle class="cls-2" cx="12" cy="5.5" r="2"/><path class="cls-2" d="M12,4a1.5,1.5,0,1,1-1.5,1.5A1.5,1.5,0,0,1,12,4m0-1a2.5,2.5,0,1,0,2.5,2.5A2.49,2.49,0,0,0,12,3Z"/><circle class="cls-2" cx="12" cy="18.5" r="2"/><path class="cls-2" d="M12,17a1.5,1.5,0,1,1-1.5,1.5A1.5,1.5,0,0,1,12,17m0-1a2.5,2.5,0,1,0,2.5,2.5A2.49,2.49,0,0,0,12,16Z"/></svg>