<svg xmlns="http://www.w3.org/2000/svg" viewBox="0 0 24 24"><defs><style>.cls-1{fill:none;}.cls-2{fill:#000;}</style></defs><g data-name="Bounding area"><polyline class="cls-1" points="24 0 24 24 0 24 0 0"/></g><path class="cls-2" d="M9.14,4.89a2.79,2.79,0,0,0-.58,2.33L9,10.46A2.84,2.84,0,0,0,12,13a2.83,2.83,0,0,0,3-2.55l.4-3.22a2.77,2.77,0,0,0-.58-2.35A3.66,3.66,0,0,0,12,3.78,3.7,3.7,0,0,0,9.14,4.89Z"/><path class="cls-2" d="M16.75,12.77a.51.51,0,0,0-.59.21A4.94,4.94,0,0,1,12,15a5,5,0,0,1-4.16-2,.5.5,0,0,0-.58-.21,10.8,10.8,0,0,0-2.64,1.37.5.5,0,0,0-.16.62l2.32,5a.51.51,0,0,0,.46.29h9.52a.51.51,0,0,0,.46-.29l2.32-5a.5.5,0,0,0-.16-.62A11.28,11.28,0,0,0,16.75,12.77ZM15.5,18.5a1,1,0,1,1,1-1A1,1,0,0,1,15.5,18.5Z"/></svg>