<svg xmlns="http://www.w3.org/2000/svg" viewBox="0 0 24 24"><defs><style>.cls-1{fill:none;}.cls-2{fill:#000;}</style></defs><g data-name="Bounding area"><polyline class="cls-1" points="24 0 24 24 0 24 0 0"/></g><path class="cls-2" d="M8,9.5v9a.5.5,0,0,0,.5.5h12a.5.5,0,0,0,.5-.5v-9a.5.5,0,0,0-.5-.5H8.5A.5.5,0,0,0,8,9.5ZM13,11a1,1,0,1,1-1,1A1,1,0,0,1,13,11Zm5.62,6H10.38a.2.2,0,0,1-.16-.31l1.65-2.39a.21.21,0,0,1,.33,0l1.56,2.25,2.3-3.31a.2.2,0,0,1,.33,0l2.39,3.45A.2.2,0,0,1,18.62,17Z"/><path class="cls-2" d="M5.5,13.5h-1v-8h11v1A.5.5,0,0,0,16,7h.5a.5.5,0,0,0,.5-.5v-2a.5.5,0,0,0-.5-.5H3.5a.5.5,0,0,0-.5.5v10a.5.5,0,0,0,.5.5h2a.5.5,0,0,0,.5-.5V14A.5.5,0,0,0,5.5,13.5Z"/></svg>