<svg id="7ea1b968-df49-42cb-8e62-9b0644ce71a4" xmlns="http://www.w3.org/2000/svg" viewBox="0 0 24 24"><g id="41f7343e-59e6-480c-b6a7-ebc0c6281670" data-name="Bounding area"><polyline id="c5a5d71c-5e2d-4c8f-ae9a-7f8ad2fcbb57" points="24 0 24 24 0 24 0 0" fill="none"/></g><path d="M19.051,8.859a.5.5,0,0,0,.069-.593L17.946,6.234A.5.5,0,0,0,17.4,6l-2.477.586A6.222,6.222,0,0,0,13.555,5.8l-.732-2.439A.5.5,0,0,0,12.344,3H10a.5.5,0,0,0-.479.356L8.786,5.8a6.148,6.148,0,0,0-1.362.789L4.945,6a.5.5,0,0,0-.549.237L3.223,8.266a.5.5,0,0,0,.069.593l1.745,1.854a6.484,6.484,0,0,0,0,1.575L3.292,14.141a.5.5,0,0,0-.069.593L4.4,16.766A.5.5,0,0,0,4.944,17l1.671-.395A.5.5,0,0,0,7,16.122V12.765a4.131,4.131,0,0,1,.332-3.674,4.382,4.382,0,0,1,8.182,1.465.508.508,0,0,0,.494.444h1.076a.5.5,0,0,0,.389-.186Z" fill="#000"/><path d="M17.051,16.029h-.49v1.94h.49a.935.935,0,0,0,1.01-.99A.91.91,0,0,0,17.051,16.029Z" fill="#000"/><path d="M20.5,13H9.5a.5.5,0,0,0-.5.5v7a.5.5,0,0,0,.5.5h11a.5.5,0,0,0,.5-.5v-7A.5.5,0,0,0,20.5,13Zm-5.9,5.759a.238.238,0,0,1-.25.259h-.66a.238.238,0,0,1-.25-.259v-1.29h-1.11v1.29a.238.238,0,0,1-.25.259h-.66a.238.238,0,0,1-.25-.259v-3.52a.239.239,0,0,1,.25-.26h.66a.239.239,0,0,1,.25.26v1.18h1.11v-1.18a.239.239,0,0,1,.25-.26h.66a.239.239,0,0,1,.25.26Zm2.45.259h-1.41a.238.238,0,0,1-.25-.259v-3.52a.239.239,0,0,1,.25-.26h1.41a2.032,2.032,0,0,1,2.23,2A2.072,2.072,0,0,1,17.051,19.018Z" fill="#000"/></svg>