<svg id="63bcb180-1773-4a7e-9649-c60e754639c0" xmlns="http://www.w3.org/2000/svg" viewBox="0 0 24 24"><g id="5adad776-8861-44b9-9ae6-6bd4d2f35224" data-name="Bounding area"><polyline id="5b87f2f8-73f8-45a9-877c-eb55337f7f23" points="24 0 24 24 0 24 0 0" fill="none"/></g><path d="M14.628,7.472H10V5.2a.5.5,0,0,0-.853-.354L6.114,7.87a.5.5,0,0,0,0,.706l3.032,3.052A.5.5,0,0,0,10,11.276v-2.3h4.628a3.6,3.6,0,0,1,3.662,3.362,3.323,3.323,0,0,1-.939,2.473,3.686,3.686,0,0,1-1.926,1.015.51.51,0,0,0-.425.493v.532a.509.509,0,0,0,.587.5,5,5,0,0,0,2.841-1.493,4.852,4.852,0,0,0,1.362-3.562A5.11,5.11,0,0,0,14.628,7.472Z" fill="#000"/><path d="M9.772,16.7V15.467A1.507,1.507,0,0,1,11.4,13.9a1.505,1.505,0,0,1,1.621,1.571V16.7A1.5,1.5,0,0,1,11.4,18.27,1.507,1.507,0,0,1,9.772,16.7Zm2.052-.024V15.492c0-.35-.143-.532-.425-.532s-.431.188-.431.532v1.183c0,.344.143.531.431.531S11.824,17.024,11.824,16.675Z" fill="#000"/><path d="M9.355,17c0,.752-.66,1.266-1.586,1.266A1.424,1.424,0,0,1,6.2,17a.2.2,0,0,1,.2-.247h.7a.26.26,0,0,1,.238.183.424.424,0,0,0,.816-.119c0-.229-.156-.367-.431-.367H7.577A.251.251,0,0,1,7.32,16.2v-.33a.251.251,0,0,1,.257-.257h.128c.266,0,.422-.119.422-.339s-.156-.349-.4-.349a.379.379,0,0,0-.385.239.266.266,0,0,1-.238.174H6.412a.2.2,0,0,1-.2-.248A1.462,1.462,0,0,1,7.788,13.9c.889,0,1.485.486,1.485,1.211a.967.967,0,0,1-.559.926A1.029,1.029,0,0,1,9.355,17Z" fill="#000"/></svg>