<svg xmlns="http://www.w3.org/2000/svg" viewBox="0 0 24 24"><defs><style>.cls-1{fill:none;}.cls-2{fill:#000;}</style></defs><g data-name="Bounding area"><polyline class="cls-1" points="24 0 24 24 0 24 0 0"/></g><path class="cls-2" d="M7.06,9.88a.51.51,0,0,1-.22.41l-.27-.18-1.1-.65c-.48-.29-.54-.41-.54-.59a.56.56,0,0,1,.22-.42l.27.18,1.1.66C7,9.57,7.06,9.7,7.06,9.88Zm1.14,0c0-.66-.42-1-1.06-1.43l-1-.58c-.44-.27-.53-.4-.53-.56S5.82,7,6.12,7H7.67A.3.3,0,0,0,8,6.66V6.3A.3.3,0,0,0,7.67,6H6.11c-1,0-1.65.54-1.65,1.3a1,1,0,0,0,.1.45A1.25,1.25,0,0,0,3.8,8.89c0,.66.41,1,1.06,1.42l1,.59c.45.27.54.39.54.55s-.22.34-.52.34H4.33a.3.3,0,0,0-.31.29v.37a.3.3,0,0,0,.31.3H5.89c1,0,1.64-.54,1.64-1.31A1,1,0,0,0,7.44,11,1.28,1.28,0,0,0,8.2,9.86Z"/><rect class="cls-2" x="10" y="11.25" width="10" height="1.5" rx="0.5" ry="0.5"/><rect class="cls-2" x="10" y="6" width="10" height="1.5" rx="0.5" ry="0.5"/><rect class="cls-2" x="10" y="16.5" width="10" height="1.5" rx="0.5" ry="0.5"/></svg>