<svg xmlns="http://www.w3.org/2000/svg" viewBox="0 0 24 24"><defs><style>.cls-1{fill:none;}.cls-2{fill:#000;}</style></defs><g data-name="Bounding area"><polyline class="cls-1" points="24 0 24 24 0 24 0 0"/></g><path class="cls-2" d="M12.26,13.56a.5.5,0,0,1-.72,0L7.65,10a.5.5,0,0,1,0-.71L8,8.9a.51.51,0,0,1,.71,0l3.13,2.93L16.91,6a.5.5,0,0,1,.7,0l.38.33A.49.49,0,0,1,18,7Z"/><path class="cls-2" d="M19.5,20h-15a.5.5,0,0,1-.5-.5v-5a.5.5,0,0,1,.5-.5H5a.5.5,0,0,1,.5.5v4h13v-4A.5.5,0,0,1,19,14h.5a.5.5,0,0,1,.5.5v5A.5.5,0,0,1,19.5,20Z"/></svg>