<svg xmlns="http://www.w3.org/2000/svg" viewBox="0 0 24 24"><defs><style>.cls-1{fill:none;}.cls-2{fill:#000;}</style></defs><g data-name="Bounding area"><polyline class="cls-1" points="24 0 24 24 0 24 0 0"/></g><path class="cls-2" d="M15.4,7.32,15,7a.48.48,0,0,0-.7,0L12,9.3,9.68,7A.5.5,0,0,0,9,7l-.35.35a.5.5,0,0,0,0,.71L11,10.36,8.62,12.69a.48.48,0,0,0,0,.7l.35.36a.51.51,0,0,0,.71,0L12,11.42l2.33,2.33a.5.5,0,0,0,.7,0l.36-.36a.5.5,0,0,0,0-.7l-2.33-2.33L15.4,8A.51.51,0,0,0,15.4,7.32Z"/><path class="cls-2" d="M19.5,20h-15a.5.5,0,0,1-.5-.5v-5a.5.5,0,0,1,.5-.5H5a.5.5,0,0,1,.5.5v4h13v-4A.5.5,0,0,1,19,14h.5a.5.5,0,0,1,.5.5v5A.5.5,0,0,1,19.5,20Z"/></svg>