<svg id="6c8d8fb8-f88a-4544-9d41-0f9deb80b0cf"   xmlns="http://www.w3.org/2000/svg" viewBox="0 0 24 24"> <g id="9e788c45-a46e-4ed8-9b96-32327aacccbd" data-name="Bounding area"><polyline id="bffa011c-0440-4d5e-98ed-d420d358b9cf"   points="24 0 24 24 0 24 0 0" fill="none"/></g><path d="M4,9.5v10a.5.5,0,0,0,.5.5h10a.5.5,0,0,0,.5-.5V9.5a.5.5,0,0,0-.5-.5H4.5A.5.5,0,0,0,4,9.5Zm4.269,7.958L5.631,15.152a.5.5,0,0,1-.047-.7l.328-.376a.5.5,0,0,1,.706-.048l1.961,1.714,3.684-4.2a.5.5,0,0,1,.705-.046l.376.329a.5.5,0,0,1,.046.705L9.115,17.4A.6.6,0,0,1,8.269,17.458Z" fill="#000"/><path d="M8,4.5v2a.5.5,0,0,0,.5.5H9a.5.5,0,0,0,.5-.5v-1h9v9h-1a.5.5,0,0,0-.5.5v.5a.5.5,0,0,0,.5.5h2a.5.5,0,0,0,.5-.5V4.5a.5.5,0,0,0-.5-.5H8.5A.5.5,0,0,0,8,4.5Z" fill="#000"/></svg>