<svg xmlns="http://www.w3.org/2000/svg" viewBox="0 0 24 24"><defs><style>.cls-1{fill:none;}.cls-2{fill:#000;}</style></defs><g data-name="Bounding area"><polyline class="cls-1" points="24 0 24 24 0 24 0 0"/></g><path class="cls-2" d="M15,9.5V10a.5.5,0,0,0,.5.5h1v8h-9v-8h1A.5.5,0,0,0,9,10V9.5A.5.5,0,0,0,8.5,9h-2a.5.5,0,0,0-.5.5v10a.5.5,0,0,0,.5.5h11a.5.5,0,0,0,.5-.5V9.5a.5.5,0,0,0-.5-.5h-2A.5.5,0,0,0,15,9.5Z"/><path class="cls-2" d="M15.3,5.73,12.36,2.79a.51.51,0,0,0-.71,0l-3,2.94a.51.51,0,0,0,0,.71l.36.35a.48.48,0,0,0,.7,0l1.49-1.48V13.5a.5.5,0,0,0,.5.5h.5a.5.5,0,0,0,.5-.5V5.31l1.49,1.48a.48.48,0,0,0,.7,0l.36-.35A.51.51,0,0,0,15.3,5.73Z"/></svg>