<svg xmlns="http://www.w3.org/2000/svg" viewBox="0 0 24 24"><defs><style>.cls-1{fill:none;}.cls-2{fill:#000;}</style></defs><g data-name="Bounding area"><polyline class="cls-1" points="24 0 24 24 0 24 0 0"/></g><path class="cls-2" d="M8.66,19.31A10.43,10.43,0,0,0,19.17,8.81c0-.16,0-.32,0-.48A7.43,7.43,0,0,0,21,6.42,7.47,7.47,0,0,1,18.88,7,3.69,3.69,0,0,0,20.5,5a7.28,7.28,0,0,1-2.34.89,3.7,3.7,0,0,0-6.39,2.53,3.86,3.86,0,0,0,.09.84A10.46,10.46,0,0,1,4.25,5.36a3.77,3.77,0,0,0-.5,1.86A3.67,3.67,0,0,0,5.4,10.29a3.67,3.67,0,0,1-1.68-.46v.05a3.7,3.7,0,0,0,3,3.62,3.93,3.93,0,0,1-1,.13A3.84,3.84,0,0,1,5,13.56a3.69,3.69,0,0,0,3.45,2.57,7.44,7.44,0,0,1-4.59,1.58A8.49,8.49,0,0,1,3,17.66a10.49,10.49,0,0,0,5.66,1.65"/></svg>