<svg xmlns="http://www.w3.org/2000/svg" viewBox="0 0 24 24"><defs><style>.cls-1{fill:none;}.cls-2{fill:#000;}</style></defs><g data-name="Bounding area"><polyline class="cls-1" points="24 0 24 24 0 24 0 0"/></g><path class="cls-2" d="M19.5,9.7v4.6c0,4.2-1,5.2-5.2,5.2H9.7c-4.2,0-5.2-1-5.2-5.2V9.7c0-4.2,1-5.2,5.2-5.2h4.6C18.5,4.5,19.5,5.5,19.5,9.7Zm-2.89,5.5c.32,0,.47-.15.38-.46a4.68,4.68,0,0,0-.92-1.28c-.25-.3-.64-.63-.75-.79s-.12-.3,0-.49a14,14,0,0,0,1.47-2.51c.07-.23,0-.4-.33-.4h-1.1a.47.47,0,0,0-.47.3,9.17,9.17,0,0,1-1.35,2.24c-.25.26-.37.34-.5.34s-.18-.08-.18-.32V9.67c0-.28-.08-.4-.31-.4H10.83a.25.25,0,0,0-.27.25c0,.26.39.32.43,1.06v1.61c0,.36-.06.42-.2.42-.37,0-1.28-1.36-1.81-2.92-.11-.3-.21-.42-.49-.42H7.4c-.32,0-.38.14-.38.3A8.75,8.75,0,0,0,8.75,13.2a4.24,4.24,0,0,0,3.33,2c.7,0,.78-.15.78-.42v-1c0-.32.07-.38.29-.38s.44.08,1.09.71.86,1.07,1.28,1.07Z"/></svg>