<svg xmlns="http://www.w3.org/2000/svg" viewBox="0 0 24 24"><defs><style>.cls-1{fill:none;}.cls-2{fill:#000;}</style></defs><g data-name="Bounding area"><polyline class="cls-1" points="24 0 24 24 0 24 0 0"/></g><path class="cls-2" d="M19.5,8H14.14l2.43-3a.5.5,0,0,0-.08-.7L16.1,4a.49.49,0,0,0-.7.08L12.23,8,7.18,2.93a.5.5,0,0,0-.71,0l-.35.35a.5.5,0,0,0,0,.71l4,4H4.5a.5.5,0,0,0-.5.5v10a.5.5,0,0,0,.5.5h15a.5.5,0,0,0,.5-.5V8.5A.5.5,0,0,0,19.5,8Zm-1,9.5H5.5v-8h13Z"/><path class="cls-2" d="M14.59,12.67l-1.7-.15-.69-1.61c-.11-.25-.27-.25-.37,0l-.59,1.59-1.73.16c-.27,0-.31.18-.1.35l1.36,1.14-.49,1.64c-.08.25,0,.35.27.2L12,15l1.54,1c.22.15.34,0,.27-.2l-.49-1.63L14.7,13C14.93,12.85,14.86,12.7,14.59,12.67Z"/></svg>