<svg id="73b89f3b-337a-4ee7-999c-d9051c1c296e" xmlns="http://www.w3.org/2000/svg" viewBox="0 0 24 24"><g id="b58f7add-3e6a-4be8-85be-c000cc2f3842" data-name="Bounding area"><polyline id="2cf7b30e-69b3-4890-b875-3c28406cd442" points="24 0 24 24 0 24 0 0" fill="none"/></g><path fill="#000" d="M12.1529,3.9328a4.4151,4.4151,0,0,1,4.104,2.643,8.81,8.81,0,0,1,.1946,3.4582c-.0118.187-.0233.3683-.0326.5417l-.004.0744.05.0554a.8846.8846,0,0,0,.6258.2349l.007,0,.0068,0a2.4391,2.4391,0,0,0,.9258-.2546.4507.4507,0,0,1,.1859-.0346.6237.6237,0,0,1,.2349.0445l.0105.0042c.1772.0621.3025.1793.3046.2851.001.06-.0439.2758-.6722.524-.0614.0243-.1423.05-.2359.0795-.4088.13-1.0265.3257-1.2344.8154a1.1426,1.1426,0,0,0,.0951.9679,5.63,5.63,0,0,0,3.8674,3.2349.1194.1194,0,0,1-.0108.042c-.0446.1049-.3276.4669-2.0879.7386-.2756.0425-.3432.3511-.4215.71-.0279.1284-.057.2579-.0965.3921-.0119.0406-.0142.043-.0578.043h-.0206a1.9422,1.9422,0,0,1-.3342-.0432,5.1588,5.1588,0,0,0-1.0285-.1085,4.591,4.591,0,0,0-.747.0629,3.5747,3.5747,0,0,0-1.4412.7275,3.6956,3.6956,0,0,1-2.25.8959c-.0427,0-.0847-.0014-.1268-.0034l-.011-.0006-.0112.001c-.0241.0021-.0484.003-.0733.003a3.6969,3.6969,0,0,1-2.25-.8957,3.5712,3.5712,0,0,0-1.441-.7277,4.591,4.591,0,0,0-.747-.0629,5.0671,5.0671,0,0,0-1.0286.1154,2.0894,2.0894,0,0,1-.3341.05c-.0637,0-.065-.0037-.0785-.05-.0394-.1343-.0684-.2673-.0964-.3955-.0784-.3591-.1463-.6695-.4215-.712-1.76-.2718-2.0433-.6347-2.088-.7394a.1206.1206,0,0,1-.0107-.0427A5.6286,5.6286,0,0,0,7.24,13.372a1.1422,1.1422,0,0,0,.0952-.9678c-.2077-.49-.8255-.6857-1.2343-.8157-.0937-.03-.1746-.0552-.236-.0795-.5308-.21-.6939-.4208-.67-.5488.0281-.1476.2839-.2977.5071-.2977a.3039.3039,0,0,1,.1266.0233,2.3719,2.3719,0,0,0,.9839.2561.9081.9081,0,0,0,.6813-.2365l.05-.0553L7.54,10.576c-.0093-.1731-.0207-.3543-.0326-.5413a8.8092,8.8092,0,0,1,.1948-3.4573,4.41,4.41,0,0,1,4.0964-2.6413c.0169,0,.3143-.003.3143-.003l.0405,0m0-.3723h-.0008l-.0439,0h0s-.2878.0029-.3107.0029a4.7785,4.7785,0,0,0-4.436,2.8621,8.9806,8.9806,0,0,0-.2263,3.63c.009.1438.0186.293.0268.4373a.7161.7161,0,0,1-.3493.0761,2.0077,2.0077,0,0,1-.8259-.2208.6662.6662,0,0,0-.2846-.0584.8912.8912,0,0,0-.8729.6c-.0492.2587.0665.6361.8983.9646.075.03.1653.0583.2606.0884.3436.1092.863.274,1.004.606a.7976.7976,0,0,1-.0864.6577l-.0083.0181A5.28,5.28,0,0,1,3.3119,16.24a.3728.3728,0,0,0-.3113.3882.5008.5008,0,0,0,.04.1673c.1831.4282.9559.742,2.3628.96a1.7512,1.7512,0,0,1,.1258.4251c.0294.135.06.2743.103.4212a.4163.4163,0,0,0,.4357.3171,2.2648,2.2648,0,0,0,.4055-.0571,4.7429,4.7429,0,0,1,.9572-.1085,4.2192,4.2192,0,0,1,.6863.0579,3.2575,3.2575,0,0,1,1.2863.664,4.0524,4.0524,0,0,0,2.4651.9644c.03,0,.0607-.0009.0907-.0032.0358.0016.0822.0032.1316.0032a4.0511,4.0511,0,0,0,2.4649-.9642,3.2573,3.2573,0,0,1,1.287-.6642,4.2109,4.2109,0,0,1,.686-.0579,4.7733,4.7733,0,0,1,.9572.1016,2.2459,2.2459,0,0,0,.4055.05l.0105,0h.01a.4048.4048,0,0,0,.4152-.3111c.0424-.1439.0729-.28.1029-.4169a1.7323,1.7323,0,0,1,.1254-.4234c1.4072-.2184,2.18-.5317,2.3626-.9581a.4952.4952,0,0,0,.04-.1682.3721.3721,0,0,0-.3111-.3881,5.2785,5.2785,0,0,1-3.5857-3.0141l-.0084-.018a.7965.7965,0,0,1-.0862-.6576c.1408-.332.66-.4968,1.0036-.6058.0962-.03.1865-.0592.2608-.0886.6087-.24.9141-.5356.9076-.8775a.7284.7284,0,0,0-.5467-.6267l-.0011,0a.998.998,0,0,0-.3745-.0717.8285.8285,0,0,0-.3438.07,2.094,2.094,0,0,1-.774.2194.687.687,0,0,1-.3016-.075c.007-.1237.0149-.2511.0233-.3842l.0031-.0517a8.98,8.98,0,0,0-.2262-3.633,4.7863,4.7863,0,0,0-4.4439-2.8636Z"/></svg>