<svg id="deda226f-ffb2-4ce4-afc1-7b7b4d3bc35e" xmlns="http://www.w3.org/2000/svg" viewBox="0 0 24 24"><g id="76d3a119-6164-4007-bf4b-21b539510a09" data-name="Bounding area"><polyline id="021c7dfa-13b0-495e-8b42-b81044a2bfcb" points="24 0 24 24 0 24 0 0" fill="none"/></g><path d="M11.034,15H8.75V5.5a.5.5,0,0,0-.5-.5h-.5a.5.5,0,0,0-.5.5V15H4.966a.4.4,0,0,0-.283.683l3.034,3.034a.4.4,0,0,0,.566,0l3.034-3.034A.4.4,0,0,0,11.034,15Z" fill="#000"/><path d="M18.69,17.9v.77a.359.359,0,0,1-.36.36H13.71a.35.35,0,0,1-.35-.36V17.9a.506.506,0,0,1,.16-.37l2.94-2.73H13.73a.359.359,0,0,1-.36-.36v-.77a.359.359,0,0,1,.36-.36h4.62a.359.359,0,0,1,.36.36v.77a.523.523,0,0,1-.16.37l-2.99,2.73h2.77A.359.359,0,0,1,18.69,17.9ZM16,6.645l-.54,1.89h1.1Zm.91,3.09H15.1l-.23.7a.417.417,0,0,1-.4.29H13.43a.265.265,0,0,1-.27-.39l1.85-5.06a.4.4,0,0,1,.39-.27h1.2a.4.4,0,0,1,.39.27l1.85,5.06a.265.265,0,0,1-.27.39H17.53a.4.4,0,0,1-.4-.29Z" fill="#000"/></svg>