<svg id="489c547a-637f-4065-a248-e7e5f6c5052c"   xmlns="http://www.w3.org/2000/svg" viewBox="0 0 24 24"> <g id="dec16b10-43ef-4e66-90a5-e5833bc06b6c" data-name="Bounding area"><polyline id="868bb4e4-1e8e-4cc2-9255-3d06d9eeedd7"   points="24 0 24 24 0 24 0 0" fill="none"/></g><path d="M17.5,4H6.5a.5.5,0,0,0-.5.5V20.1a.4.4,0,0,0,.669.3L12,15.557l5.331,4.836A.4.4,0,0,0,18,20.1V4.5A.5.5,0,0,0,17.5,4ZM15.445,8.9,13.684,10.4l.637,2.129c.1.329-.062.456-.349.266l-2-1.267L10.039,12.79c-.35.19-.45.063-.35-.266l.637-2.141L8.553,8.9c-.275-.215-.212-.456.137-.456l2.248-.2.774-2.078c.125-.317.337-.317.474,0l.9,2.1,2.223.19C15.657,8.495,15.745,8.7,15.445,8.9Z" fill="#000"/></svg>