<svg xmlns="http://www.w3.org/2000/svg" viewBox="0 0 24 24"><defs><style>.cls-1{fill:none;}.cls-2{fill:#000;}</style></defs><g data-name="Bounding area"><polyline class="cls-1" points="24 0 24 24 0 24 0 0"/></g><path class="cls-2" d="M19.5,6.5v10H4.5V6.5h15m1-1.5H3.5a.5.5,0,0,0-.5.5v12a.5.5,0,0,0,.5.5h17a.5.5,0,0,0,.5-.5V5.5a.5.5,0,0,0-.5-.5Z"/><path class="cls-2" d="M5.5,7.5v8h13v-8ZM14,13.25a.5.5,0,0,1-.5.5h-3a.5.5,0,0,1-.5-.5v-.5a.5.5,0,0,1,.5-.5h3a.5.5,0,0,1,.5.5Zm2-3a.5.5,0,0,1-.5.5h-7a.5.5,0,0,1-.5-.5v-.5a.5.5,0,0,1,.5-.5h7a.5.5,0,0,1,.5.5Z"/></svg>