<svg xmlns="http://www.w3.org/2000/svg" viewBox="0 0 24 24"><defs><style>.cls-1{fill:none;}.cls-2{fill:#000;}</style></defs><g data-name="Bounding area"><polyline class="cls-1" points="24 0 24 24 0 24 0 0"/></g><path class="cls-2" d="M11,9a2.16,2.16,0,0,0-.43-1.79,2.58,2.58,0,0,0-2-.8,2.61,2.61,0,0,0-2,.8A2.12,2.12,0,0,0,6,9l.3,2.47a2.05,2.05,0,0,0,2.17,1.9,2.05,2.05,0,0,0,2.17-1.9Z"/><path class="cls-2" d="M18,9a2.16,2.16,0,0,0-.43-1.79,2.58,2.58,0,0,0-2-.8,2.61,2.61,0,0,0-2,.8A2.12,2.12,0,0,0,13,9l.3,2.47a2.05,2.05,0,0,0,2.17,1.9,2.05,2.05,0,0,0,2.17-1.9Z"/><path class="cls-2" d="M11,14.24a.5.5,0,0,0-.51,0,3.57,3.57,0,0,1-3.87,0,.52.52,0,0,0-.51,0A3.5,3.5,0,0,0,4,17.34v.16a.5.5,0,0,0,.5.5h8a.5.5,0,0,0,.5-.5v-.16A3.47,3.47,0,0,0,11,14.24Z"/><path class="cls-2" d="M15,17.5a5.76,5.76,0,0,0-.47-2.32c-.13-.27,0-.45.31-.39a3.71,3.71,0,0,0,.67.06,3.39,3.39,0,0,0,1.93-.57.5.5,0,0,1,.51,0A3.47,3.47,0,0,1,20,17.34v.16a.5.5,0,0,1-.5.5h-4A.5.5,0,0,1,15,17.5Z"/><path class="cls-2" d="M15,17.5a6.05,6.05,0,0,0-.6-2.35c-.12-.27,0-.45.32-.39a5,5,0,0,0,.79.09"/></svg>