<svg xmlns="http://www.w3.org/2000/svg" viewBox="0 0 24 24"><defs><style>.cls-1{fill:none;}.cls-2{fill:#000;}</style></defs><g data-name="Bounding area"><polyline class="cls-1" points="24 0 24 24 0 24 0 0"/></g><path class="cls-2" d="M18.5,4.5C18.43,13.86,16.33,17,12,19.3,7.68,16.88,5.56,13.77,5.5,4.5h13M4.51,3a.5.5,0,0,0-.5.5V4c0,9.82,2,13.83,7.76,16.87a.56.56,0,0,0,.49,0C18.05,17.87,20,13.81,20,4V3.5a.5.5,0,0,0-.5-.5Z"/><path class="cls-2" d="M11.35,14.29,8,11.44a.51.51,0,0,1,0-.71l.32-.38a.51.51,0,0,1,.71,0l2.53,2.15L15.2,7.5a.5.5,0,0,1,.7-.11l.4.3a.5.5,0,0,1,.1.7L12.07,14.2A.49.49,0,0,1,11.35,14.29Z"/></svg>