<svg xmlns="http://www.w3.org/2000/svg" viewBox="0 0 24 24"><defs><style>.cls-1{fill:none;}.cls-2{fill:#000;}</style></defs><g data-name="Bounding area"><polyline class="cls-1" points="24 0 24 24 0 24 0 0"/></g><path class="cls-2" d="M18.59,11.48a4.9,4.9,0,0,1-1.1.13A3.31,3.31,0,0,1,14.13,8c0-1.13.44-1.72,1.06-1.72s1,.53,1,1.6a6.12,6.12,0,0,1-.29,1.66,2,2,0,0,0,2.19.71,6.62,6.62,0,0,0,.52-2.59c0-2.3-1.17-3.64-3.33-3.64s-3.51,1.7-3.51,4a5.43,5.43,0,0,0,2.76,5,14.08,14.08,0,0,1-2.6,3.66C10.18,14.52,8.61,11.72,8,6.26H5.41c1.18,9.09,4.7,12,5.64,12.54a1.32,1.32,0,0,0,1.46,0,15.08,15.08,0,0,0,4.29-5.36,8.52,8.52,0,0,0,1.79-.2Z"/></svg>