<svg xmlns="http://www.w3.org/2000/svg" viewBox="0 0 24 24"><defs><style>.cls-1{fill:none;}.cls-2{fill:#000;}</style></defs><g data-name="Bounding area"><polyline class="cls-1" points="24 0 24 24 0 24 0 0"/></g><path class="cls-2" d="M11.8,7.37A22.44,22.44,0,0,0,3.31,9.06.51.51,0,0,0,3,9.53v5.36a.51.51,0,0,0,.31.47,22.64,22.64,0,0,0,6.13,1.56.5.5,0,0,0,.56-.5V16a1,1,0,0,1,1-1h2a1,1,0,0,1,1,1v.38a.5.5,0,0,0,.56.5,20.12,20.12,0,0,0,6.15-1.69.49.49,0,0,0,.29-.45V9.69a.5.5,0,0,0-.29-.46A21.62,21.62,0,0,0,11.8,7.37ZM4.72,11.19,6.65,9.26a.5.5,0,0,1,.71,0l.36.36a.5.5,0,0,1,0,.71L5.79,12.26a.5.5,0,0,1-.7,0l-.37-.37A.5.5,0,0,1,4.72,11.19ZM7.84,13l-.36-.36a.5.5,0,0,1,0-.71l2.71-2.71a.5.5,0,0,1,.71,0l.36.36a.5.5,0,0,1,0,.71L8.55,13A.51.51,0,0,1,7.84,13Z"/></svg>